<svg xmlns="http://www.w3.org/2000/svg" xmlns:xlink="http://www.w3.org/1999/xlink" contentStyleType="text/css" data-diagram-type="ACTIVITY" height="737px" preserveAspectRatio="none" style="width:2528px;height:737px;background:#FBF8F1;" version="1.1" viewBox="0 0 2528 737" width="2528px" zoomAndPan="magnify"><?plantuml 1.2026.5?><defs/><g><rect fill="#FBF8F1" height="737" style="stroke:none;stroke-width:1;" width="2528" x="0" y="0"/><rect fill="none" height="15.3105" style="stroke:none;stroke-width:1;" width="2481.4839" x="20" y="16.2422"/><ellipse cx="158.6875" cy="46.5527" fill="#222222" rx="10" ry="10" style="stroke:#222222;stroke-width:1;"/><path d="M311.375,90.9746 L311.375,97.8633 L291.375,101.8633 L311.375,105.8633 L311.375,112.752 A0,0 0 0 0 311.375,112.752 L437.2676,112.752 A0,0 0 0 0 437.2676,112.752 L437.2676,100.9746 L427.2676,90.9746 L311.375,90.9746 A0,0 0 0 0 311.375,90.9746" fill="#FDF6E3" style="stroke:#B8860B;stroke-width:0.5;"/><path d="M427.2676,90.9746 L427.2676,100.9746 L437.2676,100.9746 L427.2676,90.9746" fill="#FDF6E3" style="stroke:#B8860B;stroke-width:0.5;"/><text fill="#25211D" font-family="'Source Sans 3'" font-size="10" lengthAdjust="spacing" textLength="104.8926" x="317.375" y="105.6426">watches: clinical-lead</text><rect fill="#FFFFFF" height="50.6211" rx="4" ry="4" style="stroke:#CFCAC2;stroke-width:1;" width="265.375" x="26" y="76.5527"/><text fill="#25211D" font-family="'Source Sans 3'" font-size="13" font-weight="700" lengthAdjust="spacing" textLength="49.7847" x="36" y="99.1211">Trigger</text><text fill="#25211D" font-family="'Source Sans 3'" font-size="13" lengthAdjust="spacing" textLength="245.375" x="36" y="114.4316">Participant surfaces at top of CC roster</text><path d="M293.8269,155.707 L293.8269,168.4844 L273.8269,172.4844 L293.8269,176.4844 L293.8269,189.2617 A0,0 0 0 0 293.8269,189.2617 L503.3669,189.2617 A0,0 0 0 0 503.3669,189.2617 L503.3669,165.707 L493.3669,155.707 L293.8269,155.707 A0,0 0 0 0 293.8269,155.707" fill="#FDF6E3" style="stroke:#B8860B;stroke-width:0.5;"/><path d="M493.3669,155.707 L493.3669,165.707 L503.3669,165.707 L493.3669,155.707" fill="#FDF6E3" style="stroke:#B8860B;stroke-width:0.5;"/><text fill="#25211D" font-family="'Source Sans 3'" font-size="10" lengthAdjust="spacing" textLength="188.54" x="299.8269" y="170.375">[TBD] data source for saved preference</text><text fill="#25211D" font-family="'Source Sans 3'" font-size="10" lengthAdjust="spacing" textLength="104.8926" x="299.8269" y="182.1523">watches: clinical-lead</text><rect fill="#FDF6E3" height="50.6211" rx="4" ry="4" style="stroke:#CFCAC2;stroke-width:1;" width="230.2788" x="43.5481" y="147.1738"/><text fill="#25211D" font-family="'Source Sans 3'" font-size="13" font-weight="700" lengthAdjust="spacing" textLength="57.4907" x="53.5481" y="169.7422">Decision</text><text fill="#25211D" font-family="'Source Sans 3'" font-size="13" lengthAdjust="spacing" textLength="210.2788" x="53.5481" y="185.0527">Channel selection (phone or text)</text><line style="stroke:#000000;stroke-width:1.5;" x1="20" x2="20" y1="16.2422" y2="716.1895"/><path d="M1369.7905,226.3281 L1369.7905,239.1055 L1349.7905,243.1055 L1369.7905,247.1055 L1369.7905,259.8828 A0,0 0 0 0 1369.7905,259.8828 L1565.2144,259.8828 A0,0 0 0 0 1565.2144,259.8828 L1565.2144,236.3281 L1555.2144,226.3281 L1369.7905,226.3281 A0,0 0 0 0 1369.7905,226.3281" fill="#FDF6E3" style="stroke:#B8860B;stroke-width:0.5;"/><path d="M1555.2144,226.3281 L1555.2144,236.3281 L1565.2144,236.3281 L1555.2144,226.3281" fill="#FDF6E3" style="stroke:#B8860B;stroke-width:0.5;"/><text fill="#25211D" font-family="'Source Sans 3'" font-size="10" lengthAdjust="spacing" textLength="174.4238" x="1375.7905" y="240.9961">[GAP] cap-25 CC do/don't guidance</text><text fill="#25211D" font-family="'Source Sans 3'" font-size="10" lengthAdjust="spacing" textLength="104.8926" x="1375.7905" y="252.7734">watches: clinical-lead</text><rect fill="#FADBD8" height="50.6211" rx="4" ry="4" style="stroke:#CFCAC2;stroke-width:1;" width="249.5566" x="1100.2339" y="217.7949"/><text fill="#25211D" font-family="'Source Sans 3'" font-size="13" font-weight="700" lengthAdjust="spacing" textLength="51.2129" x="1110.2339" y="240.3633">Enquiry</text><text fill="#25211D" font-family="'Source Sans 3'" font-size="13" lengthAdjust="spacing" textLength="229.5566" x="1110.2339" y="255.6738">Conduct the 10-15 minute check-in</text><path d="M1352.5725,291.0605 L1352.5725,309.7266 L1332.5725,313.7266 L1352.5725,317.7266 L1352.5725,336.3926 A0,0 0 0 0 1352.5725,336.3926 L1600.5012,336.3926 A0,0 0 0 0 1600.5012,336.3926 L1600.5012,301.0605 L1590.5012,291.0605 L1352.5725,291.0605 A0,0 0 0 0 1352.5725,291.0605" fill="#FDF6E3" style="stroke:#B8860B;stroke-width:0.5;"/><path d="M1590.5012,291.0605 L1590.5012,301.0605 L1600.5012,301.0605 L1590.5012,291.0605" fill="#FDF6E3" style="stroke:#B8860B;stroke-width:0.5;"/><text fill="#25211D" font-family="'Source Sans 3'" font-size="10" lengthAdjust="spacing" textLength="226.9287" x="1358.5725" y="305.7285">[TBD] boundary semantics for the 5-way enum</text><text fill="#25211D" font-family="'Source Sans 3'" font-size="10" lengthAdjust="spacing" textLength="80.9863" x="1358.5725" y="317.5059">pending Marrero</text><text fill="#25211D" font-family="'Source Sans 3'" font-size="10" lengthAdjust="spacing" textLength="104.8926" x="1358.5725" y="329.2832">watches: clinical-lead</text><rect fill="#FDF6E3" height="50.6211" rx="4" ry="4" style="stroke:#CFCAC2;stroke-width:1;" width="215.1206" x="1117.4519" y="288.416"/><text fill="#25211D" font-family="'Source Sans 3'" font-size="13" font-weight="700" lengthAdjust="spacing" textLength="57.4907" x="1127.4519" y="310.9844">Decision</text><text fill="#25211D" font-family="'Source Sans 3'" font-size="13" lengthAdjust="spacing" textLength="195.1206" x="1127.4519" y="326.2949">Outcome classification (5-way)</text><polygon fill="#F8F4EC" points="1194.8005,359.0371,1255.2239,359.0371,1267.2239,371.0371,1255.2239,383.0371,1194.8005,383.0371,1182.8005,371.0371,1194.8005,359.0371" style="stroke:#0D322D;stroke-width:1;stroke-linejoin:miter;stroke-miterlimit:10;"/><text fill="#25211D" font-family="'Source Sans 3'" font-size="13" lengthAdjust="spacing" textLength="60.4233" x="1194.8005" y="375.9502">outcome?</text><path d="M780.4578,427.4805 L780.4578,440.2578 L760.4578,444.2578 L780.4578,448.2578 L780.4578,461.0352 A0,0 0 0 0 780.4578,461.0352 L993.406,461.0352 A0,0 0 0 0 993.406,461.0352 L993.406,437.4805 L983.406,427.4805 L780.4578,427.4805 A0,0 0 0 0 780.4578,427.4805" fill="#FDF6E3" style="stroke:#B8860B;stroke-width:0.5;"/><path d="M983.406,427.4805 L983.406,437.4805 L993.406,437.4805 L983.406,427.4805" fill="#FDF6E3" style="stroke:#B8860B;stroke-width:0.5;"/><text fill="#25211D" font-family="'Source Sans 3'" font-size="10" lengthAdjust="spacing" textLength="191.9482" x="786.4578" y="442.1484">[TBD] structured outcome-field schema</text><text fill="#25211D" font-family="'Source Sans 3'" font-size="10" lengthAdjust="spacing" textLength="104.8926" x="786.4578" y="453.9258">watches: clinical-lead</text><rect fill="#FDF6E3" height="50.6211" rx="4" ry="4" style="stroke:#CFCAC2;stroke-width:1;" width="246.0908" x="514.3669" y="418.9473"/><text fill="#25211D" font-family="'Source Sans 3'" font-size="13" font-weight="700" lengthAdjust="spacing" textLength="42.8276" x="524.3669" y="441.5156">Action</text><text fill="#25211D" font-family="'Source Sans 3'" font-size="13" lengthAdjust="spacing" textLength="226.0908" x="524.3669" y="456.8262">Log outcome + set next-touch plan</text><ellipse cx="637.4124" cy="500.5684" fill="none" rx="11" ry="11" style="stroke:#222222;stroke-width:1;"/><ellipse cx="637.4124" cy="500.5684" fill="#222222" rx="6" ry="6" style="stroke:#222222;stroke-width:1;"/><rect fill="#FFFFFF" height="50.6211" rx="4" ry="4" style="stroke:#CFCAC2;stroke-width:1;" width="222.5854" x="1003.406" y="489.5684"/><text fill="#25211D" font-family="'Source Sans 3'" font-size="13" font-weight="700" lengthAdjust="spacing" textLength="42.8276" x="1013.406" y="512.1367">Action</text><text fill="#25211D" font-family="'Source Sans 3'" font-size="13" lengthAdjust="spacing" textLength="202.5854" x="1013.406" y="527.4473">Log outcome (yellow flag noted)</text><ellipse cx="1114.6987" cy="571.1895" fill="none" rx="11" ry="11" style="stroke:#222222;stroke-width:1;"/><ellipse cx="1114.6987" cy="571.1895" fill="#222222" rx="6" ry="6" style="stroke:#222222;stroke-width:1;"/><path d="M1734.3022,421.5918 L1734.3022,440.2578 L1714.3022,444.2578 L1734.3022,448.2578 L1734.3022,466.9238 A0,0 0 0 0 1734.3022,466.9238 L1966.6841,466.9238 A0,0 0 0 0 1966.6841,466.9238 L1966.6841,431.5918 L1956.6841,421.5918 L1734.3022,421.5918 A0,0 0 0 0 1734.3022,421.5918" fill="#FDF6E3" style="stroke:#B8860B;stroke-width:0.5;"/><path d="M1956.6841,421.5918 L1956.6841,431.5918 L1966.6841,431.5918 L1956.6841,421.5918" fill="#FDF6E3" style="stroke:#B8860B;stroke-width:0.5;"/><text fill="#25211D" font-family="'Source Sans 3'" font-size="10" lengthAdjust="spacing" textLength="211.3818" x="1740.3022" y="436.2598">[GAP] cap-26 multi-modal contact protocol</text><text fill="#25211D" font-family="'Source Sans 3'" font-size="10" lengthAdjust="spacing" textLength="163.3984" x="1740.3022" y="448.0371">undefined; retry cadence pending</text><text fill="#25211D" font-family="'Source Sans 3'" font-size="10" lengthAdjust="spacing" textLength="104.8926" x="1740.3022" y="459.8145">watches: clinical-lead</text><rect fill="#FADBD8" height="50.6211" rx="4" ry="4" style="stroke:#CFCAC2;stroke-width:1;" width="176.0381" x="1538.2642" y="418.9473"/><text fill="#25211D" font-family="'Source Sans 3'" font-size="13" font-weight="700" lengthAdjust="spacing" textLength="42.8276" x="1548.2642" y="441.5156">Action</text><text fill="#25211D" font-family="'Source Sans 3'" font-size="13" lengthAdjust="spacing" textLength="156.0381" x="1548.2642" y="456.8262">Schedule follow-up retry</text><rect fill="#FFFFFF" height="50.6211" rx="4" ry="4" style="stroke:#CFCAC2;stroke-width:1;" width="212.3213" x="1520.1226" y="489.5684"/><text fill="#25211D" font-family="'Source Sans 3'" font-size="13" font-weight="700" lengthAdjust="spacing" textLength="42.8276" x="1530.1226" y="512.1367">Action</text><text fill="#25211D" font-family="'Source Sans 3'" font-size="13" lengthAdjust="spacing" textLength="192.3213" x="1530.1226" y="527.4473">Log outcome (retry scheduled)</text><ellipse cx="1626.2832" cy="571.1895" fill="none" rx="11" ry="11" style="stroke:#222222;stroke-width:1;"/><ellipse cx="1626.2832" cy="571.1895" fill="#222222" rx="6" ry="6" style="stroke:#222222;stroke-width:1;"/><line style="stroke:#000000;stroke-width:1.5;" x1="508.3669" x2="508.3669" y1="16.2422" y2="716.1895"/><path d="M2262.3228,421.5918 L2262.3228,440.2578 L2242.3228,444.2578 L2262.3228,448.2578 L2262.3228,466.9238 A0,0 0 0 0 2262.3228,466.9238 L2495.4272,466.9238 A0,0 0 0 0 2495.4272,466.9238 L2495.4272,431.5918 L2485.4272,421.5918 L2262.3228,421.5918 A0,0 0 0 0 2262.3228,421.5918" fill="#FDF6E3" style="stroke:#B8860B;stroke-width:0.5;"/><path d="M2485.4272,421.5918 L2485.4272,431.5918 L2495.4272,431.5918 L2485.4272,421.5918" fill="#FDF6E3" style="stroke:#B8860B;stroke-width:0.5;"/><text fill="#25211D" font-family="'Source Sans 3'" font-size="10" lengthAdjust="spacing" textLength="212.1045" x="2268.3228" y="436.2598">[ASSUMPTION] first-action specifics &#8212; what</text><text fill="#25211D" font-family="'Source Sans 3'" font-size="10" lengthAdjust="spacing" textLength="178.6621" x="2268.3228" y="448.0371">the CC does in the first turn pending</text><text fill="#25211D" font-family="'Source Sans 3'" font-size="10" lengthAdjust="spacing" textLength="104.8926" x="2268.3228" y="459.8145">watches: clinical-lead</text><rect fill="#EFE9DA" height="50.6211" rx="4" ry="4" style="stroke:#CFCAC2;stroke-width:1;" width="264.6387" x="1977.6841" y="418.9473"/><text fill="#25211D" font-family="'Source Sans 3'" font-size="13" font-weight="700" lengthAdjust="spacing" textLength="62.3213" x="1987.6841" y="441.5156">Hand-off</text><text fill="#25211D" font-family="'Source Sans 3'" font-size="13" lengthAdjust="spacing" textLength="244.6387" x="1987.6841" y="456.8262">CC &#8594; UConn clinical team (yellow flag)</text><line style="stroke:#000000;stroke-width:1.5;" x1="1971.6841" x2="1971.6841" y1="16.2422" y2="716.1895"/><line style="stroke:#000000;stroke-width:1.5;" x1="2500.4272" x2="2500.4272" y1="16.2422" y2="716.1895"/><line style="stroke:#5A544E;stroke-width:1;" x1="158.6875" x2="158.6875" y1="56.5527" y2="76.5527"/><polygon fill="#5A544E" points="154.6875,66.5527,158.6875,76.5527,162.6875,66.5527,158.6875,70.5527" style="stroke:#5A544E;stroke-width:1;stroke-linejoin:miter;stroke-miterlimit:10;"/><line style="stroke:#5A544E;stroke-width:1;" x1="158.6875" x2="158.6875" y1="127.1738" y2="147.1738"/><polygon fill="#5A544E" points="154.6875,137.1738,158.6875,147.1738,162.6875,137.1738,158.6875,141.1738" style="stroke:#5A544E;stroke-width:1;stroke-linejoin:miter;stroke-miterlimit:10;"/><line style="stroke:#5A544E;stroke-width:1;" x1="1225.0122" x2="1225.0122" y1="268.416" y2="288.416"/><polygon fill="#5A544E" points="1221.0122,278.416,1225.0122,288.416,1229.0122,278.416,1225.0122,282.416" style="stroke:#5A544E;stroke-width:1;stroke-linejoin:miter;stroke-miterlimit:10;"/><line style="stroke:#5A544E;stroke-width:1;" x1="637.4124" x2="637.4124" y1="469.5684" y2="489.5684"/><polygon fill="#5A544E" points="633.4124,479.5684,637.4124,489.5684,641.4124,479.5684,637.4124,483.5684" style="stroke:#5A544E;stroke-width:1;stroke-linejoin:miter;stroke-miterlimit:10;"/><line style="stroke:#5A544E;stroke-width:1;" x1="1114.6987" x2="1114.6987" y1="540.1895" y2="560.1895"/><polygon fill="#5A544E" points="1110.6987,550.1895,1114.6987,560.1895,1118.6987,550.1895,1114.6987,554.1895" style="stroke:#5A544E;stroke-width:1;stroke-linejoin:miter;stroke-miterlimit:10;"/><line style="stroke:#5A544E;stroke-width:1;" x1="1626.2832" x2="1626.2832" y1="469.5684" y2="489.5684"/><polygon fill="#5A544E" points="1622.2832,479.5684,1626.2832,489.5684,1630.2832,479.5684,1626.2832,483.5684" style="stroke:#5A544E;stroke-width:1;stroke-linejoin:miter;stroke-miterlimit:10;"/><line style="stroke:#5A544E;stroke-width:1;" x1="1626.2832" x2="1626.2832" y1="540.1895" y2="560.1895"/><polygon fill="#5A544E" points="1622.2832,550.1895,1626.2832,560.1895,1630.2832,550.1895,1626.2832,554.1895" style="stroke:#5A544E;stroke-width:1;stroke-linejoin:miter;stroke-miterlimit:10;"/><line style="stroke:#5A544E;stroke-width:1;" x1="1182.8005" x2="637.4124" y1="371.0371" y2="371.0371"/><line style="stroke:#5A544E;stroke-width:1;" x1="637.4124" x2="637.4124" y1="371.0371" y2="418.9473"/><polygon fill="#5A544E" points="633.4124,408.9473,637.4124,418.9473,641.4124,408.9473,637.4124,412.9473" style="stroke:#5A544E;stroke-width:1;stroke-linejoin:miter;stroke-miterlimit:10;"/><text fill="#5A544E" font-family="'Source Sans 3'" font-size="11" font-style="italic" lengthAdjust="spacing" textLength="165.897" x="637.4124" y="399.1494">successful &#8212; log + next-touch</text><line style="stroke:#5A544E;stroke-width:1;" x1="1267.2239" x2="1626.2832" y1="371.0371" y2="371.0371"/><line style="stroke:#5A544E;stroke-width:1;" x1="1626.2832" x2="1626.2832" y1="371.0371" y2="418.9473"/><polygon fill="#5A544E" points="1622.2832,408.9473,1626.2832,418.9473,1630.2832,408.9473,1626.2832,412.9473" style="stroke:#5A544E;stroke-width:1;stroke-linejoin:miter;stroke-miterlimit:10;"/><text fill="#5A544E" font-family="'Source Sans 3'" font-size="11" font-style="italic" lengthAdjust="spacing" textLength="228.4004" x="1626.2832" y="399.1494">deferred / refused / no answer / voicemail</text><line style="stroke:#5A544E;stroke-width:1;" x1="1225.0122" x2="1225.0122" y1="339.0371" y2="359.0371"/><polygon fill="#5A544E" points="1221.0122,349.0371,1225.0122,359.0371,1229.0122,349.0371,1225.0122,353.0371" style="stroke:#5A544E;stroke-width:1;stroke-linejoin:miter;stroke-miterlimit:10;"/><line style="stroke:#5A544E;stroke-width:1;" x1="158.6875" x2="158.6875" y1="197.7949" y2="202.7949"/><line style="stroke:#5A544E;stroke-width:1;" x1="158.6875" x2="1225.0122" y1="202.7949" y2="202.7949"/><line style="stroke:#5A544E;stroke-width:1;" x1="1225.0122" x2="1225.0122" y1="202.7949" y2="217.7949"/><polygon fill="#5A544E" points="1221.0122,207.7949,1225.0122,217.7949,1229.0122,207.7949,1225.0122,211.7949" style="stroke:#5A544E;stroke-width:1;stroke-linejoin:miter;stroke-miterlimit:10;"/><line style="stroke:#5A544E;stroke-width:1;" x1="2110.0034" x2="2110.0034" y1="469.5684" y2="474.5684"/><line style="stroke:#5A544E;stroke-width:1;" x1="2110.0034" x2="1114.6987" y1="474.5684" y2="474.5684"/><line style="stroke:#5A544E;stroke-width:1;" x1="1114.6987" x2="1114.6987" y1="474.5684" y2="489.5684"/><polygon fill="#5A544E" points="1110.6987,479.5684,1114.6987,489.5684,1118.6987,479.5684,1114.6987,483.5684" style="stroke:#5A544E;stroke-width:1;stroke-linejoin:miter;stroke-miterlimit:10;"/><line style="stroke:#5A544E;stroke-width:1;" x1="1267.2239" x2="2110.0034" y1="371.0371" y2="371.0371"/><line style="stroke:#5A544E;stroke-width:1;" x1="2110.0034" x2="2110.0034" y1="371.0371" y2="418.9473"/><polygon fill="#5A544E" points="2106.0034,408.9473,2110.0034,418.9473,2114.0034,408.9473,2110.0034,412.9473" style="stroke:#5A544E;stroke-width:1;stroke-linejoin:miter;stroke-miterlimit:10;"/><text fill="#5A544E" font-family="'Source Sans 3'" font-size="11" font-style="italic" lengthAdjust="spacing" textLength="160.4507" x="2110.0034" y="399.1494">yellow flag &#8212; escalation route</text><text fill="#25211D" font-family="'Source Sans 3'" font-size="13" lengthAdjust="spacing" textLength="43.2339" x="242.5665" y="28.8105">AGENT</text><text fill="#25211D" font-family="'Source Sans 3'" font-size="13" lengthAdjust="spacing" textLength="48.3311" x="1215.86" y="28.8105">HUMAN</text><text fill="#25211D" font-family="'Source Sans 3'" font-size="13" lengthAdjust="spacing" textLength="57.4653" x="2207.323" y="28.8105">PARTNER</text><?plantuml-src bLRBRXit5DtFLroa2p_QWIt9SbKxIA5ORboWLen8HXU55nHvgI54aHEIOrMj2dJL3oZwXVcINiwCafbOIbqj10tdFiuvzq4Tm0rxH0ChwnPIszK5_8ouq6lW6V95gWnmfZKSNbs1iqLG1e-I0nYXyIgi8Q0F5z03pGpwR-1RC5R47xrqnTOmSypmJ9av2EJAAskIn2-KoPbZIvWnlfXJJ2EkhBOElf8pEP2TXiK89Ijq-C6QC6PBX1SJMpYEC676G-_5Rik9-WsXqzlziixKxNSxdL73n6TCs5L4Afdss7XJ0kJM6NGmQCAdxw02SOBV4u3NUyZG6-i4klgKIyvubquROFgiVtQ6zLc5_cpx5DOQOMQrIFvevcOygCUe_-xKvMTlwkfqcYc-eA9vwBJXrDe0Z1HRMYEUXX_8C-GDWsQMqr6lsnrzXjOvkogXxcAyNuLEImKLc5Qy7TdOW7iq4F8SUvzhC1iCpazdU_X-IdmQiso6Rwx7qqtY0nKwkJW-dZerdwCxFaxkOkcvofa9u0id6KSFB42mELW9vQZuWEuoAG6INnOemOe56Yf_0LmhesYiKerC96X4III9IKRre52MgumPWneyQkHbentccJK8X3hWh-7e4bw-h8c-UjLEzSlqzUW110iCV3KpahmyJRg0tA54XuRZSp1jRkvlX-DDn7PjtXVAhICqAdl1YN0MrKexVLWgKr3-xTAee34n4uCdqDuCxnvegUHfjn-b4lP4M7CGO5uemPw9ggtKso9mI_k1Q-QzakHGoTMFM-Y_PPh5lc5kJKelgQIA-rAjIAwC06YA9Lddb3-kY5jgQ7JsEJZzIf457DeAuVT72MSUuT0Nd7h6oqB3Xp__0Mtdy3KOAceQRC6p8ufD58TbsOaWm4zaKGSXIu-XOGqvhTysIu0MporJ7noLhN3K1NMmL2hK0ZpHMBBISWydW8-iWEBOl6QoHast1aZDvYKLzEHIwH_l2unKDdV3TzFnzRjDHUk66P5QAKjYr04V_leRxgcbpCUKrDyqtStOLHMfSRyJR2U_uMHoVtit_V7j-06aSZwah1eQdrEZo5ZK26-LiSeXLhViFXfTkkJYO-a698_PblhPWcodv4jbQqaL_SJHPLjB4GSp5kS4Q4OBN_uo5kYwMz7rSmAFLd6gaz9F6sH264MXuw37B6cHKupWrkr9VAhRfsayXoNTaYfTMa4LuBGDIK7Q5ZPORdLfJNE2alu2YCigE3cAk4Z-jrvVKAaAx6iw3Ot8lHgdv5y0?></g></svg>