<svg xmlns="http://www.w3.org/2000/svg" xmlns:xlink="http://www.w3.org/1999/xlink" contentStyleType="text/css" data-diagram-type="ACTIVITY" height="612px" preserveAspectRatio="none" style="width:1889px;height:612px;background:#FBF8F1;" version="1.1" viewBox="0 0 1889 612" width="1889px" zoomAndPan="magnify"><?plantuml 1.2026.5?><defs/><g><rect fill="#FBF8F1" height="612" style="stroke:none;stroke-width:1;" width="1889" x="0" y="0"/><rect fill="none" height="15.3105" style="stroke:none;stroke-width:1;" width="1842.7585" x="20" y="16.2422"/><ellipse cx="140.1555" cy="46.5527" fill="#222222" rx="10" ry="10" style="stroke:#222222;stroke-width:1;"/><path d="M274.311,85.0859 L274.311,97.8633 L254.311,101.8633 L274.311,105.8633 L274.311,118.6406 A0,0 0 0 0 274.311,118.6406 L470.7798,118.6406 A0,0 0 0 0 470.7798,118.6406 L470.7798,95.0859 L460.7798,85.0859 L274.311,85.0859 A0,0 0 0 0 274.311,85.0859" fill="#FDF6E3" style="stroke:#B8860B;stroke-width:0.5;"/><path d="M460.7798,85.0859 L460.7798,95.0859 L470.7798,95.0859 L460.7798,85.0859" fill="#FDF6E3" style="stroke:#B8860B;stroke-width:0.5;"/><text fill="#25211D" font-family="'Source Sans 3'" font-size="10" lengthAdjust="spacing" textLength="175.4688" x="280.311" y="99.7539">[TBD] threshold value for total score</text><text fill="#25211D" font-family="'Source Sans 3'" font-size="10" lengthAdjust="spacing" textLength="104.8926" x="280.311" y="111.5313">watches: clinical-lead</text><rect fill="#FDF6E3" height="50.6211" rx="4" ry="4" style="stroke:#CFCAC2;stroke-width:1;" width="228.311" x="26" y="76.5527"/><text fill="#25211D" font-family="'Source Sans 3'" font-size="13" font-weight="700" lengthAdjust="spacing" textLength="49.7847" x="36" y="99.1211">Trigger</text><text fill="#25211D" font-family="'Source Sans 3'" font-size="13" lengthAdjust="spacing" textLength="208.311" x="36" y="114.4316">PHQ9 positive response detected</text><path d="M233.3052,155.707 L233.3052,168.4844 L213.3052,172.4844 L233.3052,176.4844 L233.3052,189.2617 A0,0 0 0 0 233.3052,189.2617 L482.0786,189.2617 A0,0 0 0 0 482.0786,189.2617 L482.0786,165.707 L472.0786,155.707 L233.3052,155.707 A0,0 0 0 0 233.3052,155.707" fill="#FDF6E3" style="stroke:#B8860B;stroke-width:0.5;"/><path d="M472.0786,155.707 L472.0786,165.707 L482.0786,165.707 L472.0786,155.707" fill="#FDF6E3" style="stroke:#B8860B;stroke-width:0.5;"/><text fill="#25211D" font-family="'Source Sans 3'" font-size="10" lengthAdjust="spacing" textLength="227.7734" x="239.3052" y="170.375">[GAP] severity tier boundaries pending Marrero</text><text fill="#25211D" font-family="'Source Sans 3'" font-size="10" lengthAdjust="spacing" textLength="104.8926" x="239.3052" y="182.1523">watches: clinical-lead</text><rect fill="#FADBD8" height="50.6211" rx="4" ry="4" style="stroke:#CFCAC2;stroke-width:1;" width="146.2993" x="67.0059" y="147.1738"/><text fill="#25211D" font-family="'Source Sans 3'" font-size="13" font-weight="700" lengthAdjust="spacing" textLength="57.4907" x="77.0059" y="169.7422">Decision</text><text fill="#25211D" font-family="'Source Sans 3'" font-size="13" lengthAdjust="spacing" textLength="126.2993" x="77.0059" y="185.0527">Severity assessment</text><line style="stroke:#000000;stroke-width:1.5;" x1="20" x2="20" y1="16.2422" y2="591.3887"/><path d="M722.8445,226.3281 L722.8445,239.1055 L702.8445,243.1055 L722.8445,247.1055 L722.8445,259.8828 A0,0 0 0 0 722.8445,259.8828 L894.2595,259.8828 A0,0 0 0 0 894.2595,259.8828 L894.2595,236.3281 L884.2595,226.3281 L722.8445,226.3281 A0,0 0 0 0 722.8445,226.3281" fill="#FDF6E3" style="stroke:#B8860B;stroke-width:0.5;"/><path d="M884.2595,226.3281 L884.2595,236.3281 L894.2595,236.3281 L884.2595,226.3281" fill="#FDF6E3" style="stroke:#B8860B;stroke-width:0.5;"/><text fill="#25211D" font-family="'Source Sans 3'" font-size="10" lengthAdjust="spacing" textLength="150.415" x="728.8445" y="240.9961">[TBD] clinical-lead role identity</text><text fill="#25211D" font-family="'Source Sans 3'" font-size="10" lengthAdjust="spacing" textLength="89.0039" x="728.8445" y="252.7734">pending Cena hire</text><rect fill="#F8F4EC" height="50.6211" rx="4" ry="4" style="stroke:#CFCAC2;stroke-width:1;" width="140.8276" x="562.0168" y="217.7949"/><text fill="#25211D" font-family="'Source Sans 3'" font-size="13" font-weight="700" lengthAdjust="spacing" textLength="107.7134" x="572.0168" y="240.3633">Attestation gate</text><text fill="#25211D" font-family="'Source Sans 3'" font-size="13" font-style="italic" lengthAdjust="spacing" textLength="120.8276" x="572.0168" y="255.6738">Clinical lead review</text><polygon fill="#F8F4EC" points="608.6968,293.1465,656.1646,293.1465,668.1646,305.1465,656.1646,317.1465,608.6968,317.1465,596.6968,305.1465,608.6968,293.1465" style="stroke:#0D322D;stroke-width:1;stroke-linejoin:miter;stroke-miterlimit:10;"/><text fill="#25211D" font-family="'Source Sans 3'" font-size="13" lengthAdjust="spacing" textLength="47.4678" x="608.6968" y="310.0596">signed?</text><text fill="#5A544E" font-family="'Source Sans 3'" font-size="11" font-style="italic" lengthAdjust="spacing" textLength="94.8696" x="492.0786" y="289.8711">red &#8212; same-hour</text><text fill="#5A544E" font-family="'Source Sans 3'" font-size="11" font-style="italic" lengthAdjust="spacing" textLength="104.6182" x="492.0786" y="302.8262">yellow &#8212; same-day</text><text fill="#5A544E" font-family="'Source Sans 3'" font-size="11" font-style="italic" lengthAdjust="spacing" textLength="96.0083" x="668.1646" y="302.8262">deferred / decline</text><line style="stroke:#000000;stroke-width:1.5;" x1="487.0786" x2="487.0786" y1="16.2422" y2="591.3887"/><path d="M1152.2727,345.6797 L1152.2727,358.457 L1132.2727,362.457 L1152.2727,366.457 L1152.2727,379.2344 A0,0 0 0 0 1152.2727,379.2344 L1391.803,379.2344 A0,0 0 0 0 1391.803,379.2344 L1391.803,355.6797 L1381.803,345.6797 L1152.2727,345.6797 A0,0 0 0 0 1152.2727,345.6797" fill="#FDF6E3" style="stroke:#B8860B;stroke-width:0.5;"/><path d="M1381.803,345.6797 L1381.803,355.6797 L1391.803,355.6797 L1381.803,345.6797" fill="#FDF6E3" style="stroke:#B8860B;stroke-width:0.5;"/><text fill="#25211D" font-family="'Source Sans 3'" font-size="10" lengthAdjust="spacing" textLength="218.5303" x="1158.2727" y="360.3477">[ASSUMPTION] BHN partner protocol pending</text><text fill="#25211D" font-family="'Source Sans 3'" font-size="10" lengthAdjust="spacing" textLength="104.8926" x="1158.2727" y="372.125">watches: clinical-lead</text><rect fill="#EFE9DA" height="50.6211" rx="4" ry="4" style="stroke:#CFCAC2;stroke-width:1;" width="226.6353" x="905.6375" y="337.1465"/><text fill="#25211D" font-family="'Source Sans 3'" font-size="13" font-weight="700" lengthAdjust="spacing" textLength="62.3213" x="915.6375" y="359.7148">Hand-off</text><text fill="#25211D" font-family="'Source Sans 3'" font-size="13" lengthAdjust="spacing" textLength="206.6353" x="915.6375" y="375.0254">Care Coordinator &#8594; BHN partner</text><polygon fill="#F8F4EC" points="1005.4949,422.7676,1032.4153,422.7676,1044.4153,434.7676,1032.4153,446.7676,1005.4949,446.7676,993.4949,434.7676,1005.4949,422.7676" style="stroke:#0D322D;stroke-width:1;stroke-linejoin:miter;stroke-miterlimit:10;"/><text fill="#25211D" font-family="'Source Sans 3'" font-size="13" lengthAdjust="spacing" textLength="26.9204" x="1005.4949" y="439.6807">ack?</text><text fill="#5A544E" font-family="'Source Sans 3'" font-size="11" font-style="italic" lengthAdjust="spacing" textLength="89.2354" x="904.2595" y="432.4473">BHN ack &#8594; audit</text><text fill="#5A544E" font-family="'Source Sans 3'" font-size="11" font-style="italic" lengthAdjust="spacing" textLength="158.1787" x="1044.4153" y="432.4473">timeout &#8594; escalation re-fired</text><line style="stroke:#000000;stroke-width:1.5;" x1="899.2595" x2="899.2595" y1="16.2422" y2="591.3887"/><rect fill="#FFFFFF" height="50.6211" rx="4" ry="4" style="stroke:#CFCAC2;stroke-width:1;" width="143.0049" x="1402.803" y="466.7676"/><text fill="#25211D" font-family="'Source Sans 3'" font-size="13" font-weight="700" lengthAdjust="spacing" textLength="107.7134" x="1412.803" y="489.3359">Attestation gate</text><text fill="#25211D" font-family="'Source Sans 3'" font-size="13" font-style="italic" lengthAdjust="spacing" textLength="123.0049" x="1412.803" y="504.6465">Audit record sealed</text><ellipse cx="1474.3054" cy="548.3887" fill="none" rx="11" ry="11" style="stroke:#222222;stroke-width:1;"/><ellipse cx="1474.3054" cy="548.3887" fill="#222222" rx="6" ry="6" style="stroke:#222222;stroke-width:1;"/><rect fill="#FFFFFF" height="35.3105" rx="4" ry="4" style="stroke:#CFCAC2;stroke-width:1;" width="148.1719" x="1555.8079" y="466.7676"/><text fill="#25211D" font-family="'Source Sans 3'" font-size="13" lengthAdjust="spacing" textLength="128.1719" x="1565.8079" y="489.3359">back to clinical-lead</text><rect fill="#FFFFFF" height="35.3105" rx="4" ry="4" style="stroke:#CFCAC2;stroke-width:1;" width="143.7222" x="1713.9797" y="337.1465"/><text fill="#25211D" font-family="'Source Sans 3'" font-size="13" lengthAdjust="spacing" textLength="123.7222" x="1723.9797" y="359.7148">Audit (decline path)</text><ellipse cx="1785.8408" cy="418.457" fill="none" rx="11" ry="11" style="stroke:#222222;stroke-width:1;"/><ellipse cx="1785.8408" cy="418.457" fill="#222222" rx="6" ry="6" style="stroke:#222222;stroke-width:1;"/><line style="stroke:#000000;stroke-width:1.5;" x1="1396.803" x2="1396.803" y1="16.2422" y2="591.3887"/><line style="stroke:#000000;stroke-width:1.5;" x1="1861.7019" x2="1861.7019" y1="16.2422" y2="591.3887"/><line style="stroke:#5A544E;stroke-width:1;" x1="140.1555" x2="140.1555" y1="56.5527" y2="76.5527"/><polygon fill="#5A544E" points="136.1555,66.5527,140.1555,76.5527,144.1555,66.5527,140.1555,70.5527" style="stroke:#5A544E;stroke-width:1;stroke-linejoin:miter;stroke-miterlimit:10;"/><line style="stroke:#5A544E;stroke-width:1;" x1="140.1555" x2="140.1555" y1="127.1738" y2="147.1738"/><polygon fill="#5A544E" points="136.1555,137.1738,140.1555,147.1738,144.1555,137.1738,140.1555,141.1738" style="stroke:#5A544E;stroke-width:1;stroke-linejoin:miter;stroke-miterlimit:10;"/><line style="stroke:#5A544E;stroke-width:1;" x1="632.4307" x2="632.4307" y1="268.416" y2="293.1465"/><polygon fill="#5A544E" points="628.4307,283.1465,632.4307,293.1465,636.4307,283.1465,632.4307,287.1465" style="stroke:#5A544E;stroke-width:1;stroke-linejoin:miter;stroke-miterlimit:10;"/><line style="stroke:#5A544E;stroke-width:1;" x1="1018.9551" x2="1018.9551" y1="387.7676" y2="422.7676"/><polygon fill="#5A544E" points="1014.9551,412.7676,1018.9551,422.7676,1022.9551,412.7676,1018.9551,416.7676" style="stroke:#5A544E;stroke-width:1;stroke-linejoin:miter;stroke-miterlimit:10;"/><line style="stroke:#5A544E;stroke-width:1;" x1="1474.3054" x2="1474.3054" y1="517.3887" y2="537.3887"/><polygon fill="#5A544E" points="1470.3054,527.3887,1474.3054,537.3887,1478.3054,527.3887,1474.3054,531.3887" style="stroke:#5A544E;stroke-width:1;stroke-linejoin:miter;stroke-miterlimit:10;"/><line style="stroke:#5A544E;stroke-width:1;" x1="1785.8408" x2="1785.8408" y1="372.457" y2="407.457"/><polygon fill="#5A544E" points="1781.8408,397.457,1785.8408,407.457,1789.8408,397.457,1785.8408,401.457" style="stroke:#5A544E;stroke-width:1;stroke-linejoin:miter;stroke-miterlimit:10;"/><line style="stroke:#5A544E;stroke-width:1;" x1="140.1555" x2="140.1555" y1="197.7949" y2="202.7949"/><line style="stroke:#5A544E;stroke-width:1;" x1="140.1555" x2="632.4307" y1="202.7949" y2="202.7949"/><line style="stroke:#5A544E;stroke-width:1;" x1="632.4307" x2="632.4307" y1="202.7949" y2="217.7949"/><polygon fill="#5A544E" points="628.4307,207.7949,632.4307,217.7949,636.4307,207.7949,632.4307,211.7949" style="stroke:#5A544E;stroke-width:1;stroke-linejoin:miter;stroke-miterlimit:10;"/><line style="stroke:#5A544E;stroke-width:1;" x1="993.4949" x2="981.4949" y1="434.7676" y2="434.7676"/><line style="stroke:#5A544E;stroke-width:1;" x1="981.4949" x2="981.4949" y1="434.7676" y2="452.7676"/><line style="stroke:#5A544E;stroke-width:1;" x1="981.4949" x2="1474.3054" y1="452.7676" y2="452.7676"/><line style="stroke:#5A544E;stroke-width:1;" x1="1474.3054" x2="1474.3054" y1="452.7676" y2="466.7676"/><polygon fill="#5A544E" points="1470.3054,456.7676,1474.3054,466.7676,1478.3054,456.7676,1474.3054,460.7676" style="stroke:#5A544E;stroke-width:1;stroke-linejoin:miter;stroke-miterlimit:10;"/><line style="stroke:#5A544E;stroke-width:1;" x1="1044.4153" x2="1629.8938" y1="434.7676" y2="434.7676"/><line style="stroke:#5A544E;stroke-width:1;" x1="1629.8938" x2="1629.8938" y1="434.7676" y2="466.7676"/><polygon fill="#5A544E" points="1625.8938,456.7676,1629.8938,466.7676,1633.8938,456.7676,1629.8938,460.7676" style="stroke:#5A544E;stroke-width:1;stroke-linejoin:miter;stroke-miterlimit:10;"/><line style="stroke:#5A544E;stroke-width:1;" x1="596.6968" x2="584.6968" y1="305.1465" y2="305.1465"/><line style="stroke:#5A544E;stroke-width:1;" x1="584.6968" x2="584.6968" y1="305.1465" y2="323.1465"/><line style="stroke:#5A544E;stroke-width:1;" x1="584.6968" x2="1018.9551" y1="323.1465" y2="323.1465"/><line style="stroke:#5A544E;stroke-width:1;" x1="1018.9551" x2="1018.9551" y1="323.1465" y2="337.1465"/><polygon fill="#5A544E" points="1014.9551,327.1465,1018.9551,337.1465,1022.9551,327.1465,1018.9551,331.1465" style="stroke:#5A544E;stroke-width:1;stroke-linejoin:miter;stroke-miterlimit:10;"/><line style="stroke:#5A544E;stroke-width:1;" x1="668.1646" x2="1785.8408" y1="305.1465" y2="305.1465"/><line style="stroke:#5A544E;stroke-width:1;" x1="1785.8408" x2="1785.8408" y1="305.1465" y2="337.1465"/><polygon fill="#5A544E" points="1781.8408,327.1465,1785.8408,337.1465,1789.8408,327.1465,1785.8408,331.1465" style="stroke:#5A544E;stroke-width:1;stroke-linejoin:miter;stroke-miterlimit:10;"/><text fill="#25211D" font-family="'Source Sans 3'" font-size="13" lengthAdjust="spacing" textLength="43.2339" x="231.9224" y="28.8105">AGENT</text><text fill="#25211D" font-family="'Source Sans 3'" font-size="13" lengthAdjust="spacing" textLength="48.3311" x="669.0035" y="28.8105">HUMAN</text><text fill="#25211D" font-family="'Source Sans 3'" font-size="13" lengthAdjust="spacing" textLength="57.4653" x="1119.2986" y="28.8105">PARTNER</text><text fill="#25211D" font-family="'Source Sans 3'" font-size="13" lengthAdjust="spacing" textLength="48.5659" x="1604.9695" y="28.8105">SYSTEM</text><?plantuml-src ZLLDRnen4BtlhnYbXn8aHFX8H4YKYWGQUe3IG0vLcuEnPrcBnKQs0T5IgQV-WAg_CB-aOoyKI43g7X1hUsRUU_Cy-nRQR8uA5jgCurGlwj2odANCIQsW0BtsfqkOQYkTd2COj5EjB4QH7KirPOPDOCZuU6JqJ8axdMe3R-9XN8jBEoUQ6BDPwjvhvRfiWd3IrpF34VfCMQYS73xPbzyGIfN3c-jAvVDogTJSEM8J9lH2gX74B2MOsvq0a6kZq41j5pxzEXd8Vey0Re-GeHrj19hrAeyvusLQtG5ppiwhLLolPUYhcpUtJ166EXNHZztQZ9EgqYsFb0xFqTBPwY2HVApGMYZjmrbh0z2KRAALU9s-5bUHxnpOhNBMh9JBpHTeZT6B0FKGu-CgbFPKa8wbakzdLjhX4Gr4V86LbneCQxMBi-4Hljl2PxxAgd7VwWvMaNNKwAYUpm-C78tGvFFHOM-3G8VSeRY2w-irW9kRA62aqCHHZI-3s-OJk8HY4kegp5awGuW9XzF43omvpOkmO8udQEl0KwaaNQj2Yan4g4JW77ayJUJIaly8K1_dQBmVcBNKqWagbu5WOYXghq3SDtfFO3SnJfArXruxPYHQc58LVnCwr3Sq-d_GhDgFdKPtvL4rd4EIB5oC4ND8w8h5ktKS-3WIR2vnKInc48ER3kkqLuvkedU186w4civiSDwXOf18qcqBICQGitAaKBmx9RbfJEKC2dZ--GSiJP92GeFagrfYIeDhkohOyfGIhtgDXq6tzR2Y_yIepPGew3Wc9kHWPf1iJAQIYZdgs_Eltt3RxePnG3CYSC8OBmKZJW1xh8XNezz_xFG67pvsdtR3O6gqqrod6rRXz17T0RP40JnLSly_dZuhlGTWR2QaEmsvLltF_K6himelX_laTuh5Xe-X7f4J1Pc4fIWshGfFe0LWdPvw93Gj8UVa1FNCXPgu_GeOBCJK5v4XgFk1JpxVPtCLzkZgC9vap6GSPLa5wMXysugqxuCmT6TBf9vXpQrtIKoNdFg40LoMwYy0?></g></svg>