<svg width="349" height="64" viewBox="0 0 349 64" fill="none" xmlns="http://www.w3.org/2000/svg">
<path d="M78.2838 52.8087C74.9103 52.8087 72.0225 52.1407 69.6205 50.8048C67.2185 49.4554 65.3765 47.5797 64.0946 45.1777C62.8126 42.7622 62.1716 39.9621 62.1716 36.7775C62.1716 33.5928 62.8126 30.7995 64.0946 28.3975C65.3765 25.982 67.2185 24.1063 69.6205 22.7704C72.0225 21.4209 74.9103 20.7462 78.2838 20.7462C81.3336 20.7462 83.9717 21.2995 86.1983 22.406C88.4383 23.4991 90.1723 25.0509 91.4003 27.0616C92.6283 29.0587 93.249 31.4067 93.2625 34.1056L82.8989 34.1056C82.7505 32.4728 82.2782 31.2313 81.482 30.3812C80.6993 29.5175 79.6873 29.0857 78.4458 29.0857C77.4742 29.0857 76.624 29.3691 75.8954 29.9358C75.1667 30.4891 74.5999 31.3325 74.1951 32.466C73.7902 33.5861 73.5878 34.9962 73.5878 36.6965C73.5878 38.3968 73.7902 39.8137 74.1951 40.9472C74.5999 42.0672 75.1667 42.9106 75.8953 43.4774C76.624 44.0307 77.4742 44.3073 78.4458 44.3073C79.2689 44.3073 79.9976 44.1184 80.6319 43.7405C81.2661 43.3492 81.7789 42.7824 82.1702 42.0403C82.575 41.2846 82.8179 40.367 82.8989 39.2874L93.2625 39.2874C93.2221 42.0268 92.5946 44.4153 91.3801 46.4529C90.1656 48.477 88.4451 50.0424 86.2185 51.1489C84.0054 52.2555 81.3605 52.8087 78.2838 52.8087Z" fill="#0D322D" style="fill:#0D322D;fill:color(display-p3 0.0510 0.1961 0.1765);fill-opacity:1;"/>
<path d="M102.94 50.906C105.342 52.1745 108.202 52.8087 111.522 52.8087C114.396 52.8087 116.906 52.3769 119.052 51.5133C121.211 50.6361 122.945 49.4082 124.254 47.8293C125.563 46.237 126.393 44.3613 126.743 42.2022L116.542 42.2022C116.326 42.7824 115.989 43.2817 115.53 43.7001C115.071 44.1049 114.518 44.4153 113.87 44.6312C113.236 44.8471 112.534 44.955 111.765 44.955C110.658 44.955 109.714 44.7324 108.931 44.2871C108.148 43.8417 107.548 43.2278 107.13 42.4451C106.711 41.6624 106.502 40.7718 106.502 39.7732L106.502 39.2874L126.744 39.2874L126.744 36.6965C126.744 34.227 126.379 32.0072 125.65 30.0371C124.922 28.0669 123.883 26.3936 122.533 25.0172C121.184 23.6273 119.558 22.568 117.655 21.8393C115.752 21.1106 113.627 20.7462 111.279 20.7462C108.067 20.7462 105.281 21.4142 102.919 22.7501C100.558 24.0861 98.7293 25.955 97.4338 28.357C96.1384 30.759 95.4907 33.5658 95.4907 36.7775C95.4907 40.1241 96.1316 42.9983 97.4136 45.4003C98.7091 47.7888 100.551 49.6241 102.94 50.906ZM106.502 33.134C106.529 32.2299 106.765 31.4405 107.21 30.7657C107.669 30.091 108.277 29.5648 109.032 29.1869C109.788 28.7956 110.618 28.5999 111.522 28.5999C112.453 28.5999 113.283 28.7956 114.012 29.1869C114.754 29.5648 115.341 30.0978 115.773 30.786C116.218 31.4607 116.447 32.2434 116.461 33.134L106.502 33.134Z" fill="#0D322D" style="fill:#0D322D;fill:color(display-p3 0.0510 0.1961 0.1765);fill-opacity:1;"/>
<path d="M141.09 34.8344L141.09 52.323L129.917 52.323L129.917 21.2321L140.524 21.2321L140.524 27.1426L140.847 27.1426C141.522 25.1724 142.71 23.6273 144.41 22.5073C146.124 21.3873 148.121 20.8273 150.401 20.8273C152.601 20.8273 154.51 21.3333 156.13 22.3454C157.763 23.344 159.024 24.7204 159.915 26.4746C160.819 28.2289 161.264 30.2328 161.251 32.4864L161.251 52.323L150.078 52.323L150.078 34.8344C150.091 33.296 149.7 32.0883 148.904 31.2111C148.121 30.334 147.028 29.8955 145.624 29.8955C144.707 29.8955 143.904 30.0979 143.216 30.5027C142.541 30.894 142.021 31.4608 141.657 32.203C141.293 32.9317 141.104 33.8088 141.09 34.8344Z" fill="#0D322D" style="fill:#0D322D;fill:color(display-p3 0.0510 0.1961 0.1765);fill-opacity:1;"/>
<path d="M173.504 52.8088C171.52 52.8088 169.766 52.4849 168.241 51.8372C166.73 51.176 165.542 50.1774 164.679 48.8415C163.815 47.5055 163.383 45.8053 163.383 43.7406C163.383 42.0403 163.673 40.5897 164.254 39.3887C164.834 38.1742 165.643 37.1824 166.682 36.4132C167.722 35.644 168.929 35.057 170.306 34.6522C171.696 34.2474 173.193 33.9842 174.799 33.8628C176.54 33.7278 177.937 33.5659 178.989 33.377C180.055 33.1746 180.825 32.8979 181.297 32.5471C181.769 32.1827 182.005 31.7037 182.005 31.1099L182.005 31.029C182.005 30.2193 181.695 29.5986 181.074 29.1668C180.453 28.7349 179.657 28.519 178.686 28.519C177.62 28.519 176.749 28.7552 176.075 29.2275C175.413 29.6863 175.015 30.3947 174.88 31.3528L164.598 31.3528C164.733 29.4636 165.333 27.7229 166.399 26.1305C167.479 24.5247 169.051 23.2428 171.115 22.2847C173.18 21.3131 175.757 20.8273 178.848 20.8273C181.074 20.8273 183.071 21.0904 184.839 21.6167C186.607 22.1295 188.111 22.8514 189.353 23.7825C190.594 24.7001 191.539 25.7797 192.187 27.0212C192.848 28.2491 193.179 29.5851 193.179 31.029L193.179 52.323L182.734 52.323L182.734 47.9509L182.491 47.9509C181.87 49.1114 181.115 50.0492 180.224 50.7644C179.347 51.4796 178.342 51.9991 177.208 52.323C176.088 52.6469 174.853 52.8088 173.504 52.8088ZM177.147 45.7648C177.997 45.7648 178.794 45.5893 179.536 45.2385C180.292 44.8876 180.905 44.3816 181.378 43.7204C181.85 43.0592 182.086 42.2563 182.086 41.3116L182.086 38.7207C181.789 38.8422 181.472 38.9569 181.135 39.0648C180.811 39.1728 180.46 39.274 180.082 39.3685C179.718 39.4629 179.327 39.5506 178.908 39.6316C178.504 39.7126 178.078 39.7868 177.633 39.8543C176.769 39.9892 176.061 40.2119 175.508 40.5222C174.968 40.8191 174.563 41.1902 174.293 41.6355C174.037 42.0673 173.909 42.5531 173.909 43.0929C173.909 43.9565 174.212 44.6178 174.82 45.0766C175.427 45.5354 176.203 45.7648 177.147 45.7648Z" fill="#0D322D" style="fill:#0D322D;fill:color(display-p3 0.0510 0.1961 0.1765);fill-opacity:1;"/>
<path d="M205.644 33.6196L205.644 52.3227L200.867 52.3227L200.867 10.8682L205.644 10.8682L205.644 26.0898L206.049 26.0898C206.777 24.4839 207.87 23.2087 209.328 22.2641C210.799 21.306 212.755 20.827 215.198 20.827C217.317 20.827 219.172 21.252 220.764 22.1022C222.357 22.9388 223.591 24.2275 224.469 25.9683C225.359 27.6956 225.804 29.8952 225.804 32.567L225.804 52.3227L221.027 52.3227L221.027 32.8909C221.027 30.4214 220.386 28.512 219.105 27.1626C217.836 25.7996 216.075 25.1182 213.821 25.1182C212.256 25.1182 210.853 25.4488 209.611 26.11C208.383 26.7712 207.412 27.7361 206.696 29.0045C205.995 30.273 205.644 31.8113 205.644 33.6196Z" fill="#3A8478" style="fill:#3A8478;fill:color(display-p3 0.2275 0.5176 0.4706);fill-opacity:1;"/>
<path d="M234.669 50.8251C236.842 52.1475 239.426 52.8088 242.422 52.8088C244.527 52.8088 246.423 52.4849 248.11 51.8372C249.796 51.1759 251.213 50.2583 252.36 49.0843C253.507 47.8968 254.324 46.5204 254.81 44.9551L250.194 43.6596C249.79 44.7392 249.216 45.6433 248.474 46.372C247.732 47.0872 246.848 47.6269 245.822 47.9913C244.81 48.3421 243.677 48.5176 242.422 48.5176C240.492 48.5176 238.799 48.0992 237.341 47.2626C235.884 46.4124 234.743 45.1777 233.92 43.5584C233.186 42.0779 232.785 40.3034 232.716 38.2349L255.295 38.2349L255.295 36.2107C255.295 33.3095 254.911 30.867 254.142 28.8833C253.372 26.8997 252.34 25.3073 251.045 24.1063C249.749 22.8918 248.312 22.0147 246.733 21.4749C245.154 20.9352 243.555 20.6653 241.936 20.6653C239.129 20.6653 236.673 21.3535 234.568 22.7299C232.476 24.0928 230.844 25.9955 229.67 28.438C228.509 30.867 227.929 33.6738 227.929 36.8585C227.929 40.0431 228.509 42.8364 229.67 45.2384C230.844 47.6269 232.51 49.4891 234.669 50.8251ZM232.729 34.1056C232.82 32.6634 233.183 31.3005 233.819 30.0168C234.561 28.519 235.621 27.3045 236.997 26.3734C238.387 25.4288 240.033 24.9565 241.936 24.9565C243.663 24.9565 245.161 25.3546 246.43 26.1507C247.712 26.9469 248.697 28.0332 249.385 29.4096C250.087 30.786 250.437 32.3514 250.437 34.1056L232.729 34.1056Z" fill="#3A8478" style="fill:#3A8478;fill:color(display-p3 0.2275 0.5176 0.4706);fill-opacity:1;"/>
<path d="M267.921 52.8088C265.95 52.8088 264.162 52.4377 262.557 51.6955C260.951 50.9398 259.676 49.8535 258.731 48.4366C257.786 47.0062 257.314 45.279 257.314 43.2548C257.314 41.4736 257.665 40.0297 258.367 38.9231C259.068 37.8031 260.006 36.926 261.18 36.2917C262.354 35.6575 263.65 35.1852 265.067 34.8748C266.497 34.551 267.934 34.2946 269.378 34.1057C271.267 33.8628 272.799 33.6806 273.973 33.5591C275.16 33.4242 276.024 33.2015 276.564 32.8912C277.117 32.5808 277.394 32.041 277.394 31.2719L277.394 31.1099C277.394 29.1128 276.847 27.5609 275.754 26.4544C274.674 25.3478 273.035 24.7946 270.835 24.7946C268.555 24.7946 266.767 25.2939 265.471 26.2924C264.176 27.291 263.265 28.3571 262.739 29.4906L258.205 27.8713C259.014 25.9821 260.094 24.5112 261.443 23.4586C262.806 22.3926 264.291 21.6504 265.896 21.2321C267.516 20.8003 269.108 20.5844 270.673 20.5844C271.672 20.5844 272.819 20.7058 274.114 20.9487C275.423 21.1781 276.685 21.6571 277.9 22.3858C279.128 23.1145 280.146 24.2143 280.956 25.6852C281.766 27.1561 282.171 29.1263 282.171 31.5957L282.171 52.0801L277.394 52.0801L277.394 47.8699L277.151 47.8699C276.827 48.5446 276.287 49.2665 275.531 50.0357C274.776 50.8049 273.77 51.4594 272.515 51.9991C271.26 52.5389 269.729 52.8088 267.921 52.8088ZM268.649 48.5176C270.538 48.5176 272.131 48.1465 273.426 47.4043C274.735 46.6621 275.72 45.704 276.381 44.53C277.056 43.356 277.394 42.1213 277.394 40.8258L277.394 36.4537C277.191 36.6966 276.746 36.9192 276.058 37.1216C275.383 37.3106 274.6 37.4792 273.71 37.6277C272.832 37.7626 271.976 37.8841 271.139 37.992C270.316 38.0865 269.648 38.1674 269.135 38.2349C267.894 38.3969 266.733 38.66 265.654 39.0243C264.587 39.3752 263.724 39.9082 263.063 40.6234C262.415 41.3251 262.091 42.2832 262.091 43.4977C262.091 45.1575 262.705 46.4125 263.933 47.2626C265.174 48.0993 266.747 48.5176 268.649 48.5176Z" fill="#3A8478" style="fill:#3A8478;fill:color(display-p3 0.2275 0.5176 0.4706);fill-opacity:1;"/>
<path d="M290.704 10.8682L290.704 52.3227L285.927 52.3227L285.927 10.8682L290.704 10.8682Z" fill="#3A8478" style="fill:#3A8478;fill:color(display-p3 0.2275 0.5176 0.4706);fill-opacity:1;"/>
<path fill-rule="evenodd" clip-rule="evenodd" d="M298.297 13.7832L303.074 13.7832L303.074 21.2321L309.713 21.2321L309.713 25.2804L303.074 25.2804L303.074 43.4167C303.074 44.7662 303.27 45.7782 303.661 46.4529C304.066 47.1142 304.579 47.5595 305.199 47.7889C305.834 48.0048 306.502 48.1127 307.203 48.1127C307.73 48.1127 308.161 48.0858 308.499 48.0318L309.308 47.8699L310.28 52.161C309.956 52.2825 309.504 52.4039 308.924 52.5254C308.344 52.6603 307.608 52.7278 306.718 52.7278C305.368 52.7278 304.046 52.4377 302.75 51.8574C301.468 51.2772 300.402 50.3933 299.552 49.2058C298.715 48.0183 298.297 46.5204 298.297 44.7122L298.297 25.2804L293.601 25.2804L293.601 21.2321L298.297 21.2321L298.297 13.7832Z" fill="#3A8478" style="fill:#3A8478;fill:color(display-p3 0.2275 0.5176 0.4706);fill-opacity:1;"/>
<path d="M317.741 33.6196L317.741 52.3227L312.964 52.3227L312.964 10.8682L317.741 10.8682L317.741 26.0898L318.146 26.0898C318.875 24.4839 319.968 23.2087 321.425 22.2641C322.896 21.306 324.853 20.827 327.295 20.827C329.414 20.827 331.269 21.252 332.861 22.1022C334.454 22.9388 335.688 24.2275 336.566 25.9683C337.456 27.6956 337.902 29.8952 337.902 32.567L337.902 52.3227L333.125 52.3227L333.125 32.8909C333.125 30.4214 332.484 28.512 331.202 27.1626C329.933 25.7996 328.172 25.1182 325.919 25.1182C324.353 25.1182 322.95 25.4488 321.708 26.11C320.48 26.7712 319.509 27.7361 318.794 29.0045C318.092 30.273 317.741 31.8113 317.741 33.6196Z" fill="#3A8478" style="fill:#3A8478;fill:color(display-p3 0.2275 0.5176 0.4706);fill-opacity:1;"/>
<path fill-rule="evenodd" clip-rule="evenodd" d="M31.9822 10.7301C34 10.7301 35.7736 11.1365 37.3041 11.9492C38.826 12.7619 40.0144 13.9295 40.8695 15.4523C41.4398 16.4783 41.8178 17.6443 42.0038 18.9498C43.272 18.7396 44.4704 18.7459 45.5989 18.9721C47.3079 19.3071 48.7852 20.0775 50.0306 21.2827C51.2734 22.4799 52.2064 24.0389 52.83 25.959C53.4535 27.8792 53.6158 29.693 53.3162 31.4006C53.014 33.1 52.2713 34.5921 51.0881 35.8763C50.2849 36.7406 49.2867 37.4626 48.095 38.0447C48.6892 39.1891 49.0538 40.3344 49.1879 41.4809C49.3976 43.2107 49.1218 44.8546 48.3611 46.4122C47.6073 47.9648 46.4145 49.3347 44.782 50.5215C43.1495 51.7082 41.4751 52.4229 39.7595 52.6655C38.0508 52.903 36.4029 52.6573 34.8166 51.9282C34.617 51.8354 34.4201 51.7347 34.2258 51.626C33.4351 51.1836 32.6878 50.6091 31.9822 49.9037C31.1031 50.7826 30.1585 51.458 29.1469 51.9282C27.5605 52.6573 25.9128 52.903 24.2041 52.6655C22.4885 52.4228 20.8144 51.7082 19.182 50.5215C17.5495 49.3347 16.3562 47.9648 15.6023 46.4122C14.8416 44.8546 14.566 43.2106 14.7757 41.4809C14.9098 40.3345 15.2751 39.1896 15.8692 38.0452C14.6773 37.4631 13.6794 36.7406 12.8761 35.8763C11.6929 34.5921 10.95 33.1 10.6478 31.4006C10.3482 29.6931 10.5102 27.8791 11.1336 25.959C11.7572 24.0388 12.6907 22.4799 13.9335 21.2827C15.179 20.0775 16.6562 19.3071 18.3653 18.9721C19.4937 18.746 20.6917 18.7397 21.9598 18.9498C22.1458 17.6443 22.5236 16.4783 23.0939 15.4523C23.9489 13.9296 25.1375 12.762 26.6593 11.9492C28.1898 11.1365 29.9643 10.7301 31.9822 10.7301ZM31.9824 14.9331C30.3681 14.9331 28.9485 15.2581 27.7241 15.9082C26.5067 16.5584 25.556 17.4925 24.8721 18.7106C24.4158 19.5314 24.1136 20.4642 23.9647 21.5086C22.9503 21.3405 21.9919 21.3456 21.0892 21.5265C19.722 21.7945 18.5402 22.4107 17.5438 23.3749C16.5496 24.3326 15.8027 25.5797 15.3039 27.1159C14.8051 28.6519 14.6757 30.103 14.9153 31.469C15.1571 32.8285 15.7513 34.0222 16.6978 35.0495C17.3404 35.7409 18.1388 36.3188 19.0923 36.7844C18.617 37.6999 18.3249 38.6158 18.2177 39.5329C18.0499 40.9167 18.2704 42.2318 18.8789 43.4778C19.482 44.7199 20.4365 45.8157 21.7425 46.7651C23.0484 47.7144 24.3876 48.2863 25.76 48.4804C27.1269 48.6704 28.4452 48.4738 29.7142 47.8905C30.5235 47.5143 31.2791 46.974 31.9824 46.2709C32.5469 46.8353 33.1448 47.2947 33.7772 47.6486C33.9327 47.7356 34.0901 47.8163 34.2498 47.8905C35.5188 48.4738 36.8371 48.6704 38.204 48.4804C39.5765 48.2863 40.916 47.7145 42.2219 46.7651C43.5278 45.8158 44.482 44.7199 45.085 43.4778C45.6936 42.2317 45.9143 40.9167 45.7465 39.5329C45.6392 38.6158 45.3476 37.6996 44.8723 36.784C45.8256 36.3184 46.624 35.7409 47.2665 35.0495C48.2131 34.0222 48.8073 32.8285 49.049 31.469C49.2887 30.103 49.1589 28.6519 48.6601 27.1159C48.1613 25.5798 47.4147 24.3326 46.4205 23.3749C45.4242 22.4108 44.2425 21.7945 42.8754 21.5265C41.9726 21.3456 41.0138 21.3404 39.9993 21.5086C39.8504 20.4642 39.5482 19.5314 39.0919 18.7106C38.4079 17.4925 37.4573 16.5584 36.2398 15.9082C35.0155 15.2581 33.5966 14.9331 31.9824 14.9331Z" fill="#3A8478" style="fill:#3A8478;fill:color(display-p3 0.2275 0.5176 0.4706);fill-opacity:1;"/>
<path fill-rule="evenodd" clip-rule="evenodd" d="M31.9811 14.932C33.5953 14.932 35.0142 15.2572 36.2385 15.9073C37.456 16.5575 38.4068 17.4915 39.0908 18.7097C39.547 19.5305 39.8493 20.4631 39.9981 21.5075C41.0127 21.3393 41.9714 21.3445 42.8742 21.5254C44.2413 21.7934 45.4231 22.4097 46.4194 23.3738C47.4136 24.3315 48.16 25.5787 48.6588 27.1148C49.1576 28.6509 49.2875 30.102 49.0479 31.468C48.8061 32.8275 48.2119 34.0211 47.2654 35.0484C46.6229 35.7398 45.8243 36.3173 44.871 36.7829C45.3463 37.6985 45.6379 38.6147 45.7452 39.5318C45.913 40.9156 45.6925 42.2308 45.0839 43.4769C44.4809 44.7189 43.5267 45.8148 42.2208 46.7642C40.9148 47.7136 39.5752 48.2852 38.2027 48.4793C36.8358 48.6693 35.5176 48.4727 34.2486 47.8894C34.089 47.8152 33.9314 47.7347 33.7759 47.6477C33.1434 47.2938 32.5456 46.8342 31.9811 46.2698C31.2778 46.9729 30.5222 47.5132 29.7129 47.8894C28.4439 48.4727 27.1258 48.6693 25.7588 48.4793C24.3864 48.2852 23.0472 47.7135 21.7413 46.7642C20.4354 45.8148 19.4809 44.719 18.8778 43.4769C18.2693 42.2308 18.0485 40.9156 18.2164 39.5318C18.3236 38.6148 18.6159 37.699 19.0911 36.7835C18.1377 36.3178 17.3393 35.7399 16.6967 35.0484C15.7502 34.0211 15.156 32.8275 14.9142 31.468C14.6746 30.1021 14.804 28.6508 15.3027 27.1148C15.8016 25.5786 16.5485 24.3315 17.5427 23.3738C18.539 22.4097 19.7207 21.7934 21.0879 21.5254C21.9906 21.3445 22.949 21.3394 23.9634 21.5075C24.1122 20.4631 24.4145 19.5305 24.8707 18.7097C25.5547 17.4916 26.5056 16.5575 27.723 15.9073C28.9474 15.2572 30.3668 14.932 31.9811 14.932ZM31.9807 18.2928C30.6892 18.2928 29.5535 18.5529 28.574 19.0731C27.6 19.5933 26.8393 20.3404 26.2921 21.315C25.9271 21.9716 25.6852 22.718 25.5661 23.5536C24.7545 23.4191 23.9878 23.423 23.2656 23.5677C22.1718 23.7821 21.2264 24.2752 20.4293 25.0466C19.6338 25.8128 19.0364 26.8106 18.6373 28.0396C18.2382 29.2685 18.1345 30.4295 18.3262 31.5223C18.5197 32.61 18.9951 33.5649 19.7524 34.3868C20.2665 34.94 20.9052 35.4023 21.668 35.7748C21.2878 36.5073 21.0541 37.2402 20.9683 37.9739C20.834 39.0809 21.0105 40.133 21.4974 41.1299C21.9798 42.1236 22.7435 43.0004 23.7884 43.7599C24.8331 44.5195 25.9045 44.9769 27.0025 45.1322C28.0961 45.2842 29.1507 45.1269 30.166 44.6602C30.8135 44.3593 31.418 43.9271 31.9807 43.3645C32.4323 43.8161 32.9107 44.1836 33.4167 44.4667C33.5411 44.5363 33.6671 44.6009 33.7948 44.6602C34.81 45.1269 35.8647 45.2842 36.9583 45.1322C38.0563 44.9769 39.128 44.5195 40.1728 43.7599C41.2176 43.0004 41.981 42.1236 42.4634 41.1299C42.9503 40.133 43.1267 39.081 42.9925 37.9739C42.9067 37.2401 42.6734 36.507 42.2931 35.7745C43.0558 35.4019 43.6947 34.9399 44.2088 34.3868C44.966 33.5649 45.4415 32.61 45.6349 31.5223C45.8266 30.4295 45.7226 29.2686 45.3235 28.0396C44.9244 26.8107 44.3273 25.8128 43.5319 25.0466C42.7348 24.2752 41.7894 23.7821 40.6956 23.5677C39.9733 23.4229 39.2063 23.4191 38.3947 23.5536C38.2756 22.718 38.0337 21.9716 37.6687 21.315C37.1214 20.3404 36.3608 19.5933 35.3868 19.0731C34.4073 18.5529 33.2721 18.2928 31.9807 18.2928Z" fill="#52A395" style="fill:#52A395;fill:color(display-p3 0.3216 0.6392 0.5843);fill-opacity:1;"/>
<path fill-rule="evenodd" clip-rule="evenodd" d="M31.9819 18.2938C33.2733 18.2938 34.4084 18.554 35.388 19.0741C36.362 19.5943 37.1226 20.3416 37.6699 21.3162C38.0349 21.9728 38.2768 22.719 38.3959 23.5546C39.2076 23.4201 39.9745 23.4241 40.6968 23.5689C41.7905 23.7833 42.736 24.2763 43.5331 25.0476C44.3285 25.8138 44.9258 26.8117 45.3249 28.0406C45.7239 29.2696 45.8278 30.4305 45.6361 31.5233C45.4427 32.611 44.9672 33.5659 44.21 34.3878C43.6959 34.9409 43.0571 35.4031 42.2943 35.7757C42.6746 36.5081 42.9079 37.2411 42.9937 37.9749C43.128 39.082 42.9515 40.134 42.4646 41.1309C41.9822 42.1246 41.2188 43.0014 40.174 43.761C39.1292 44.5205 38.0575 44.9779 36.9595 45.1332C35.8659 45.2852 34.8112 45.1279 33.796 44.6612C33.6683 44.6019 33.5422 44.5375 33.4179 44.4679C32.9119 44.1848 32.4335 43.8171 31.9819 43.3656C31.4192 43.9281 30.8147 44.3603 30.1672 44.6612C29.1519 45.1279 28.0973 45.2852 27.0037 45.1332C25.9057 44.9779 24.8343 44.5205 23.7896 43.761C22.7447 43.0014 21.981 42.1246 21.4986 41.1309C21.0117 40.1341 20.8352 39.0819 20.9695 37.9749C21.0553 37.2412 21.289 36.5084 21.6692 35.776C20.9064 35.4035 20.2677 34.941 19.7536 34.3878C18.9963 33.5659 18.5209 32.611 18.3275 31.5233C18.1357 30.4305 18.2394 29.2696 18.6385 28.0406C19.0376 26.8117 19.635 25.8138 20.4305 25.0476C21.2276 24.2763 22.173 23.7833 23.2668 23.5689C23.989 23.4242 24.7557 23.4201 25.5673 23.5546C25.6864 22.719 25.9283 21.9728 26.2933 21.3162C26.8405 20.3416 27.6012 19.5943 28.5752 19.0741C29.5547 18.554 30.6904 18.2938 31.9819 18.2938ZM31.9819 20.9817C30.9486 20.9817 30.04 21.1899 29.2562 21.6061C28.4769 22.0223 27.8682 22.6202 27.4303 23.4C27.1383 23.9254 26.9447 24.5224 26.8494 25.191C26.2001 25.0834 25.5867 25.0867 25.0089 25.2025C24.1337 25.374 23.3772 25.7686 22.7394 26.3858C22.103 26.9988 21.6249 27.7971 21.3056 28.7804C20.9863 29.7637 20.9035 30.6926 21.0569 31.567C21.2117 32.4372 21.592 33.2013 22.1979 33.8589C22.6092 34.3015 23.1202 34.6716 23.7305 34.9697C23.4263 35.5556 23.2392 36.1419 23.1706 36.7289C23.0632 37.6147 23.2044 38.4565 23.594 39.2542C23.98 40.0493 24.5911 40.7508 25.4271 41.3585C26.2631 41.9662 27.1203 42.3323 27.9988 42.4565C28.8739 42.5782 29.7177 42.4522 30.53 42.0788C31.048 41.838 31.5317 41.4922 31.9819 41.0422C32.3432 41.4035 32.726 41.6975 33.1309 41.924C33.2304 41.9797 33.3312 42.0313 33.4333 42.0788C34.2457 42.4522 35.0895 42.5781 35.9645 42.4565C36.8431 42.3323 37.7006 41.9663 38.5366 41.3585C39.3726 40.7508 39.9834 40.0492 40.3694 39.2542C40.759 38.4565 40.9002 37.6147 40.7928 36.7289C40.7241 36.1418 40.5373 35.5554 40.233 34.9693C40.8433 34.6712 41.3545 34.3015 41.7658 33.8589C42.3717 33.2013 42.7521 32.4372 42.9069 31.567C43.0603 30.6925 42.977 29.7637 42.6577 28.7804C42.3384 27.7971 41.8607 26.9988 41.2244 26.3858C40.5866 25.7686 39.83 25.374 38.9549 25.2025C38.377 25.0866 37.7633 25.0834 37.1139 25.191C37.0186 24.5225 36.8251 23.9254 36.533 23.4C36.0952 22.6202 35.4865 22.0222 34.7071 21.6061C33.9234 21.1899 33.0152 20.9817 31.9819 20.9817Z" fill="#81B983" style="fill:#81B983;fill:color(display-p3 0.5059 0.7255 0.5137);fill-opacity:1;"/>
</svg>
