<svg width="64" height="63" viewBox="0 0 64 63" fill="none" xmlns="http://www.w3.org/2000/svg">
<path fill-rule="evenodd" clip-rule="evenodd" d="M31.9822 10.73C34 10.73 35.7736 11.1364 37.3041 11.9491C38.826 12.7618 40.0144 13.9294 40.8695 15.4522C41.4398 16.4781 41.8178 17.6441 42.0038 18.9497C43.272 18.7395 44.4704 18.7458 45.5989 18.972C47.3079 19.307 48.7852 20.0774 50.0306 21.2826C51.2734 22.4798 52.2064 24.0387 52.83 25.9589C53.4535 27.8791 53.6158 29.6929 53.3162 31.4005C53.014 33.0999 52.2713 34.592 51.0881 35.8762C50.2849 36.7404 49.2867 37.4625 48.095 38.0445C48.6892 39.189 49.0538 40.3343 49.1879 41.4808C49.3976 43.2106 49.1218 44.8544 48.3611 46.4121C47.6073 47.9647 46.4145 49.3346 44.782 50.5214C43.1495 51.7081 41.4751 52.4227 39.7595 52.6653C38.0508 52.9029 36.4029 52.6572 34.8166 51.9281C34.617 51.8353 34.4201 51.7346 34.2258 51.6258C33.4351 51.1834 32.6878 50.609 31.9822 49.9035C31.1031 50.7824 30.1585 51.4578 29.1469 51.9281C27.5605 52.6572 25.9128 52.9029 24.2041 52.6653C22.4885 52.4227 20.8144 51.7081 19.182 50.5214C17.5495 49.3346 16.3562 47.9647 15.6023 46.4121C14.8416 44.8545 14.566 43.2105 14.7757 41.4808C14.9098 40.3344 15.2751 39.1895 15.8692 38.0451C14.6773 37.463 13.6794 36.7405 12.8761 35.8762C11.6929 34.592 10.95 33.0999 10.6478 31.4005C10.3482 29.6929 10.5102 27.879 11.1336 25.9589C11.7572 24.0387 12.6907 22.4798 13.9335 21.2826C15.179 20.0774 16.6562 19.3069 18.3653 18.972C19.4937 18.7459 20.6917 18.7395 21.9598 18.9497C22.1458 17.6441 22.5236 16.4782 23.0939 15.4522C23.9489 13.9294 25.1375 12.7618 26.6593 11.9491C28.1898 11.1363 29.9643 10.73 31.9822 10.73ZM31.9824 14.933C30.3681 14.933 28.9485 15.2579 27.7241 15.9081C26.5067 16.5583 25.556 17.4924 24.8721 18.7105C24.4158 19.5313 24.1136 20.4641 23.9647 21.5085C22.9503 21.3404 21.9919 21.3455 21.0892 21.5264C19.722 21.7943 18.5402 22.4106 17.5438 23.3748C16.5496 24.3325 15.8027 25.5796 15.3039 27.1157C14.8051 28.6518 14.6757 30.1029 14.9153 31.4688C15.1571 32.8283 15.7513 34.0221 16.6978 35.0494C17.3404 35.7408 18.1388 36.3186 19.0923 36.7843C18.617 37.6998 18.3249 38.6157 18.2177 39.5328C18.0499 40.9166 18.2704 42.2316 18.8789 43.4777C19.482 44.7198 20.4365 45.8156 21.7425 46.765C23.0484 47.7143 24.3876 48.2861 25.76 48.4802C27.1269 48.6703 28.4452 48.4737 29.7142 47.8904C30.5235 47.5142 31.2791 46.9739 31.9824 46.2708C32.5469 46.8351 33.1448 47.2946 33.7772 47.6485C33.9327 47.7355 34.0901 47.8162 34.2498 47.8904C35.5188 48.4737 36.8371 48.6703 38.204 48.4802C39.5765 48.2862 40.916 47.7144 42.2219 46.765C43.5278 45.8156 44.482 44.7197 45.085 43.4777C45.6936 42.2316 45.9143 40.9166 45.7465 39.5328C45.6392 38.6156 45.3476 37.6995 44.8723 36.7839C45.8256 36.3183 46.624 35.7408 47.2665 35.0494C48.2131 34.0221 48.8072 32.8283 49.049 31.4688C49.2887 30.1029 49.1589 28.6518 48.6601 27.1157C48.1613 25.5796 47.4147 24.3325 46.4205 23.3748C45.4242 22.4106 44.2425 21.7944 42.8754 21.5264C41.9726 21.3455 41.0138 21.3403 39.9993 21.5085C39.8504 20.4641 39.5482 19.5313 39.0919 18.7105C38.4079 17.4924 37.4573 16.5583 36.2398 15.9081C35.0155 15.258 33.5966 14.933 31.9824 14.933Z" fill="#F5EEE5" style="fill:#F5EEE5;fill:color(display-p3 0.9608 0.9333 0.8980);fill-opacity:1;"/>
<path fill-rule="evenodd" clip-rule="evenodd" d="M31.9809 14.9319C33.5952 14.9319 35.014 15.257 36.2384 15.9072C37.4559 16.5574 38.4066 17.4914 39.0907 18.7096C39.5469 19.5303 39.8491 20.463 39.998 21.5074C41.0125 21.3392 41.9713 21.3444 42.8741 21.5253C44.2412 21.7933 45.4229 22.4096 46.4192 23.3737C47.4135 24.3314 48.1598 25.5786 48.6586 27.1146C49.1574 28.6507 49.2874 30.1019 49.0477 31.4679C48.806 32.8274 48.2118 34.021 47.2653 35.0483C46.6227 35.7397 45.8242 36.3172 44.8708 36.7828C45.3462 37.6983 45.6378 38.6146 45.745 39.5317C45.9128 40.9155 45.6924 42.2307 45.0838 43.4768C44.4807 44.7188 43.5265 45.8147 42.2206 46.7641C40.9147 47.7135 39.575 48.2851 38.2026 48.4791C36.8356 48.6692 35.5175 48.4726 34.2485 47.8893C34.0888 47.8151 33.9312 47.7346 33.7758 47.6476C33.1433 47.2937 32.5454 46.8341 31.9809 46.2697C31.2776 46.9728 30.522 47.5131 29.7127 47.8893C28.4437 48.4726 27.1256 48.6692 25.7587 48.4791C24.3863 48.285 23.0471 47.7134 21.7412 46.7641C20.4352 45.8147 19.4807 44.7188 18.8777 43.4768C18.2691 42.2307 18.0484 40.9155 18.2162 39.5317C18.3235 38.6146 18.6157 37.6988 19.091 36.7834C18.1375 36.3177 17.3391 35.7397 16.6965 35.0483C15.75 34.021 15.1558 32.8274 14.9141 31.4679C14.6744 30.1019 14.8038 28.6507 15.3026 27.1146C15.8014 25.5785 16.5483 24.3314 17.5426 23.3737C18.5389 22.4096 19.7206 21.7933 21.0877 21.5253C21.9904 21.3444 22.9489 21.3393 23.9632 21.5074C24.1121 20.463 24.4144 19.5303 24.8706 18.7096C25.5545 17.4914 26.5054 16.5574 27.7229 15.9072C28.9472 15.257 30.3667 14.9319 31.9809 14.9319ZM31.9805 18.2927C30.689 18.2927 29.5534 18.5528 28.5738 19.073C27.5999 19.5931 26.8392 20.3403 26.292 21.3149C25.9269 21.9715 25.685 22.7179 25.5659 23.5535C24.7544 23.419 23.9876 23.4228 23.2654 23.5676C22.1716 23.7819 21.2262 24.2751 20.4291 25.0465C19.6337 25.8127 19.0362 26.8105 18.6371 28.0395C18.2381 29.2684 18.1344 30.4294 18.3261 31.5222C18.5195 32.6098 18.995 33.5648 19.7522 34.3867C20.2663 34.9398 20.9051 35.4022 21.6679 35.7747C21.2876 36.5071 21.0539 37.2401 20.9681 37.9737C20.8339 39.0808 21.0103 40.1329 21.4972 41.1298C21.9797 42.1235 22.7434 43.0003 23.7882 43.7598C24.833 44.5193 25.9044 44.9768 27.0024 45.1321C28.096 45.2841 29.1506 45.1268 30.1658 44.6601C30.8133 44.3591 31.4179 43.9269 31.9805 43.3644C32.4321 43.816 32.9106 44.1835 33.4166 44.4666C33.5409 44.5362 33.6669 44.6007 33.7946 44.6601C34.8099 45.1268 35.8645 45.2841 36.9581 45.1321C38.0562 44.9768 39.1278 44.5194 40.1726 43.7598C41.2174 43.0003 41.9808 42.1235 42.4633 41.1298C42.9501 40.1329 43.1266 39.0808 42.9924 37.9737C42.9065 37.24 42.6733 36.5068 42.293 35.7743C43.0557 35.4018 43.6946 34.9398 44.2086 34.3867C44.9659 33.5648 45.4413 32.6099 45.6348 31.5222C45.8265 30.4293 45.7224 29.2684 45.3234 28.0395C44.9243 26.8105 44.3272 25.8127 43.5317 25.0465C42.7346 24.2751 41.7892 23.782 40.6954 23.5676C39.9732 23.4228 39.2062 23.4189 38.3945 23.5535C38.2754 22.7179 38.0335 21.9715 37.6685 21.3149C37.1213 20.3403 36.3607 19.5931 35.3866 19.073C34.4071 18.5528 33.272 18.2927 31.9805 18.2927Z" fill="#D8CEC0" style="fill:#D8CEC0;fill:color(display-p3 0.8471 0.8078 0.7529);fill-opacity:1;"/>
<path fill-rule="evenodd" clip-rule="evenodd" d="M31.9816 18.2937C33.2731 18.2937 34.4082 18.5538 35.3878 19.074C36.3618 19.5942 37.1224 20.3415 37.6696 21.3161C38.0346 21.9727 38.2766 22.7189 38.3956 23.5545C39.2073 23.4199 39.9743 23.424 40.6966 23.5688C41.7903 23.7832 42.7357 24.2761 43.5328 25.0475C44.3283 25.8137 44.9256 26.8116 45.3247 28.0405C45.7237 29.2694 45.8276 30.4304 45.6359 31.5232C45.4424 32.6109 44.967 33.5658 44.2097 34.3877C43.6957 34.9408 43.0568 35.403 42.2941 35.7755C42.6744 36.508 42.9076 37.241 42.9935 37.9748C43.1277 39.0819 42.9513 40.1339 42.4644 41.1308C41.9819 42.1245 41.2185 43.0013 40.1738 43.7608C39.1289 44.5204 38.0573 44.9778 36.9592 45.1331C35.8656 45.2851 34.811 45.1278 33.7957 44.6611C33.668 44.6018 33.542 44.5374 33.4177 44.4678C32.9117 44.1847 32.4333 43.817 31.9816 43.3654C31.419 43.928 30.8144 44.3602 30.167 44.6611C29.1517 45.1278 28.0971 45.2851 27.0035 45.1331C25.9055 44.9778 24.8341 44.5203 23.7893 43.7608C22.7445 43.0013 21.9808 42.1245 21.4983 41.1308C21.0115 40.1339 20.835 39.0818 20.9692 37.9748C21.055 37.2411 21.2888 36.5083 21.669 35.7759C20.9062 35.4034 20.2674 34.9409 19.7533 34.3877C18.9961 33.5658 18.5206 32.6109 18.3272 31.5232C18.1355 30.4304 18.2392 29.2694 18.6382 28.0405C19.0373 26.8115 19.6348 25.8137 20.4302 25.0475C21.2273 24.2761 22.1728 23.7832 23.2665 23.5688C23.9887 23.424 24.7555 23.42 25.567 23.5545C25.6861 22.7189 25.9281 21.9727 26.2931 21.3161C26.8403 20.3415 27.6009 19.5942 28.5749 19.074C29.5545 18.5538 30.6902 18.2937 31.9816 18.2937ZM31.9816 20.9816C30.9483 20.9816 30.0397 21.1898 29.256 21.6059C28.4767 22.0221 27.8679 22.6201 27.4301 23.3998C27.138 23.9252 26.9445 24.5223 26.8492 25.1909C26.1999 25.0833 25.5864 25.0865 25.0086 25.2023C24.1334 25.3738 23.3769 25.7684 22.7391 26.3856C22.1027 26.9987 21.6247 27.797 21.3054 28.7803C20.9861 29.7635 20.9032 30.6924 21.0566 31.5668C21.2114 32.4371 21.5917 33.2012 22.1977 33.8588C22.609 34.3014 23.12 34.6715 23.7303 34.9695C23.4261 35.5555 23.239 36.1418 23.1703 36.7288C23.0629 37.6146 23.2042 38.4564 23.5937 39.2541C23.9798 40.0491 24.5909 40.7507 25.4269 41.3584C26.2628 41.9661 27.1201 42.3321 27.9986 42.4564C28.8736 42.578 29.7174 42.4521 30.5298 42.0787C31.0478 41.8379 31.5315 41.4921 31.9816 41.0421C32.343 41.4033 32.7258 41.6973 33.1307 41.9239C33.2301 41.9795 33.3309 42.0312 33.4331 42.0787C34.2454 42.4521 35.0893 42.578 35.9643 42.4564C36.8428 42.3322 37.7004 41.9661 38.5364 41.3584C39.3723 40.7507 39.9831 40.0491 40.3692 39.2541C40.7587 38.4564 40.9 37.6146 40.7925 36.7288C40.7239 36.1417 40.5371 35.5552 40.2328 34.9692C40.843 34.6711 41.3543 34.3014 41.7656 33.8588C42.3715 33.2012 42.7519 32.4371 42.9066 31.5668C43.06 30.6924 42.9768 29.7635 42.6575 28.7803C42.3382 27.797 41.8605 26.9987 41.2241 26.3856C40.5863 25.7684 39.8298 25.3739 38.9546 25.2023C38.3767 25.0865 37.7631 25.0833 37.1137 25.1909C37.0184 24.5223 36.8248 23.9252 36.5328 23.3998C36.0949 22.6201 35.4862 22.0221 34.7069 21.6059C33.9231 21.1898 33.0149 20.9816 31.9816 20.9816Z" fill="#BCB0A0" style="fill:#BCB0A0;fill:color(display-p3 0.7373 0.6902 0.6275);fill-opacity:1;"/>
</svg>
