<svg width="349" height="99" viewBox="0 0 349 99" fill="none" xmlns="http://www.w3.org/2000/svg">
<path d="M327.495 86.3472C328.356 86.8946 329.445 87.1682 330.762 87.1682C331.788 87.1682 332.72 87.0143 333.559 86.7064C334.402 86.3928 335.127 85.9538 335.731 85.3893C336.335 84.8192 336.794 84.1521 337.108 83.3881L334.277 83.0631C334.072 83.4337 333.815 83.7473 333.507 84.0039C333.205 84.2547 332.86 84.4429 332.472 84.5683C332.085 84.6938 331.663 84.7565 331.207 84.7565C330.511 84.7565 329.935 84.6339 329.479 84.3887C329.023 84.1436 328.704 83.7616 328.521 83.2427C328.339 82.7239 328.31 82.0539 328.436 81.2329L328.443 81.1902H337.604L337.749 80.2408C337.943 79.0891 337.952 78.0971 337.775 77.2646C337.598 76.4265 337.276 75.7366 336.808 75.195C336.341 74.6533 335.768 74.2542 335.089 73.9977C334.411 73.7354 333.667 73.6042 332.857 73.6042C331.609 73.6042 330.468 73.8922 329.436 74.468C328.41 75.0382 327.555 75.8364 326.871 76.8627C326.186 77.8833 325.733 79.0692 325.511 80.4204C325.283 81.7945 325.34 82.989 325.682 84.0039C326.03 85.013 326.634 85.7942 327.495 86.3472ZM328.812 79.1034C328.92 78.6084 329.14 78.1352 329.471 77.6837C329.83 77.1934 330.272 76.7943 330.796 76.4864C331.326 76.1728 331.897 76.016 332.507 76.016C333.105 76.016 333.604 76.15 334.003 76.418C334.402 76.6859 334.687 77.0537 334.859 77.5212C335.03 77.983 335.064 78.5104 334.961 79.1034H328.812Z" fill="#040301" style="fill:#040301;fill:color(display-p3 0.0157 0.0118 0.0039);fill-opacity:1;"/>
<path d="M316.672 86.9117L318.861 73.7753H321.863L321.495 75.9647H321.632C321.991 75.2064 322.499 74.622 323.155 74.2115C323.816 73.7953 324.523 73.5872 325.276 73.5872C325.452 73.5872 325.643 73.5957 325.849 73.6128C326.054 73.6242 326.231 73.6442 326.379 73.6727L325.9 76.5206C325.769 76.475 325.563 76.4351 325.284 76.4009C325.01 76.361 324.74 76.341 324.472 76.341C323.907 76.341 323.383 76.4636 322.898 76.7088C322.419 76.9482 322.014 77.2818 321.684 77.7094C321.353 78.137 321.139 78.6302 321.042 79.1889L319.768 86.9117H316.672Z" fill="#040301" style="fill:#040301;fill:color(display-p3 0.0157 0.0118 0.0039);fill-opacity:1;"/>
<path d="M308.034 87.1768C307.201 87.1768 306.477 87.0285 305.861 86.7321C305.246 86.4299 304.792 85.9852 304.502 85.3979C304.217 84.8106 304.145 84.0865 304.288 83.2256C304.413 82.4844 304.653 81.8715 305.006 81.3869C305.365 80.9022 305.804 80.5145 306.323 80.2237C306.848 79.9273 307.418 79.7049 308.034 79.5567C308.655 79.4084 309.288 79.3001 309.932 79.2317C310.719 79.1519 311.355 79.0777 311.84 79.0093C312.33 78.9409 312.698 78.8383 312.943 78.7014C313.188 78.5589 313.336 78.3422 313.387 78.0515V78.0001C313.49 77.3559 313.388 76.857 313.08 76.5035C312.772 76.15 312.259 75.9732 311.54 75.9732C310.788 75.9732 310.155 76.1386 309.642 76.4693C309.128 76.8 308.755 77.1905 308.521 77.6409L305.716 77.2304C306.07 76.4322 306.554 75.7651 307.17 75.2292C307.786 74.6875 308.496 74.2827 309.299 74.0148C310.109 73.7411 310.973 73.6042 311.891 73.6042C312.518 73.6042 313.131 73.6784 313.73 73.8266C314.334 73.9748 314.867 74.22 315.329 74.5621C315.796 74.8985 316.138 75.3575 316.355 75.939C316.578 76.5206 316.615 77.2475 316.466 78.1199L315.004 86.9117H312.028L312.336 85.1071H312.233C311.988 85.472 311.668 85.8141 311.275 86.1334C310.882 86.447 310.414 86.7007 309.872 86.8946C309.331 87.0827 308.718 87.1768 308.034 87.1768ZM309.205 84.9019C309.827 84.9019 310.386 84.7793 310.882 84.5341C311.378 84.2832 311.785 83.9526 312.105 83.542C312.424 83.1315 312.623 82.684 312.703 82.1993L312.96 80.6514C312.846 80.7312 312.669 80.8053 312.43 80.8737C312.19 80.9421 311.922 81.002 311.626 81.0533C311.335 81.1046 311.047 81.1502 310.762 81.1902C310.477 81.2301 310.232 81.2643 310.026 81.2928C309.553 81.3555 309.12 81.4581 308.726 81.6007C308.339 81.7432 308.017 81.9428 307.76 82.1993C307.509 82.4502 307.352 82.7752 307.29 83.1743C307.198 83.7387 307.332 84.1692 307.692 84.4657C308.051 84.7565 308.555 84.9019 309.205 84.9019Z" fill="#040301" style="fill:#040301;fill:color(display-p3 0.0157 0.0118 0.0039);fill-opacity:1;"/>
<path d="M297.047 87.1682C295.736 87.1682 294.658 86.8803 293.814 86.3044C292.971 85.7286 292.381 84.9332 292.044 83.9183C291.713 82.8978 291.659 81.7232 291.882 80.3948C292.098 79.0606 292.546 77.8833 293.224 76.8627C293.909 75.8364 294.77 75.0382 295.807 74.468C296.845 73.8922 298.005 73.6042 299.288 73.6042C300.354 73.6042 301.264 73.801 302.016 74.1944C302.774 74.5821 303.339 75.1323 303.71 75.845C304.086 76.5519 304.231 77.3787 304.146 78.3251H301.178C301.167 77.6923 300.97 77.1649 300.588 76.7429C300.206 76.3153 299.647 76.1015 298.912 76.1015C298.273 76.1015 297.686 76.2726 297.15 76.6147C296.614 76.9511 296.161 77.4357 295.79 78.0686C295.419 78.7014 295.163 79.4597 295.02 80.3435C294.872 81.2386 294.875 82.0083 295.029 82.6526C295.189 83.2912 295.476 83.7844 295.893 84.1322C296.315 84.4742 296.848 84.6453 297.492 84.6453C297.948 84.6453 298.373 84.5598 298.766 84.3887C299.16 84.212 299.505 83.9583 299.801 83.6276C300.103 83.2969 300.34 82.8949 300.511 82.4217H303.47C303.236 83.351 302.82 84.1749 302.221 84.8933C301.628 85.606 300.893 86.1648 300.015 86.5696C299.137 86.9687 298.148 87.1682 297.047 87.1682Z" fill="#040301" style="fill:#040301;fill:color(display-p3 0.0157 0.0118 0.0039);fill-opacity:1;"/>
<path d="M282.165 79.2145L280.899 86.9116H277.794L280.702 69.3965H283.738L282.644 76.0074H282.806C283.222 75.2605 283.79 74.6733 284.508 74.2456C285.232 73.818 286.102 73.6042 287.116 73.6042C288.017 73.6042 288.776 73.7952 289.391 74.1772C290.007 74.5592 290.44 75.118 290.691 75.8535C290.948 76.589 290.991 77.487 290.82 78.5475L289.417 86.9116H286.313L287.63 79.0264C287.772 78.1427 287.655 77.4556 287.279 76.9653C286.908 76.4693 286.321 76.2212 285.517 76.2212C284.964 76.2212 284.454 76.341 283.986 76.5804C283.519 76.8142 283.125 77.1534 282.806 77.5982C282.493 78.0429 282.279 78.5817 282.165 79.2145Z" fill="#040301" style="fill:#040301;fill:color(display-p3 0.0157 0.0118 0.0039);fill-opacity:1;"/>
<path fill-rule="evenodd" clip-rule="evenodd" d="M275.706 73.7752L276.23 70.6279H273.134L272.614 73.7752H270.756L270.363 76.1698H272.219L271.013 83.4735C270.87 84.2945 270.93 84.9787 271.193 85.5261C271.461 86.0677 271.882 86.4697 272.458 86.7319C273.04 86.9885 273.724 87.1082 274.511 87.0911C274.95 87.0797 275.326 87.0398 275.64 86.9714C275.959 86.903 276.213 86.8403 276.401 86.7833L276.264 84.363C276.167 84.3801 276.036 84.4057 275.871 84.4399C275.705 84.4684 275.529 84.4827 275.34 84.4827C275.084 84.4827 274.853 84.4428 274.648 84.363C274.448 84.2831 274.303 84.1349 274.212 83.9182C274.126 83.6959 274.115 83.3766 274.177 82.9604L275.308 76.1698H277.906L278.308 73.7752H275.706Z" fill="#040301" style="fill:#040301;fill:color(display-p3 0.0157 0.0118 0.0039);fill-opacity:1;"/>
<path d="M270.006 69.3965L267.098 86.9116H264.002L266.91 69.3965H270.006Z" fill="#040301" style="fill:#040301;fill:color(display-p3 0.0157 0.0118 0.0039);fill-opacity:1;"/>
<path d="M255.364 87.1768C254.531 87.1768 253.807 87.0285 253.192 86.7321C252.576 86.4299 252.122 85.9852 251.832 85.3979C251.547 84.8106 251.475 84.0865 251.618 83.2256C251.743 82.4844 251.983 81.8715 252.336 81.3869C252.695 80.9022 253.135 80.5145 253.653 80.2237C254.178 79.9273 254.748 79.7049 255.364 79.5567C255.985 79.4084 256.618 79.3001 257.262 79.2317C258.049 79.1519 258.685 79.0777 259.17 79.0093C259.66 78.9409 260.028 78.8383 260.273 78.7014C260.518 78.5589 260.666 78.3422 260.718 78.0515V78.0001C260.82 77.3559 260.718 76.857 260.41 76.5035C260.102 76.15 259.589 75.9732 258.87 75.9732C258.118 75.9732 257.485 76.1386 256.972 76.4693C256.459 76.8 256.085 77.1905 255.851 77.6409L253.046 77.2304C253.4 76.4322 253.884 75.7651 254.5 75.2292C255.116 74.6875 255.826 74.2827 256.63 74.0148C257.439 73.7411 258.303 73.6042 259.221 73.6042C259.848 73.6042 260.461 73.6784 261.06 73.8266C261.664 73.9748 262.197 74.22 262.659 74.5621C263.126 74.8985 263.469 75.3575 263.685 75.939C263.908 76.5206 263.945 77.2475 263.796 78.1199L262.334 86.9117H259.358L259.666 85.1071H259.563C259.318 85.472 258.999 85.8141 258.605 86.1334C258.212 86.447 257.744 86.7007 257.203 86.8946C256.661 87.0827 256.048 87.1768 255.364 87.1768ZM256.535 84.9019C257.157 84.9019 257.716 84.7793 258.212 84.5341C258.708 84.2832 259.115 83.9526 259.435 83.542C259.754 83.1315 259.954 82.684 260.033 82.1993L260.29 80.6514C260.176 80.7312 259.999 80.8053 259.76 80.8737C259.52 80.9421 259.252 81.002 258.956 81.0533C258.665 81.1046 258.377 81.1502 258.092 81.1902C257.807 81.2301 257.562 81.2643 257.357 81.2928C256.883 81.3555 256.45 81.4581 256.057 81.6007C255.669 81.7432 255.347 81.9428 255.09 82.1993C254.839 82.4502 254.682 82.7752 254.62 83.1743C254.529 83.7387 254.663 84.1692 255.022 84.4657C255.381 84.7565 255.886 84.9019 256.535 84.9019Z" fill="#040301" style="fill:#040301;fill:color(display-p3 0.0157 0.0118 0.0039);fill-opacity:1;"/>
<path d="M240.796 86.3472C241.657 86.8946 242.746 87.1682 244.063 87.1682C245.089 87.1682 246.021 87.0143 246.86 86.7064C247.703 86.3928 248.428 85.9538 249.032 85.3893C249.636 84.8192 250.095 84.1521 250.409 83.3881L247.578 83.0631C247.373 83.4337 247.116 83.7473 246.808 84.0039C246.506 84.2547 246.161 84.4429 245.773 84.5683C245.386 84.6938 244.964 84.7565 244.508 84.7565C243.812 84.7565 243.236 84.6339 242.78 84.3887C242.324 84.1436 242.005 83.7616 241.822 83.2427C241.64 82.7239 241.611 82.0539 241.737 81.2329L241.744 81.1902H250.905L251.05 80.2408C251.244 79.0891 251.253 78.0971 251.076 77.2646C250.899 76.4265 250.577 75.7366 250.109 75.195C249.642 74.6533 249.069 74.2542 248.39 73.9977C247.712 73.7354 246.968 73.6042 246.158 73.6042C244.91 73.6042 243.769 73.8922 242.737 74.468C241.711 75.0382 240.856 75.8364 240.172 76.8627C239.488 77.8833 239.034 79.0692 238.812 80.4204C238.584 81.7945 238.641 82.989 238.983 84.0039C239.331 85.013 239.935 85.7942 240.796 86.3472ZM242.113 79.1034C242.221 78.6084 242.441 78.1352 242.772 77.6837C243.131 77.1934 243.573 76.7943 244.097 76.4864C244.627 76.1728 245.198 76.016 245.808 76.016C246.406 76.016 246.905 76.15 247.304 76.418C247.703 76.6859 247.989 77.0537 248.16 77.5212C248.331 77.983 248.365 78.5104 248.262 79.1034H242.113Z" fill="#040301" style="fill:#040301;fill:color(display-p3 0.0157 0.0118 0.0039);fill-opacity:1;"/>
<path d="M229.095 79.2145L227.829 86.9116H224.725L227.632 69.3965H230.668L229.574 76.0074H229.736C230.152 75.2605 230.72 74.6733 231.438 74.2456C232.162 73.818 233.032 73.6042 234.047 73.6042C234.947 73.6042 235.706 73.7952 236.322 74.1772C236.937 74.5592 237.371 75.118 237.622 75.8535C237.878 76.589 237.921 77.487 237.75 78.5475L236.347 86.9116H233.243L234.56 79.0264C234.702 78.1427 234.585 77.4556 234.209 76.9653C233.839 76.4693 233.251 76.2212 232.447 76.2212C231.894 76.2212 231.384 76.341 230.916 76.5804C230.449 76.8142 230.056 77.1534 229.736 77.5982C229.423 78.0429 229.209 78.5817 229.095 79.2145Z" fill="#040301" style="fill:#040301;fill:color(display-p3 0.0157 0.0118 0.0039);fill-opacity:1;"/>
<path d="M218.47 77.2475L215.622 77.5554C215.593 77.2646 215.505 76.9938 215.357 76.7429C215.208 76.4921 214.986 76.2925 214.69 76.1443C214.399 75.9903 214.022 75.9134 213.561 75.9134C212.888 75.9134 212.298 76.0645 211.79 76.3666C211.283 76.6688 210.995 77.0565 210.926 77.5298C210.864 77.8833 210.949 78.1712 211.183 78.3935C211.417 78.6159 211.85 78.8041 212.483 78.958L214.655 79.4369C215.853 79.7049 216.714 80.1382 217.238 80.7369C217.768 81.3355 217.954 82.1195 217.794 83.0888C217.657 83.8984 217.304 84.6111 216.734 85.2269C216.163 85.8369 215.434 86.313 214.544 86.6551C213.66 86.9972 212.68 87.1682 211.602 87.1682C209.966 87.1682 208.706 86.829 207.822 86.1505C206.944 85.4663 206.508 84.5256 206.513 83.3282L209.558 83.0375C209.592 83.6304 209.8 84.078 210.182 84.3802C210.564 84.6767 211.095 84.8277 211.773 84.8334C212.537 84.8391 213.181 84.6795 213.706 84.3545C214.236 84.0238 214.536 83.6219 214.604 83.1486C214.661 82.7951 214.573 82.5072 214.339 82.2849C214.111 82.0625 213.703 81.8857 213.116 81.7546L210.961 81.2842C209.741 81.0163 208.871 80.563 208.352 79.9244C207.839 79.2801 207.665 78.4677 207.831 77.487C207.967 76.6888 208.301 76.0017 208.831 75.4259C209.367 74.8443 210.054 74.3968 210.892 74.0832C211.73 73.7639 212.668 73.6042 213.706 73.6042C215.268 73.6042 216.446 73.9321 217.238 74.5878C218.031 75.2434 218.441 76.13 218.47 77.2475Z" fill="#040301" style="fill:#040301;fill:color(display-p3 0.0157 0.0118 0.0039);fill-opacity:1;"/>
<path d="M197.85 87.1768C197.017 87.1768 196.293 87.0285 195.677 86.7321C195.062 86.4299 194.608 85.9852 194.318 85.3979C194.032 84.8106 193.961 84.0865 194.104 83.2256C194.229 82.4844 194.469 81.8715 194.822 81.3869C195.181 80.9022 195.62 80.5145 196.139 80.2237C196.664 79.9273 197.234 79.7049 197.85 79.5567C198.471 79.4084 199.104 79.3001 199.748 79.2317C200.535 79.1519 201.171 79.0777 201.655 79.0093C202.146 78.9409 202.514 78.8383 202.759 78.7014C203.004 78.5589 203.152 78.3422 203.203 78.0515V78.0001C203.306 77.3559 203.203 76.857 202.896 76.5035C202.588 76.15 202.075 75.9732 201.356 75.9732C200.604 75.9732 199.971 76.1386 199.457 76.4693C198.944 76.8 198.571 77.1905 198.337 77.6409L195.532 77.2304C195.885 76.4322 196.37 75.7651 196.986 75.2292C197.602 74.6875 198.311 74.2827 199.115 74.0148C199.925 73.7411 200.789 73.6042 201.707 73.6042C202.334 73.6042 202.947 73.6784 203.546 73.8266C204.15 73.9748 204.683 74.22 205.145 74.5621C205.612 74.8985 205.954 75.3575 206.171 75.939C206.393 76.5206 206.43 77.2475 206.282 78.1199L204.82 86.9117H201.844L202.151 85.1071H202.049C201.804 85.472 201.484 85.8141 201.091 86.1334C200.698 86.447 200.23 86.7007 199.688 86.8946C199.147 87.0827 198.534 87.1768 197.85 87.1768ZM199.021 84.9019C199.643 84.9019 200.202 84.7793 200.698 84.5341C201.194 84.2832 201.601 83.9526 201.921 83.542C202.24 83.1315 202.439 82.684 202.519 82.1993L202.776 80.6514C202.662 80.7312 202.485 80.8053 202.246 80.8737C202.006 80.9421 201.738 81.002 201.442 81.0533C201.151 81.1046 200.863 81.1502 200.578 81.1902C200.293 81.2301 200.048 81.2643 199.842 81.2928C199.369 81.3555 198.936 81.4581 198.542 81.6007C198.155 81.7432 197.833 81.9428 197.576 82.1993C197.325 82.4502 197.168 82.7752 197.106 83.1743C197.014 83.7387 197.148 84.1692 197.508 84.4657C197.867 84.7565 198.371 84.9019 199.021 84.9019Z" fill="#040301" style="fill:#040301;fill:color(display-p3 0.0157 0.0118 0.0039);fill-opacity:1;"/>
<path d="M178.758 87.1425C177.726 87.1425 176.845 86.8774 176.115 86.3472C175.386 85.8169 174.867 85.0472 174.559 84.0381C174.257 83.0289 174.222 81.8031 174.456 80.3606C174.701 78.901 175.149 77.6694 175.799 76.666C176.449 75.6568 177.224 74.8956 178.125 74.3825C179.032 73.8636 179.99 73.6042 180.999 73.6042C181.774 73.6042 182.387 73.7354 182.837 73.9976C183.294 74.2542 183.636 74.5649 183.864 74.9298C184.092 75.289 184.26 75.6283 184.368 75.9476H184.497L185.583 69.3965H188.687L185.779 86.9116H182.735L183.085 84.842H182.897C182.681 85.1613 182.393 85.5005 182.034 85.8597C181.674 86.2132 181.227 86.5154 180.691 86.7662C180.155 87.0171 179.511 87.1425 178.758 87.1425ZM179.99 84.6025C180.651 84.6025 181.244 84.4258 181.768 84.0723C182.299 83.7131 182.741 83.2142 183.094 82.5756C183.448 81.937 183.696 81.193 183.838 80.3435C183.981 79.4939 183.981 78.7556 183.838 78.1284C183.696 77.5012 183.419 77.0138 183.008 76.666C182.598 76.3182 182.059 76.1443 181.392 76.1443C180.708 76.1443 180.106 76.3239 179.588 76.6831C179.074 77.0423 178.652 77.5383 178.322 78.1712C177.991 78.804 177.757 79.5281 177.621 80.3435C177.484 81.1645 177.475 81.8971 177.595 82.5414C177.72 83.18 177.98 83.6846 178.373 84.0552C178.772 84.4201 179.311 84.6025 179.99 84.6025Z" fill="#040301" style="fill:#040301;fill:color(display-p3 0.0157 0.0118 0.0039);fill-opacity:1;"/>
<path d="M166.216 87.1682C164.922 87.1682 163.845 86.8831 162.984 86.313C162.128 85.7428 161.527 84.9418 161.179 83.9098C160.831 82.8778 160.769 81.6805 160.991 80.3178C161.213 78.9723 161.658 77.7949 162.325 76.7857C162.998 75.7765 163.845 74.9954 164.865 74.4424C165.891 73.8836 167.04 73.6042 168.312 73.6042C169.606 73.6042 170.681 73.8922 171.536 74.468C172.391 75.0382 172.993 75.8393 173.34 76.8712C173.694 77.9032 173.76 79.1062 173.537 80.4803C173.321 81.8202 172.873 82.9918 172.194 83.9953C171.522 84.9988 170.675 85.7799 169.654 86.3387C168.634 86.8917 167.488 87.1682 166.216 87.1682ZM166.473 84.6881C167.191 84.6881 167.821 84.4942 168.363 84.1065C168.91 83.7131 169.358 83.1857 169.706 82.5243C170.059 81.8572 170.304 81.116 170.441 80.3007C170.567 79.5139 170.57 78.8012 170.45 78.1626C170.33 77.5184 170.073 77.0081 169.68 76.6318C169.292 76.2498 168.754 76.0588 168.064 76.0588C167.345 76.0588 166.71 76.2583 166.157 76.6574C165.609 77.0508 165.162 77.5811 164.814 78.2482C164.466 78.9095 164.227 79.6479 164.095 80.4632C163.964 81.25 163.959 81.9627 164.078 82.6013C164.198 83.2399 164.455 83.7473 164.848 84.1236C165.241 84.4999 165.783 84.6881 166.473 84.6881Z" fill="#040301" style="fill:#040301;fill:color(display-p3 0.0157 0.0118 0.0039);fill-opacity:1;"/>
<path d="M152.768 87.1682C151.474 87.1682 150.396 86.8831 149.535 86.313C148.68 85.7428 148.079 84.9418 147.731 83.9098C147.383 82.8778 147.32 81.6805 147.543 80.3178C147.765 78.9723 148.21 77.7949 148.877 76.7857C149.55 75.7765 150.396 74.9954 151.417 74.4424C152.443 73.8836 153.592 73.6042 154.863 73.6042C156.158 73.6042 157.232 73.8922 158.088 74.468C158.943 75.0382 159.544 75.8393 159.892 76.8712C160.246 77.9032 160.311 79.1062 160.089 80.4803C159.872 81.8202 159.425 82.9918 158.746 83.9953C158.073 84.9988 157.227 85.7799 156.206 86.3387C155.186 86.8917 154.04 87.1682 152.768 87.1682ZM153.025 84.6881C153.743 84.6881 154.373 84.4942 154.915 84.1065C155.462 83.7131 155.91 83.1857 156.257 82.5243C156.611 81.8572 156.856 81.116 156.993 80.3007C157.118 79.5139 157.121 78.8012 157.002 78.1626C156.882 77.5184 156.625 77.0081 156.232 76.6318C155.844 76.2498 155.305 76.0588 154.615 76.0588C153.897 76.0588 153.261 76.2583 152.708 76.6574C152.161 77.0508 151.713 77.5811 151.366 78.2482C151.018 78.9095 150.778 79.6479 150.647 80.4632C150.516 81.25 150.51 81.9627 150.63 82.6013C150.75 83.2399 151.006 83.7473 151.4 84.1236C151.793 84.4999 152.335 84.6881 153.025 84.6881Z" fill="#040301" style="fill:#040301;fill:color(display-p3 0.0157 0.0118 0.0039);fill-opacity:1;"/>
<path fill-rule="evenodd" clip-rule="evenodd" d="M145.714 73.7753L145.886 72.7404C145.977 72.2273 146.166 71.8339 146.451 71.5602C146.736 71.2808 147.166 71.1411 147.742 71.1411C147.987 71.1411 148.201 71.1639 148.383 71.2096C148.572 71.2495 148.731 71.2894 148.862 71.3293L149.863 68.9346C149.681 68.8662 149.39 68.7892 148.991 68.7037C148.592 68.6182 148.121 68.5754 147.58 68.5754C146.821 68.5754 146.106 68.7208 145.433 69.0116C144.766 69.3024 144.199 69.7414 143.731 70.3287C143.269 70.9159 142.97 71.6514 142.833 72.5352L142.626 73.7753H140.686L140.284 76.1699H142.225L140.43 86.9116H143.534L145.317 76.1699H148.05L148.452 73.7753H145.714Z" fill="#040301" style="fill:#040301;fill:color(display-p3 0.0157 0.0118 0.0039);fill-opacity:1;"/>
<path d="M78.2838 52.8088C74.9103 52.8088 72.0225 52.1409 69.6205 50.8049C67.2185 49.4555 65.3765 47.5798 64.0946 45.1778C62.8126 42.7623 62.1716 39.9622 62.1716 36.7776C62.1716 33.5929 62.8126 30.7996 64.0946 28.3976C65.3765 25.9821 67.2185 24.1064 69.6205 22.7705C72.0225 21.4211 74.9103 20.7463 78.2838 20.7463C81.3336 20.7463 83.9717 21.2996 86.1983 22.4061C88.4383 23.4992 90.1723 25.051 91.4003 27.0617C92.6283 29.0588 93.249 31.4069 93.2625 34.1057L82.8989 34.1057C82.7505 32.4729 82.2782 31.2314 81.482 30.3813C80.6993 29.5176 79.6873 29.0858 78.4458 29.0858C77.4742 29.0858 76.624 29.3692 75.8954 29.936C75.1667 30.4892 74.5999 31.3326 74.1951 32.4662C73.7902 33.5862 73.5878 34.9963 73.5878 36.6966C73.5878 38.3969 73.7902 39.8138 74.1951 40.9473C74.5999 42.0674 75.1667 42.9108 75.8953 43.4775C76.624 44.0308 77.4742 44.3074 78.4458 44.3074C79.2689 44.3074 79.9976 44.1185 80.6319 43.7407C81.2661 43.3493 81.7789 42.7826 82.1702 42.0404C82.575 41.2847 82.8179 40.3671 82.8989 39.2875L93.2625 39.2875C93.2221 42.0269 92.5946 44.4154 91.3801 46.453C90.1656 48.4772 88.4451 50.0425 86.2185 51.149C84.0054 52.2556 81.3605 52.8088 78.2838 52.8088Z" fill="#040301" style="fill:#040301;fill:color(display-p3 0.0157 0.0118 0.0039);fill-opacity:1;"/>
<path d="M102.94 50.9061C105.342 52.1746 108.202 52.8088 111.522 52.8088C114.396 52.8088 116.906 52.377 119.052 51.5134C121.211 50.6363 122.945 49.4083 124.254 47.8294C125.563 46.2371 126.393 44.3614 126.744 42.2023L116.542 42.2023C116.326 42.7826 115.989 43.2819 115.53 43.7002C115.071 44.105 114.518 44.4154 113.87 44.6313C113.236 44.8472 112.534 44.9551 111.765 44.9551C110.658 44.9551 109.714 44.7325 108.931 44.2872C108.148 43.8419 107.548 43.2279 107.13 42.4452C106.711 41.6625 106.502 40.7719 106.502 39.7733L106.502 39.2875L126.744 39.2875L126.744 36.6966C126.744 34.2272 126.379 32.0073 125.651 30.0372C124.922 28.067 123.883 26.3937 122.533 25.0173C121.184 23.6274 119.558 22.5681 117.655 21.8394C115.752 21.1107 113.627 20.7463 111.279 20.7463C108.067 20.7463 105.281 21.4143 102.919 22.7502C100.558 24.0862 98.7294 25.9551 97.4339 28.3571C96.1385 30.7591 95.4907 33.5659 95.4907 36.7776C95.4907 40.1242 96.1317 42.9985 97.4137 45.4005C98.7091 47.789 100.551 49.6242 102.94 50.9061ZM106.502 33.1341C106.529 32.23 106.765 31.4406 107.211 30.7659C107.669 30.0912 108.277 29.5649 109.032 29.187C109.788 28.7957 110.618 28.6 111.522 28.6C112.453 28.6 113.283 28.7957 114.012 29.187C114.754 29.5649 115.341 30.0979 115.773 30.7861C116.218 31.4608 116.447 32.2435 116.461 33.1341L106.502 33.1341Z" fill="#040301" style="fill:#040301;fill:color(display-p3 0.0157 0.0118 0.0039);fill-opacity:1;"/>
<path d="M141.09 34.8343L141.09 52.3229L129.917 52.3229L129.917 21.232L140.524 21.232L140.524 27.1425L140.847 27.1425C141.522 25.1723 142.71 23.6272 144.41 22.5072C146.124 21.3872 148.121 20.8272 150.401 20.8272C152.601 20.8272 154.51 21.3332 156.13 22.3453C157.763 23.3438 159.024 24.7203 159.915 26.4745C160.819 28.2288 161.264 30.2327 161.251 32.4862L161.251 52.3229L150.077 52.3229L150.077 34.8343C150.091 33.2959 149.7 32.0882 148.903 31.211C148.121 30.3339 147.028 29.8953 145.624 29.8953C144.707 29.8953 143.904 30.0977 143.216 30.5026C142.541 30.8939 142.021 31.4607 141.657 32.2029C141.293 32.9316 141.104 33.8087 141.09 34.8343Z" fill="#040301" style="fill:#040301;fill:color(display-p3 0.0157 0.0118 0.0039);fill-opacity:1;"/>
<path d="M173.504 52.8087C171.52 52.8087 169.766 52.4848 168.241 51.8371C166.73 51.1759 165.542 50.1773 164.679 48.8414C163.815 47.5054 163.383 45.8051 163.383 43.7405C163.383 42.0402 163.673 40.5896 164.253 39.3886C164.834 38.1741 165.643 37.1823 166.682 36.4131C167.721 35.6439 168.929 35.0569 170.306 34.6521C171.696 34.2472 173.193 33.9841 174.799 33.8627C176.54 33.7277 177.937 33.5658 178.989 33.3769C180.055 33.1745 180.824 32.8978 181.297 32.547C181.769 32.1826 182.005 31.7036 182.005 31.1098L182.005 31.0289C182.005 30.2192 181.695 29.5985 181.074 29.1666C180.453 28.7348 179.657 28.5189 178.686 28.5189C177.62 28.5189 176.749 28.7551 176.074 29.2274C175.413 29.6862 175.015 30.3946 174.88 31.3527L164.598 31.3527C164.732 29.4635 165.333 27.7227 166.399 26.1304C167.479 24.5246 169.051 23.2426 171.115 22.2845C173.18 21.3129 175.757 20.8272 178.848 20.8272C181.074 20.8272 183.071 21.0903 184.839 21.6166C186.607 22.1294 188.111 22.8513 189.353 23.7824C190.594 24.7 191.539 25.7796 192.187 27.021C192.848 28.249 193.179 29.585 193.179 31.0289L193.178 52.3229L182.734 52.3229L182.734 47.9507L182.491 47.9507C181.87 49.1112 181.115 50.0491 180.224 50.7643C179.347 51.4795 178.342 51.999 177.208 52.3229C176.088 52.6468 174.853 52.8087 173.504 52.8087ZM177.147 45.7647C177.997 45.7647 178.794 45.5892 179.536 45.2384C180.291 44.8875 180.905 44.3815 181.378 43.7203C181.85 43.059 182.086 42.2561 182.086 41.3115L182.086 38.7206C181.789 38.8421 181.472 38.9568 181.135 39.0647C180.811 39.1727 180.46 39.2739 180.082 39.3683C179.718 39.4628 179.327 39.5505 178.908 39.6315C178.503 39.7124 178.078 39.7867 177.633 39.8541C176.769 39.9891 176.061 40.2117 175.508 40.5221C174.968 40.819 174.563 41.1901 174.293 41.6354C174.037 42.0672 173.909 42.553 173.909 43.0928C173.909 43.9564 174.212 44.6176 174.819 45.0764C175.427 45.5352 176.203 45.7647 177.147 45.7647Z" fill="#040301" style="fill:#040301;fill:color(display-p3 0.0157 0.0118 0.0039);fill-opacity:1;"/>
<path d="M205.644 33.6196L205.644 52.3227L200.867 52.3227L200.867 10.8682L205.644 10.8682L205.644 26.0898L206.049 26.0898C206.778 24.4839 207.871 23.2087 209.328 22.2641C210.799 21.306 212.756 20.827 215.198 20.827C217.317 20.827 219.172 21.252 220.765 22.1022C222.357 22.9388 223.592 24.2275 224.469 25.9683C225.359 27.6956 225.805 29.8952 225.805 32.567L225.805 52.3227L221.028 52.3227L221.028 32.8909C221.028 30.4214 220.387 28.512 219.105 27.1626C217.836 25.7996 216.075 25.1182 213.822 25.1182C212.256 25.1182 210.853 25.4488 209.612 26.11C208.384 26.7712 207.412 27.7361 206.697 29.0045C205.995 30.273 205.644 31.8113 205.644 33.6196Z" fill="#040301" style="fill:#040301;fill:color(display-p3 0.0157 0.0118 0.0039);fill-opacity:1;"/>
<path d="M234.669 50.8251C236.842 52.1475 239.426 52.8088 242.422 52.8088C244.527 52.8088 246.423 52.4849 248.109 51.8372C249.796 51.1759 251.213 50.2583 252.36 49.0843C253.507 47.8968 254.324 46.5204 254.809 44.9551L250.194 43.6596C249.79 44.7392 249.216 45.6433 248.474 46.372C247.732 47.0872 246.848 47.6269 245.822 47.9913C244.81 48.3421 243.677 48.5176 242.422 48.5176C240.492 48.5176 238.798 48.0992 237.341 47.2626C235.884 46.4124 234.743 45.1777 233.92 43.5584C233.186 42.0779 232.785 40.3034 232.716 38.2349L255.295 38.2349L255.295 36.2107C255.295 33.3095 254.911 30.867 254.141 28.8833C253.372 26.8997 252.34 25.3073 251.044 24.1063C249.749 22.8918 248.312 22.0147 246.733 21.4749C245.154 20.9352 243.555 20.6653 241.936 20.6653C239.129 20.6653 236.673 21.3535 234.568 22.7299C232.476 24.0928 230.843 25.9955 229.669 28.438C228.509 30.867 227.929 33.6738 227.929 36.8585C227.929 40.0431 228.509 42.8364 229.669 45.2384C230.843 47.6269 232.51 49.4891 234.669 50.8251ZM232.728 34.1056C232.819 32.6634 233.183 31.3005 233.819 30.0168C234.561 28.519 235.62 27.3045 236.997 26.3734C238.387 25.4288 240.033 24.9565 241.936 24.9565C243.663 24.9565 245.161 25.3546 246.429 26.1507C247.711 26.9469 248.696 28.0332 249.385 29.4096C250.086 30.786 250.437 32.3514 250.437 34.1056L232.728 34.1056Z" fill="#040301" style="fill:#040301;fill:color(display-p3 0.0157 0.0118 0.0039);fill-opacity:1;"/>
<path d="M267.92 52.8087C265.95 52.8087 264.162 52.4376 262.557 51.6954C260.951 50.9397 259.675 49.8534 258.731 48.4365C257.786 47.0061 257.314 45.2788 257.314 43.2547C257.314 41.4734 257.665 40.0295 258.367 38.923C259.068 37.803 260.006 36.9258 261.18 36.2916C262.354 35.6574 263.65 35.1851 265.066 34.8747C266.497 34.5508 267.934 34.2945 269.378 34.1055C271.267 33.8626 272.799 33.6805 273.973 33.559C275.16 33.4241 276.024 33.2014 276.564 32.891C277.117 32.5807 277.394 32.0409 277.394 31.2717L277.394 31.1098C277.394 29.1126 276.847 27.5608 275.754 26.4543C274.674 25.3477 273.035 24.7945 270.835 24.7945C268.555 24.7945 266.767 25.2937 265.471 26.2923C264.176 27.2909 263.265 28.357 262.739 29.4905L258.205 27.8712C259.014 25.982 260.094 24.5111 261.443 23.4585C262.806 22.3925 264.291 21.6503 265.896 21.232C267.516 20.8001 269.108 20.5842 270.673 20.5842C271.672 20.5842 272.819 20.7057 274.114 20.9486C275.423 21.178 276.685 21.657 277.9 22.3857C279.128 23.1144 280.146 24.2142 280.956 25.6851C281.766 27.156 282.17 29.1261 282.17 31.5956L282.17 52.08L277.394 52.08L277.394 47.8697L277.151 47.8697C276.827 48.5445 276.287 49.2664 275.531 50.0356C274.776 50.8048 273.77 51.4592 272.515 51.999C271.26 52.5388 269.729 52.8087 267.92 52.8087ZM268.649 48.5175C270.538 48.5175 272.131 48.1464 273.426 47.4042C274.735 46.662 275.72 45.7039 276.381 44.5299C277.056 43.3559 277.394 42.1212 277.394 40.8257L277.394 36.4535C277.191 36.6964 276.746 36.9191 276.058 37.1215C275.383 37.3104 274.6 37.4791 273.71 37.6276C272.832 37.7625 271.976 37.8839 271.139 37.9919C270.316 38.0864 269.648 38.1673 269.135 38.2348C267.894 38.3967 266.733 38.6599 265.653 39.0242C264.587 39.3751 263.724 39.9081 263.063 40.6233C262.415 41.325 262.091 42.2831 262.091 43.4976C262.091 45.1574 262.705 46.4124 263.933 47.2625C265.174 48.0991 266.746 48.5175 268.649 48.5175Z" fill="#040301" style="fill:#040301;fill:color(display-p3 0.0157 0.0118 0.0039);fill-opacity:1;"/>
<path d="M290.704 10.8682L290.704 52.3227L285.927 52.3227L285.927 10.8682L290.704 10.8682Z" fill="#040301" style="fill:#040301;fill:color(display-p3 0.0157 0.0118 0.0039);fill-opacity:1;"/>
<path fill-rule="evenodd" clip-rule="evenodd" d="M298.297 13.7832L303.074 13.7832L303.074 21.2321L309.713 21.2321L309.713 25.2804L303.074 25.2804L303.074 43.4167C303.074 44.7662 303.27 45.7782 303.661 46.4529C304.066 47.1142 304.579 47.5595 305.199 47.7889C305.834 48.0048 306.502 48.1127 307.203 48.1127C307.73 48.1127 308.161 48.0858 308.499 48.0318L309.308 47.8699L310.28 52.161C309.956 52.2825 309.504 52.4039 308.924 52.5254C308.344 52.6603 307.608 52.7278 306.718 52.7278C305.368 52.7278 304.046 52.4377 302.75 51.8574C301.468 51.2772 300.402 50.3933 299.552 49.2058C298.715 48.0183 298.297 46.5204 298.297 44.7122L298.297 25.2804L293.601 25.2804L293.601 21.2321L298.297 21.2321L298.297 13.7832Z" fill="#040301" style="fill:#040301;fill:color(display-p3 0.0157 0.0118 0.0039);fill-opacity:1;"/>
<path d="M317.741 33.6196L317.741 52.3227L312.964 52.3227L312.964 10.8682L317.741 10.8682L317.741 26.0898L318.146 26.0898C318.875 24.4839 319.968 23.2087 321.425 22.2641C322.896 21.306 324.853 20.827 327.295 20.827C329.414 20.827 331.269 21.252 332.861 22.1022C334.454 22.9388 335.689 24.2275 336.566 25.9683C337.456 27.6956 337.902 29.8952 337.902 32.567L337.902 52.3227L333.125 52.3227L333.125 32.8909C333.125 30.4214 332.484 28.512 331.202 27.1626C329.933 25.7996 328.172 25.1182 325.919 25.1182C324.353 25.1182 322.95 25.4488 321.708 26.11C320.48 26.7712 319.509 27.7361 318.794 29.0045C318.092 30.273 317.741 31.8113 317.741 33.6196Z" fill="#040301" style="fill:#040301;fill:color(display-p3 0.0157 0.0118 0.0039);fill-opacity:1;"/>
<path fill-rule="evenodd" clip-rule="evenodd" d="M31.9822 10.73C34 10.73 35.7736 11.1364 37.3041 11.9491C38.826 12.7618 40.0144 13.9294 40.8695 15.4522C41.4398 16.4781 41.8178 17.6441 42.0038 18.9497C43.272 18.7395 44.4704 18.7458 45.5989 18.972C47.3079 19.307 48.7852 20.0774 50.0306 21.2826C51.2734 22.4798 52.2064 24.0387 52.83 25.9589C53.4535 27.8791 53.6158 29.6929 53.3162 31.4005C53.014 33.0999 52.2713 34.592 51.0881 35.8762C50.2849 36.7404 49.2867 37.4625 48.095 38.0445C48.6892 39.189 49.0538 40.3343 49.1879 41.4808C49.3976 43.2106 49.1218 44.8544 48.3611 46.4121C47.6073 47.9647 46.4145 49.3346 44.782 50.5214C43.1495 51.7081 41.4751 52.4227 39.7595 52.6653C38.0508 52.9029 36.4029 52.6572 34.8166 51.9281C34.617 51.8353 34.4201 51.7346 34.2258 51.6258C33.4351 51.1834 32.6878 50.609 31.9822 49.9035C31.1031 50.7824 30.1585 51.4578 29.1469 51.9281C27.5605 52.6572 25.9128 52.9029 24.2041 52.6653C22.4885 52.4227 20.8144 51.7081 19.182 50.5214C17.5495 49.3346 16.3562 47.9647 15.6023 46.4121C14.8416 44.8545 14.566 43.2105 14.7757 41.4808C14.9098 40.3344 15.2751 39.1895 15.8692 38.0451C14.6773 37.463 13.6794 36.7405 12.8761 35.8762C11.6929 34.592 10.95 33.0999 10.6478 31.4005C10.3482 29.6929 10.5102 27.879 11.1336 25.9589C11.7572 24.0387 12.6907 22.4798 13.9335 21.2826C15.179 20.0774 16.6562 19.3069 18.3653 18.972C19.4937 18.7459 20.6917 18.7395 21.9598 18.9497C22.1458 17.6441 22.5236 16.4782 23.0939 15.4522C23.9489 13.9294 25.1375 12.7618 26.6593 11.9491C28.1898 11.1363 29.9643 10.73 31.9822 10.73ZM31.9824 14.933C30.3681 14.933 28.9485 15.2579 27.7241 15.9081C26.5067 16.5583 25.556 17.4924 24.8721 18.7105C24.4158 19.5313 24.1136 20.4641 23.9647 21.5085C22.9503 21.3404 21.9919 21.3455 21.0892 21.5264C19.722 21.7943 18.5402 22.4106 17.5438 23.3748C16.5496 24.3325 15.8027 25.5796 15.3039 27.1157C14.8051 28.6518 14.6757 30.1029 14.9153 31.4688C15.1571 32.8283 15.7513 34.0221 16.6978 35.0494C17.3404 35.7408 18.1388 36.3186 19.0923 36.7843C18.617 37.6998 18.3249 38.6157 18.2177 39.5328C18.0499 40.9166 18.2704 42.2316 18.8789 43.4777C19.482 44.7198 20.4365 45.8156 21.7425 46.765C23.0484 47.7143 24.3876 48.2861 25.76 48.4802C27.1269 48.6703 28.4452 48.4737 29.7142 47.8904C30.5235 47.5142 31.2791 46.9739 31.9824 46.2708C32.5469 46.8351 33.1448 47.2946 33.7772 47.6485C33.9327 47.7355 34.0901 47.8162 34.2498 47.8904C35.5188 48.4737 36.8371 48.6703 38.204 48.4802C39.5765 48.2862 40.916 47.7144 42.2219 46.765C43.5278 45.8156 44.482 44.7197 45.085 43.4777C45.6936 42.2316 45.9143 40.9166 45.7465 39.5328C45.6392 38.6156 45.3476 37.6995 44.8723 36.7839C45.8256 36.3183 46.624 35.7408 47.2665 35.0494C48.2131 34.0221 48.8072 32.8283 49.049 31.4688C49.2887 30.1029 49.1589 28.6518 48.6601 27.1157C48.1613 25.5796 47.4147 24.3325 46.4205 23.3748C45.4242 22.4106 44.2425 21.7944 42.8754 21.5264C41.9726 21.3455 41.0138 21.3403 39.9993 21.5085C39.8504 20.4641 39.5482 19.5313 39.0919 18.7105C38.4079 17.4924 37.4573 16.5583 36.2398 15.9081C35.0155 15.258 33.5966 14.933 31.9824 14.933Z" fill="#040301" style="fill:#040301;fill:color(display-p3 0.0157 0.0118 0.0039);fill-opacity:1;"/>
<path opacity="0.8" fill-rule="evenodd" clip-rule="evenodd" d="M31.9811 14.9319C33.5954 14.9319 35.0142 15.257 36.2386 15.9072C37.4561 16.5574 38.4069 17.4914 39.0909 18.7096C39.5471 19.5303 39.8494 20.463 39.9982 21.5074C41.0128 21.3392 41.9715 21.3444 42.8743 21.5253C44.2414 21.7933 45.4232 22.4096 46.4195 23.3737C47.4137 24.3314 48.1601 25.5786 48.6589 27.1146C49.1577 28.6507 49.2876 30.1019 49.048 31.4679C48.8062 32.8274 48.212 34.021 47.2655 35.0483C46.623 35.7397 45.8244 36.3172 44.8711 36.7828C45.3464 37.6983 45.638 38.6146 45.7453 39.5317C45.9131 40.9155 45.6926 42.2307 45.084 43.4768C44.481 44.7188 43.5268 45.8147 42.2209 46.7641C40.9149 47.7135 39.5753 48.2851 38.2028 48.4791C36.8359 48.6692 35.5177 48.4726 34.2487 47.8893C34.0891 47.8151 33.9315 47.7346 33.776 47.6476C33.1435 47.2937 32.5457 46.8341 31.9811 46.2697C31.2779 46.9728 30.5223 47.5131 29.713 47.8893C28.444 48.4726 27.1259 48.6692 25.7589 48.4791C24.3865 48.285 23.0473 47.7134 21.7414 46.7641C20.4355 45.8147 19.481 44.7188 18.8779 43.4768C18.2693 42.2307 18.0486 40.9155 18.2164 39.5317C18.3237 38.6146 18.616 37.6988 19.0912 36.7834C18.1378 36.3177 17.3394 35.7397 16.6968 35.0483C15.7503 34.021 15.1561 32.8274 14.9143 31.4679C14.6747 30.1019 14.8041 28.6507 15.3028 27.1146C15.8017 25.5785 16.5486 24.3314 17.5428 23.3737C18.5391 22.4096 19.7208 21.7933 21.088 21.5253C21.9907 21.3444 22.9491 21.3393 23.9635 21.5074C24.1123 20.463 24.4146 19.5303 24.8708 18.7096C25.5548 17.4914 26.5057 16.5574 27.7231 15.9072C28.9475 15.257 30.3669 14.9319 31.9811 14.9319ZM31.9808 18.2927C30.6893 18.2927 29.5536 18.5528 28.5741 19.073C27.6001 19.5931 26.8394 20.3403 26.2922 21.3149C25.9272 21.9715 25.6853 22.7179 25.5662 23.5535C24.7546 23.419 23.9879 23.4228 23.2656 23.5676C22.1719 23.7819 21.2265 24.2751 20.4294 25.0465C19.6339 25.8127 19.0364 26.8105 18.6374 28.0395C18.2383 29.2684 18.1346 30.4294 18.3263 31.5222C18.5198 32.6098 18.9952 33.5648 19.7525 34.3867C20.2666 34.9398 20.9053 35.4022 21.6681 35.7747C21.2879 36.5071 21.0542 37.2401 20.9684 37.9737C20.8341 39.0808 21.0106 40.1329 21.4974 41.1298C21.9799 42.1235 22.7436 43.0003 23.7885 43.7598C24.8332 44.5193 25.9046 44.9768 27.0026 45.1321C28.0962 45.2841 29.1508 45.1268 30.1661 44.6601C30.8135 44.3591 31.4181 43.9269 31.9808 43.3644C32.4324 43.816 32.9108 44.1835 33.4168 44.4666C33.5412 44.5362 33.6672 44.6007 33.7949 44.6601C34.8101 45.1268 35.8647 45.2841 36.9584 45.1321C38.0564 44.9768 39.1281 44.5194 40.1729 43.7598C41.2177 43.0003 41.981 42.1235 42.4635 41.1298C42.9504 40.1329 43.1268 39.0808 42.9926 37.9737C42.9068 37.24 42.6735 36.5068 42.2932 35.7743C43.0559 35.4018 43.6948 34.9398 44.2089 34.3867C44.9661 33.5648 45.4416 32.6099 45.635 31.5222C45.8267 30.4293 45.7226 29.2684 45.3236 28.0395C44.9245 26.8105 44.3274 25.8127 43.532 25.0465C42.7349 24.2751 41.7895 23.782 40.6957 23.5676C39.9734 23.4228 39.2064 23.4189 38.3948 23.5535C38.2757 22.7179 38.0338 21.9715 37.6688 21.3149C37.1215 20.3403 36.3609 19.5931 35.3869 19.073C34.4073 18.5528 33.2722 18.2927 31.9808 18.2927Z" fill="#040301" style="fill:#040301;fill:color(display-p3 0.0157 0.0118 0.0039);fill-opacity:1;"/>
<path opacity="0.6" fill-rule="evenodd" clip-rule="evenodd" d="M31.9819 18.2937C33.2733 18.2937 34.4085 18.5538 35.388 19.074C36.362 19.5942 37.1226 20.3415 37.6699 21.3161C38.0349 21.9727 38.2768 22.7189 38.3959 23.5545C39.2076 23.4199 39.9745 23.424 40.6968 23.5688C41.7905 23.7832 42.736 24.2761 43.5331 25.0475C44.3285 25.8137 44.9258 26.8116 45.3249 28.0405C45.7239 29.2694 45.8278 30.4304 45.6361 31.5232C45.4427 32.6109 44.9672 33.5658 44.21 34.3877C43.6959 34.9408 43.0571 35.403 42.2944 35.7755C42.6746 36.508 42.9079 37.241 42.9937 37.9748C43.128 39.0819 42.9515 40.1339 42.4646 41.1308C41.9822 42.1245 41.2188 43.0013 40.174 43.7608C39.1292 44.5204 38.0575 44.9778 36.9595 45.1331C35.8659 45.2851 34.8112 45.1278 33.796 44.6611C33.6683 44.6018 33.5422 44.5374 33.4179 44.4678C32.9119 44.1847 32.4335 43.817 31.9819 43.3654C31.4192 43.928 30.8147 44.3602 30.1672 44.6611C29.1519 45.1278 28.0973 45.2851 27.0037 45.1331C25.9057 44.9778 24.8343 44.5203 23.7896 43.7608C22.7447 43.0013 21.981 42.1245 21.4986 41.1308C21.0117 40.1339 20.8352 39.0818 20.9695 37.9748C21.0553 37.2411 21.289 36.5083 21.6692 35.7759C20.9064 35.4034 20.2677 34.9409 19.7536 34.3877C18.9963 33.5658 18.5209 32.6109 18.3275 31.5232C18.1357 30.4304 18.2394 29.2694 18.6385 28.0405C19.0376 26.8115 19.635 25.8137 20.4305 25.0475C21.2276 24.2761 22.173 23.7832 23.2668 23.5688C23.989 23.424 24.7557 23.42 25.5673 23.5545C25.6864 22.7189 25.9283 21.9727 26.2933 21.3161C26.8405 20.3415 27.6012 19.5942 28.5752 19.074C29.5547 18.5538 30.6904 18.2937 31.9819 18.2937ZM31.9819 20.9816C30.9486 20.9816 30.04 21.1898 29.2562 21.6059C28.4769 22.0221 27.8682 22.6201 27.4303 23.3998C27.1383 23.9252 26.9447 24.5223 26.8494 25.1909C26.2001 25.0833 25.5867 25.0865 25.0089 25.2023C24.1337 25.3738 23.3772 25.7684 22.7394 26.3856C22.103 26.9987 21.6249 27.797 21.3056 28.7803C20.9863 29.7635 20.9035 30.6924 21.0569 31.5668C21.2117 32.4371 21.592 33.2012 22.1979 33.8588C22.6092 34.3014 23.1202 34.6715 23.7305 34.9695C23.4263 35.5555 23.2392 36.1418 23.1706 36.7288C23.0632 37.6146 23.2044 38.4564 23.594 39.2541C23.98 40.0491 24.5911 40.7507 25.4271 41.3584C26.2631 41.9661 27.1203 42.3321 27.9989 42.4564C28.8739 42.578 29.7177 42.4521 30.53 42.0787C31.048 41.8379 31.5317 41.4921 31.9819 41.0421C32.3432 41.4033 32.726 41.6973 33.1309 41.9239C33.2304 41.9795 33.3312 42.0312 33.4333 42.0787C34.2457 42.4521 35.0895 42.578 35.9645 42.4564C36.8431 42.3322 37.7006 41.9661 38.5366 41.3584C39.3726 40.7507 39.9834 40.0491 40.3694 39.2541C40.759 38.4564 40.9002 37.6146 40.7928 36.7288C40.7241 36.1417 40.5373 35.5552 40.233 34.9692C40.8433 34.6711 41.3545 34.3014 41.7658 33.8588C42.3717 33.2012 42.7521 32.4371 42.9069 31.5668C43.0603 30.6924 42.977 29.7635 42.6577 28.7803C42.3384 27.797 41.8607 26.9987 41.2244 26.3856C40.5866 25.7684 39.83 25.3739 38.9549 25.2023C38.377 25.0865 37.7633 25.0833 37.1139 25.1909C37.0186 24.5223 36.8251 23.9252 36.533 23.3998C36.0952 22.6201 35.4865 22.0221 34.7071 21.6059C33.9234 21.1898 33.0152 20.9816 31.9819 20.9816Z" fill="#040301" style="fill:#040301;fill:color(display-p3 0.0157 0.0118 0.0039);fill-opacity:1;"/>
</svg>
