<svg width="64" height="63" viewBox="0 0 64 63" fill="none" xmlns="http://www.w3.org/2000/svg">
<path fill-rule="evenodd" clip-rule="evenodd" d="M37.3041 11.9492C35.7736 11.1365 34 10.7301 31.9822 10.7301C29.9643 10.7301 28.1898 11.1365 26.6593 11.9492C25.1375 12.762 23.9489 13.9296 23.0939 15.4523C22.5236 16.4783 22.1458 17.6443 21.9598 18.9498C20.6917 18.7397 19.4937 18.746 18.3653 18.9721C16.6562 19.3071 15.179 20.0775 13.9335 21.2827C12.6907 22.4799 11.7572 24.0388 11.1336 25.959C10.5102 27.8791 10.3482 29.6931 10.6478 31.4006C10.95 33.1 11.6929 34.5921 12.8761 35.8763C13.6794 36.7406 14.6773 37.4631 15.8692 38.0452C15.2751 39.1896 14.9098 40.3345 14.7757 41.4809C14.566 43.2106 14.8416 44.8546 15.6023 46.4122C16.3562 47.9648 17.5495 49.3347 19.182 50.5215C20.8144 51.7082 22.4885 52.4228 24.2041 52.6655C25.9128 52.903 27.5605 52.6573 29.1469 51.9282C30.1585 51.458 31.1031 50.7826 31.9822 49.9037C32.6878 50.6091 33.4351 51.1836 34.2258 51.626C34.4201 51.7347 34.617 51.8354 34.8166 51.9282C36.4029 52.6573 38.0508 52.903 39.7595 52.6655C41.4751 52.4229 43.1495 51.7082 44.782 50.5215C46.4145 49.3347 47.6073 47.9648 48.3611 46.4122C49.1218 44.8546 49.3976 43.2107 49.1879 41.4809C49.0538 40.3344 48.6892 39.1891 48.095 38.0447C49.2867 37.4626 50.2849 36.7406 51.0881 35.8763C52.2713 34.5921 53.014 33.1 53.3162 31.4006C53.6158 29.693 53.4535 27.8792 52.83 25.959C52.2064 24.0389 51.2734 22.4799 50.0306 21.2827C48.7852 20.0775 47.3079 19.3071 45.5989 18.9721C44.4704 18.7459 43.272 18.7396 42.0038 18.9498C41.8178 17.6443 41.4398 16.4783 40.8695 15.4523C40.0144 13.9295 38.826 12.7619 37.3041 11.9492ZM29.2562 21.606C30.04 21.1899 30.9486 20.9817 31.9819 20.9817C33.0152 20.9817 33.9234 21.1899 34.7071 21.606C35.4865 22.0222 36.0952 22.6202 36.533 23.4C36.8251 23.9254 37.0186 24.5224 37.1139 25.191C37.7633 25.0834 38.377 25.0866 38.9549 25.2024C39.83 25.374 40.5866 25.7686 41.2244 26.3858C41.8607 26.9988 42.3384 27.7971 42.6577 28.7804C42.977 29.7637 43.0603 30.6925 42.9068 31.5669C42.7521 32.4372 42.3717 33.2013 41.7658 33.8589C41.3545 34.3015 40.8433 34.6712 40.233 34.9693C40.5373 35.5553 40.7241 36.1418 40.7928 36.7289C40.9002 37.6147 40.759 38.4565 40.3694 39.2542C39.9834 40.0492 39.3726 40.7508 38.5366 41.3585C37.7006 41.9663 36.8431 42.3323 35.9645 42.4565C35.0895 42.5781 34.2456 42.4522 33.4333 42.0788C33.3312 42.0313 33.2304 41.9797 33.1309 41.924C32.726 41.6974 32.3432 41.4034 31.9819 41.0422C31.5317 41.4922 31.048 41.838 30.53 42.0788C29.7177 42.4522 28.8739 42.5782 27.9988 42.4565C27.1203 42.3323 26.2631 41.9662 25.4271 41.3585C24.5911 40.7508 23.98 40.0493 23.594 39.2542C23.2044 38.4565 23.0632 37.6147 23.1706 36.7289C23.2392 36.1419 23.4263 35.5556 23.7305 34.9696C23.1202 34.6716 22.6092 34.3015 22.1979 33.8589C21.592 33.2013 21.2116 32.4372 21.0569 31.5669C20.9035 30.6925 20.9863 29.7636 21.3056 28.7804C21.6249 27.7971 22.103 26.9988 22.7394 26.3858C23.3772 25.7686 24.1337 25.374 25.0089 25.2024C25.5867 25.0866 26.2001 25.0834 26.8494 25.191C26.9447 24.5224 27.1383 23.9254 27.4303 23.4C27.8682 22.6202 28.4769 22.0222 29.2562 21.606Z" fill="black" style="fill:black;fill-opacity:1;"/>
</svg>
