<svg width="349" height="99" viewBox="0 0 349 99" fill="none" xmlns="http://www.w3.org/2000/svg">
<path d="M327.495 86.3472C328.356 86.8946 329.445 87.1682 330.762 87.1682C331.789 87.1682 332.721 87.0143 333.559 86.7064C334.403 86.3928 335.127 85.9538 335.731 85.3893C336.336 84.8192 336.795 84.1521 337.108 83.3881L334.277 83.0631C334.072 83.4337 333.816 83.7473 333.508 84.0039C333.206 84.2547 332.861 84.4429 332.473 84.5683C332.085 84.6938 331.663 84.7565 331.207 84.7565C330.512 84.7565 329.936 84.6339 329.48 84.3887C329.024 84.1436 328.704 83.7616 328.522 83.2427C328.339 82.7239 328.311 82.0539 328.436 81.2329L328.444 81.1902H337.604L337.75 80.2408C337.944 79.0891 337.952 78.0971 337.775 77.2646C337.599 76.4265 337.276 75.7366 336.809 75.195C336.341 74.6533 335.768 74.2542 335.09 73.9977C334.411 73.7354 333.667 73.6042 332.858 73.6042C331.609 73.6042 330.469 73.8922 329.437 74.468C328.411 75.0382 327.555 75.8364 326.871 76.8627C326.187 77.8833 325.734 79.0692 325.511 80.4204C325.283 81.7945 325.34 82.989 325.682 84.0039C326.03 85.013 326.635 85.7942 327.495 86.3472ZM328.812 79.1034C328.921 78.6084 329.14 78.1352 329.471 77.6837C329.83 77.1934 330.272 76.7943 330.797 76.4864C331.327 76.1728 331.897 76.016 332.507 76.016C333.106 76.016 333.605 76.15 334.004 76.418C334.403 76.6859 334.688 77.0537 334.859 77.5212C335.03 77.983 335.064 78.5104 334.962 79.1034H328.812Z" fill="#EEE6DB" style="fill:#EEE6DB;fill:color(display-p3 0.9333 0.9020 0.8588);fill-opacity:1;"/>
<path d="M316.672 86.9117L318.862 73.7753H321.864L321.496 75.9647H321.633C321.992 75.2064 322.499 74.622 323.155 74.2115C323.816 73.7953 324.523 73.5872 325.276 73.5872C325.453 73.5872 325.644 73.5957 325.849 73.6128C326.054 73.6242 326.231 73.6442 326.379 73.6727L325.9 76.5206C325.769 76.475 325.564 76.4351 325.285 76.4009C325.011 76.361 324.74 76.341 324.472 76.341C323.908 76.341 323.383 76.4636 322.898 76.7088C322.42 76.9482 322.015 77.2818 321.684 77.7094C321.353 78.137 321.14 78.6302 321.043 79.1889L319.768 86.9117H316.672Z" fill="#EEE6DB" style="fill:#EEE6DB;fill:color(display-p3 0.9333 0.9020 0.8588);fill-opacity:1;"/>
<path d="M308.034 87.1768C307.202 87.1768 306.477 87.0285 305.862 86.7321C305.246 86.4299 304.793 85.9852 304.502 85.3979C304.217 84.8106 304.146 84.0865 304.288 83.2256C304.414 82.4844 304.653 81.8715 305.006 81.3869C305.366 80.9022 305.805 80.5145 306.324 80.2237C306.848 79.9273 307.418 79.7049 308.034 79.5567C308.655 79.4084 309.288 79.3001 309.933 79.2317C310.719 79.1519 311.355 79.0777 311.84 79.0093C312.33 78.9409 312.698 78.8383 312.943 78.7014C313.188 78.5589 313.336 78.3422 313.388 78.0515V78.0001C313.49 77.3559 313.388 76.857 313.08 76.5035C312.772 76.15 312.259 75.9732 311.54 75.9732C310.788 75.9732 310.155 76.1386 309.642 76.4693C309.129 76.8 308.755 77.1905 308.521 77.6409L305.716 77.2304C306.07 76.4322 306.554 75.7651 307.17 75.2292C307.786 74.6875 308.496 74.2827 309.3 74.0148C310.109 73.7411 310.973 73.6042 311.891 73.6042C312.518 73.6042 313.131 73.6784 313.73 73.8266C314.334 73.9748 314.867 74.22 315.329 74.5621C315.797 74.8985 316.139 75.3575 316.355 75.939C316.578 76.5206 316.615 77.2475 316.467 78.1199L315.004 86.9117H312.028L312.336 85.1071H312.233C311.988 85.472 311.669 85.8141 311.275 86.1334C310.882 86.447 310.414 86.7007 309.873 86.8946C309.331 87.0827 308.718 87.1768 308.034 87.1768ZM309.206 84.9019C309.827 84.9019 310.386 84.7793 310.882 84.5341C311.378 84.2832 311.786 83.9526 312.105 83.542C312.424 83.1315 312.624 82.684 312.704 82.1993L312.96 80.6514C312.846 80.7312 312.669 80.8053 312.43 80.8737C312.19 80.9421 311.922 81.002 311.626 81.0533C311.335 81.1046 311.047 81.1502 310.762 81.1902C310.477 81.2301 310.232 81.2643 310.027 81.2928C309.553 81.3555 309.12 81.4581 308.727 81.6007C308.339 81.7432 308.017 81.9428 307.76 82.1993C307.509 82.4502 307.353 82.7752 307.29 83.1743C307.199 83.7387 307.333 84.1692 307.692 84.4657C308.051 84.7565 308.556 84.9019 309.206 84.9019Z" fill="#EEE6DB" style="fill:#EEE6DB;fill:color(display-p3 0.9333 0.9020 0.8588);fill-opacity:1;"/>
<path d="M297.048 87.1682C295.736 87.1682 294.659 86.8803 293.815 86.3044C292.971 85.7286 292.381 84.9332 292.045 83.9183C291.714 82.8978 291.66 81.7232 291.882 80.3948C292.099 79.0606 292.546 77.8833 293.225 76.8627C293.909 75.8364 294.77 75.0382 295.808 74.468C296.845 73.8922 298.006 73.6042 299.288 73.6042C300.355 73.6042 301.264 73.801 302.017 74.1944C302.775 74.5821 303.339 75.1323 303.71 75.845C304.086 76.5519 304.232 77.3787 304.146 78.3251H301.179C301.167 77.6923 300.97 77.1649 300.588 76.7429C300.206 76.3153 299.648 76.1015 298.912 76.1015C298.274 76.1015 297.686 76.2726 297.15 76.6147C296.614 76.9511 296.161 77.4357 295.791 78.0686C295.42 78.7014 295.163 79.4597 295.021 80.3435C294.873 81.2386 294.875 82.0083 295.029 82.6526C295.189 83.2912 295.477 83.7844 295.893 84.1322C296.315 84.4742 296.848 84.6453 297.492 84.6453C297.949 84.6453 298.373 84.5598 298.767 84.3887C299.16 84.212 299.505 83.9583 299.802 83.6276C300.104 83.2969 300.34 82.8949 300.511 82.4217H303.471C303.237 83.351 302.821 84.1749 302.222 84.8933C301.629 85.606 300.893 86.1648 300.015 86.5696C299.137 86.9687 298.148 87.1682 297.048 87.1682Z" fill="#EEE6DB" style="fill:#EEE6DB;fill:color(display-p3 0.9333 0.9020 0.8588);fill-opacity:1;"/>
<path d="M282.165 79.2145L280.899 86.9116H277.795L280.702 69.3965H283.739L282.644 76.0074H282.806C283.223 75.2605 283.79 74.6733 284.508 74.2456C285.232 73.818 286.102 73.6042 287.117 73.6042C288.018 73.6042 288.776 73.7952 289.392 74.1772C290.007 74.5592 290.441 75.118 290.692 75.8535C290.948 76.589 290.991 77.487 290.82 78.5475L289.417 86.9116H286.313L287.63 79.0264C287.772 78.1427 287.655 77.4556 287.279 76.9653C286.909 76.4693 286.321 76.2212 285.517 76.2212C284.964 76.2212 284.454 76.341 283.987 76.5804C283.519 76.8142 283.126 77.1534 282.806 77.5982C282.493 78.0429 282.279 78.5817 282.165 79.2145Z" fill="#EEE6DB" style="fill:#EEE6DB;fill:color(display-p3 0.9333 0.9020 0.8588);fill-opacity:1;"/>
<path fill-rule="evenodd" clip-rule="evenodd" d="M275.706 73.7752L276.23 70.6279H273.134L272.615 73.7752H270.757L270.363 76.1698H272.219L271.013 83.4735C270.871 84.2945 270.931 84.9787 271.193 85.5261C271.461 86.0677 271.883 86.4697 272.459 86.7319C273.04 86.9885 273.724 87.1082 274.511 87.0911C274.95 87.0797 275.326 87.0398 275.64 86.9714C275.959 86.903 276.213 86.8403 276.401 86.7833L276.264 84.363C276.167 84.3801 276.036 84.4057 275.871 84.4399C275.706 84.4684 275.529 84.4827 275.341 84.4827C275.084 84.4827 274.853 84.4428 274.648 84.363C274.448 84.2831 274.303 84.1349 274.212 83.9182C274.126 83.6959 274.115 83.3766 274.178 82.9604L275.308 76.1698H277.906L278.308 73.7752H275.706Z" fill="#EEE6DB" style="fill:#EEE6DB;fill:color(display-p3 0.9333 0.9020 0.8588);fill-opacity:1;"/>
<path d="M270.006 69.3965L267.098 86.9116H264.002L266.91 69.3965H270.006Z" fill="#EEE6DB" style="fill:#EEE6DB;fill:color(display-p3 0.9333 0.9020 0.8588);fill-opacity:1;"/>
<path d="M255.364 87.1768C254.532 87.1768 253.808 87.0285 253.192 86.7321C252.576 86.4299 252.123 85.9852 251.832 85.3979C251.547 84.8106 251.476 84.0865 251.618 83.2256C251.744 82.4844 251.983 81.8715 252.337 81.3869C252.696 80.9022 253.135 80.5145 253.654 80.2237C254.178 79.9273 254.748 79.7049 255.364 79.5567C255.986 79.4084 256.618 79.3001 257.263 79.2317C258.049 79.1519 258.685 79.0777 259.17 79.0093C259.66 78.9409 260.028 78.8383 260.273 78.7014C260.518 78.5589 260.667 78.3422 260.718 78.0515V78.0001C260.82 77.3559 260.718 76.857 260.41 76.5035C260.102 76.15 259.589 75.9732 258.871 75.9732C258.118 75.9732 257.485 76.1386 256.972 76.4693C256.459 76.8 256.085 77.1905 255.852 77.6409L253.046 77.2304C253.4 76.4322 253.885 75.7651 254.5 75.2292C255.116 74.6875 255.826 74.2827 256.63 74.0148C257.439 73.7411 258.303 73.6042 259.221 73.6042C259.848 73.6042 260.461 73.6784 261.06 73.8266C261.664 73.9748 262.197 74.22 262.659 74.5621C263.127 74.8985 263.469 75.3575 263.685 75.939C263.908 76.5206 263.945 77.2475 263.797 78.1199L262.334 86.9117H259.358L259.666 85.1071H259.563C259.318 85.472 258.999 85.8141 258.605 86.1334C258.212 86.447 257.744 86.7007 257.203 86.8946C256.661 87.0827 256.048 87.1768 255.364 87.1768ZM256.536 84.9019C257.157 84.9019 257.716 84.7793 258.212 84.5341C258.708 84.2832 259.116 83.9526 259.435 83.542C259.754 83.1315 259.954 82.684 260.034 82.1993L260.29 80.6514C260.176 80.7312 259.999 80.8053 259.76 80.8737C259.52 80.9421 259.253 81.002 258.956 81.0533C258.665 81.1046 258.377 81.1502 258.092 81.1902C257.807 81.2301 257.562 81.2643 257.357 81.2928C256.884 81.3555 256.45 81.4581 256.057 81.6007C255.669 81.7432 255.347 81.9428 255.09 82.1993C254.84 82.4502 254.683 82.7752 254.62 83.1743C254.529 83.7387 254.663 84.1692 255.022 84.4657C255.381 84.7565 255.886 84.9019 256.536 84.9019Z" fill="#EEE6DB" style="fill:#EEE6DB;fill:color(display-p3 0.9333 0.9020 0.8588);fill-opacity:1;"/>
<path d="M240.796 86.3472C241.657 86.8946 242.746 87.1682 244.063 87.1682C245.09 87.1682 246.022 87.0143 246.86 86.7064C247.704 86.3928 248.428 85.9538 249.032 85.3893C249.637 84.8192 250.095 84.1521 250.409 83.3881L247.578 83.0631C247.373 83.4337 247.116 83.7473 246.809 84.0039C246.506 84.2547 246.161 84.4429 245.774 84.5683C245.386 84.6938 244.964 84.7565 244.508 84.7565C243.812 84.7565 243.237 84.6339 242.78 84.3887C242.324 84.1436 242.005 83.7616 241.823 83.2427C241.64 82.7239 241.612 82.0539 241.737 81.2329L241.745 81.1902H250.905L251.051 80.2408C251.244 79.0891 251.253 78.0971 251.076 77.2646C250.899 76.4265 250.577 75.7366 250.11 75.195C249.642 74.6533 249.069 74.2542 248.391 73.9977C247.712 73.7354 246.968 73.6042 246.159 73.6042C244.91 73.6042 243.77 73.8922 242.738 74.468C241.711 75.0382 240.856 75.8364 240.172 76.8627C239.488 77.8833 239.034 79.0692 238.812 80.4204C238.584 81.7945 238.641 82.989 238.983 84.0039C239.331 85.013 239.935 85.7942 240.796 86.3472ZM242.113 79.1034C242.222 78.6084 242.441 78.1352 242.772 77.6837C243.131 77.1934 243.573 76.7943 244.097 76.4864C244.628 76.1728 245.198 76.016 245.808 76.016C246.407 76.016 246.905 76.15 247.305 76.418C247.704 76.6859 247.989 77.0537 248.16 77.5212C248.331 77.983 248.365 78.5104 248.262 79.1034H242.113Z" fill="#EEE6DB" style="fill:#EEE6DB;fill:color(display-p3 0.9333 0.9020 0.8588);fill-opacity:1;"/>
<path d="M229.095 79.2145L227.829 86.9116H224.725L227.632 69.3965H230.668L229.574 76.0074H229.736C230.152 75.2605 230.72 74.6733 231.438 74.2456C232.162 73.818 233.032 73.6042 234.047 73.6042C234.947 73.6042 235.706 73.7952 236.322 74.1772C236.937 74.5592 237.371 75.118 237.622 75.8535C237.878 76.589 237.921 77.487 237.75 78.5475L236.347 86.9116H233.243L234.56 79.0264C234.702 78.1427 234.585 77.4556 234.209 76.9653C233.839 76.4693 233.251 76.2212 232.447 76.2212C231.894 76.2212 231.384 76.341 230.916 76.5804C230.449 76.8142 230.056 77.1534 229.736 77.5982C229.423 78.0429 229.209 78.5817 229.095 79.2145Z" fill="#EEE6DB" style="fill:#EEE6DB;fill:color(display-p3 0.9333 0.9020 0.8588);fill-opacity:1;"/>
<path d="M218.47 77.2475L215.622 77.5554C215.593 77.2646 215.505 76.9938 215.357 76.7429C215.209 76.4921 214.986 76.2925 214.69 76.1443C214.399 75.9903 214.023 75.9134 213.561 75.9134C212.888 75.9134 212.298 76.0645 211.791 76.3666C211.283 76.6688 210.995 77.0565 210.927 77.5298C210.864 77.8833 210.95 78.1712 211.183 78.3935C211.417 78.6159 211.85 78.8041 212.483 78.958L214.656 79.4369C215.853 79.7049 216.714 80.1382 217.238 80.7369C217.769 81.3355 217.954 82.1195 217.794 83.0888C217.657 83.8984 217.304 84.6111 216.734 85.2269C216.164 85.8369 215.434 86.313 214.544 86.6551C213.661 86.9972 212.68 87.1682 211.602 87.1682C209.966 87.1682 208.706 86.829 207.822 86.1505C206.944 85.4663 206.508 84.5256 206.514 83.3282L209.558 83.0375C209.593 83.6304 209.801 84.078 210.183 84.3802C210.565 84.6767 211.095 84.8277 211.773 84.8334C212.537 84.8391 213.182 84.6795 213.706 84.3545C214.236 84.0238 214.536 83.6219 214.604 83.1486C214.661 82.7951 214.573 82.5072 214.339 82.2849C214.111 82.0625 213.703 81.8857 213.116 81.7546L210.961 81.2842C209.741 81.0163 208.871 80.563 208.352 79.9244C207.839 79.2801 207.665 78.4677 207.831 77.487C207.968 76.6888 208.301 76.0017 208.831 75.4259C209.367 74.8443 210.054 74.3968 210.893 74.0832C211.731 73.7639 212.669 73.6042 213.706 73.6042C215.268 73.6042 216.446 73.9321 217.238 74.5878C218.031 75.2434 218.441 76.13 218.47 77.2475Z" fill="#EEE6DB" style="fill:#EEE6DB;fill:color(display-p3 0.9333 0.9020 0.8588);fill-opacity:1;"/>
<path d="M197.85 87.1768C197.017 87.1768 196.293 87.0285 195.678 86.7321C195.062 86.4299 194.609 85.9852 194.318 85.3979C194.033 84.8106 193.961 84.0865 194.104 83.2256C194.229 82.4844 194.469 81.8715 194.822 81.3869C195.182 80.9022 195.621 80.5145 196.139 80.2237C196.664 79.9273 197.234 79.7049 197.85 79.5567C198.471 79.4084 199.104 79.3001 199.749 79.2317C200.535 79.1519 201.171 79.0777 201.656 79.0093C202.146 78.9409 202.514 78.8383 202.759 78.7014C203.004 78.5589 203.152 78.3422 203.204 78.0515V78.0001C203.306 77.3559 203.204 76.857 202.896 76.5035C202.588 76.15 202.075 75.9732 201.356 75.9732C200.604 75.9732 199.971 76.1386 199.458 76.4693C198.945 76.8 198.571 77.1905 198.337 77.6409L195.532 77.2304C195.886 76.4322 196.37 75.7651 196.986 75.2292C197.602 74.6875 198.312 74.2827 199.116 74.0148C199.925 73.7411 200.789 73.6042 201.707 73.6042C202.334 73.6042 202.947 73.6784 203.546 73.8266C204.15 73.9748 204.683 74.22 205.145 74.5621C205.613 74.8985 205.955 75.3575 206.171 75.939C206.394 76.5206 206.431 77.2475 206.282 78.1199L204.82 86.9117H201.844L202.152 85.1071H202.049C201.804 85.472 201.485 85.8141 201.091 86.1334C200.698 86.447 200.23 86.7007 199.689 86.8946C199.147 87.0827 198.534 87.1768 197.85 87.1768ZM199.022 84.9019C199.643 84.9019 200.202 84.7793 200.698 84.5341C201.194 84.2832 201.602 83.9526 201.921 83.542C202.24 83.1315 202.44 82.684 202.519 82.1993L202.776 80.6514C202.662 80.7312 202.485 80.8053 202.246 80.8737C202.006 80.9421 201.738 81.002 201.442 81.0533C201.151 81.1046 200.863 81.1502 200.578 81.1902C200.293 81.2301 200.048 81.2643 199.843 81.2928C199.369 81.3555 198.936 81.4581 198.543 81.6007C198.155 81.7432 197.833 81.9428 197.576 82.1993C197.325 82.4502 197.169 82.7752 197.106 83.1743C197.015 83.7387 197.149 84.1692 197.508 84.4657C197.867 84.7565 198.372 84.9019 199.022 84.9019Z" fill="#EEE6DB" style="fill:#EEE6DB;fill:color(display-p3 0.9333 0.9020 0.8588);fill-opacity:1;"/>
<path d="M178.758 87.1425C177.726 87.1425 176.845 86.8774 176.115 86.3472C175.386 85.8169 174.867 85.0472 174.559 84.0381C174.257 83.0289 174.222 81.8031 174.456 80.3606C174.701 78.901 175.149 77.6694 175.799 76.666C176.449 75.6568 177.224 74.8956 178.125 74.3825C179.032 73.8636 179.99 73.6042 180.999 73.6042C181.774 73.6042 182.387 73.7354 182.837 73.9976C183.294 74.2542 183.636 74.5649 183.864 74.9298C184.092 75.289 184.26 75.6283 184.368 75.9476H184.497L185.583 69.3965H188.687L185.779 86.9116H182.735L183.085 84.842H182.897C182.681 85.1613 182.393 85.5005 182.034 85.8597C181.674 86.2132 181.227 86.5154 180.691 86.7662C180.155 87.0171 179.511 87.1425 178.758 87.1425ZM179.99 84.6025C180.651 84.6025 181.244 84.4258 181.768 84.0723C182.299 83.7131 182.741 83.2142 183.094 82.5756C183.448 81.937 183.696 81.193 183.838 80.3435C183.981 79.4939 183.981 78.7556 183.838 78.1284C183.696 77.5012 183.419 77.0138 183.008 76.666C182.598 76.3182 182.059 76.1443 181.392 76.1443C180.708 76.1443 180.106 76.3239 179.588 76.6831C179.074 77.0423 178.652 77.5383 178.322 78.1712C177.991 78.804 177.757 79.5281 177.621 80.3435C177.484 81.1645 177.475 81.8971 177.595 82.5414C177.72 83.18 177.98 83.6846 178.373 84.0552C178.772 84.4201 179.311 84.6025 179.99 84.6025Z" fill="#EEE6DB" style="fill:#EEE6DB;fill:color(display-p3 0.9333 0.9020 0.8588);fill-opacity:1;"/>
<path d="M166.216 87.1682C164.922 87.1682 163.845 86.8831 162.984 86.313C162.128 85.7428 161.527 84.9418 161.179 83.9098C160.831 82.8778 160.769 81.6805 160.991 80.3178C161.213 78.9723 161.658 77.7949 162.325 76.7857C162.998 75.7765 163.845 74.9954 164.865 74.4424C165.891 73.8836 167.04 73.6042 168.312 73.6042C169.606 73.6042 170.681 73.8922 171.536 74.468C172.391 75.0382 172.993 75.8393 173.34 76.8712C173.694 77.9032 173.76 79.1062 173.537 80.4803C173.321 81.8202 172.873 82.9918 172.194 83.9953C171.522 84.9988 170.675 85.7799 169.654 86.3387C168.634 86.8917 167.488 87.1682 166.216 87.1682ZM166.473 84.6881C167.191 84.6881 167.821 84.4942 168.363 84.1065C168.91 83.7131 169.358 83.1857 169.706 82.5243C170.059 81.8572 170.304 81.116 170.441 80.3007C170.567 79.5139 170.57 78.8012 170.45 78.1626C170.33 77.5184 170.073 77.0081 169.68 76.6318C169.292 76.2498 168.754 76.0588 168.064 76.0588C167.345 76.0588 166.71 76.2583 166.157 76.6574C165.609 77.0508 165.162 77.5811 164.814 78.2482C164.466 78.9095 164.227 79.6479 164.095 80.4632C163.964 81.25 163.959 81.9627 164.078 82.6013C164.198 83.2399 164.455 83.7473 164.848 84.1236C165.241 84.4999 165.783 84.6881 166.473 84.6881Z" fill="#EEE6DB" style="fill:#EEE6DB;fill:color(display-p3 0.9333 0.9020 0.8588);fill-opacity:1;"/>
<path d="M152.769 87.1682C151.474 87.1682 150.397 86.8831 149.536 86.313C148.681 85.7428 148.079 84.9418 147.731 83.9098C147.384 82.8778 147.321 81.6805 147.543 80.3178C147.766 78.9723 148.21 77.7949 148.877 76.7857C149.55 75.7765 150.397 74.9954 151.417 74.4424C152.444 73.8836 153.593 73.6042 154.864 73.6042C156.158 73.6042 157.233 73.8922 158.088 74.468C158.943 75.0382 159.545 75.8393 159.893 76.8712C160.246 77.9032 160.312 79.1062 160.089 80.4803C159.873 81.8202 159.425 82.9918 158.747 83.9953C158.074 84.9988 157.227 85.7799 156.207 86.3387C155.186 86.8917 154.04 87.1682 152.769 87.1682ZM153.025 84.6881C153.744 84.6881 154.374 84.4942 154.915 84.1065C155.463 83.7131 155.91 83.1857 156.258 82.5243C156.611 81.8572 156.857 81.116 156.993 80.3007C157.119 79.5139 157.122 78.8012 157.002 78.1626C156.882 77.5184 156.626 77.0081 156.232 76.6318C155.845 76.2498 155.306 76.0588 154.616 76.0588C153.898 76.0588 153.262 76.2583 152.709 76.6574C152.161 77.0508 151.714 77.5811 151.366 78.2482C151.018 78.9095 150.779 79.6479 150.648 80.4632C150.517 81.25 150.511 81.9627 150.631 82.6013C150.75 83.2399 151.007 83.7473 151.4 84.1236C151.794 84.4999 152.335 84.6881 153.025 84.6881Z" fill="#EEE6DB" style="fill:#EEE6DB;fill:color(display-p3 0.9333 0.9020 0.8588);fill-opacity:1;"/>
<path fill-rule="evenodd" clip-rule="evenodd" d="M145.715 73.7753L145.886 72.7404C145.978 72.2273 146.166 71.8339 146.451 71.5602C146.736 71.2808 147.166 71.1411 147.742 71.1411C147.987 71.1411 148.201 71.1639 148.384 71.2096C148.572 71.2495 148.732 71.2894 148.863 71.3293L149.863 68.9346C149.681 68.8662 149.39 68.7892 148.991 68.7037C148.592 68.6182 148.121 68.5754 147.58 68.5754C146.821 68.5754 146.106 68.7208 145.433 69.0116C144.766 69.3024 144.199 69.7414 143.731 70.3287C143.269 70.9159 142.97 71.6514 142.833 72.5352L142.626 73.7753H140.687L140.285 76.1699H142.226L140.43 86.9116H143.535L145.317 76.1699H148.05L148.452 73.7753H145.715Z" fill="#EEE6DB" style="fill:#EEE6DB;fill:color(display-p3 0.9333 0.9020 0.8588);fill-opacity:1;"/>
<path d="M78.2841 52.8088C74.9105 52.8088 72.0227 52.1409 69.6207 50.8049C67.2187 49.4555 65.3768 47.5798 64.0948 45.1778C62.8129 42.7623 62.1719 39.9622 62.1719 36.7776C62.1719 33.5929 62.8129 30.7996 64.0948 28.3976C65.3768 25.9821 67.2187 24.1064 69.6207 22.7705C72.0227 21.4211 74.9105 20.7463 78.2841 20.7463C81.3338 20.7463 83.9719 21.2996 86.1985 22.4061C88.4386 23.4992 90.1726 25.051 91.4006 27.0617C92.6285 29.0588 93.2493 31.4069 93.2628 34.1057L82.8991 34.1057C82.7507 32.4729 82.2784 31.2314 81.4822 30.3813C80.6996 29.5176 79.6875 29.0858 78.446 29.0858C77.4744 29.0858 76.6243 29.3692 75.8956 29.936C75.1669 30.4892 74.6001 31.3326 74.1953 32.4662C73.7905 33.5862 73.5881 34.9963 73.5881 36.6966C73.5881 38.3969 73.7905 39.8138 74.1953 40.9473C74.6001 42.0674 75.1669 42.9108 75.8956 43.4775C76.6243 44.0308 77.4744 44.3074 78.446 44.3074C79.2692 44.3074 79.9979 44.1185 80.6321 43.7407C81.2663 43.3493 81.7791 42.7826 82.1705 42.0404C82.5753 41.2847 82.8182 40.3671 82.8991 39.2875L93.2628 39.2875C93.2223 42.0269 92.5948 44.4154 91.3803 46.453C90.1658 48.4772 88.4453 50.0425 86.2187 51.149C84.0057 52.2556 81.3608 52.8088 78.2841 52.8088Z" fill="#EEE6DB" style="fill:#EEE6DB;fill:color(display-p3 0.9333 0.9020 0.8588);fill-opacity:1;"/>
<path d="M102.94 50.9061C105.342 52.1746 108.202 52.8088 111.522 52.8088C114.396 52.8088 116.906 52.377 119.052 51.5134C121.211 50.6363 122.945 49.4083 124.254 47.8294C125.563 46.2371 126.393 44.3614 126.744 42.2023L116.542 42.2023C116.326 42.7826 115.989 43.2819 115.53 43.7002C115.071 44.105 114.518 44.4154 113.87 44.6313C113.236 44.8472 112.534 44.9551 111.765 44.9551C110.658 44.9551 109.714 44.7325 108.931 44.2872C108.148 43.8419 107.548 43.2279 107.13 42.4452C106.711 41.6625 106.502 40.7719 106.502 39.7733L106.502 39.2875L126.744 39.2875L126.744 36.6966C126.744 34.2272 126.379 32.0073 125.651 30.0372C124.922 28.067 123.883 26.3937 122.533 25.0173C121.184 23.6274 119.558 22.5681 117.655 21.8394C115.752 21.1107 113.627 20.7463 111.279 20.7463C108.067 20.7463 105.281 21.4143 102.919 22.7502C100.558 24.0862 98.7294 25.9551 97.4339 28.3571C96.1385 30.7591 95.4907 33.5659 95.4907 36.7776C95.4907 40.1242 96.1317 42.9985 97.4137 45.4005C98.7091 47.789 100.551 49.6242 102.94 50.9061ZM106.502 33.1341C106.529 32.23 106.765 31.4406 107.211 30.7659C107.669 30.0912 108.277 29.5649 109.032 29.187C109.788 28.7957 110.618 28.6 111.522 28.6C112.453 28.6 113.283 28.7957 114.012 29.187C114.754 29.5649 115.341 30.0979 115.773 30.7861C116.218 31.4608 116.447 32.2435 116.461 33.1341L106.502 33.1341Z" fill="#EEE6DB" style="fill:#EEE6DB;fill:color(display-p3 0.9333 0.9020 0.8588);fill-opacity:1;"/>
<path d="M141.091 34.8343L141.091 52.3229L129.917 52.3229L129.917 21.232L140.524 21.232L140.524 27.1425L140.848 27.1425C141.523 25.1723 142.71 23.6272 144.41 22.5072C146.124 21.3872 148.121 20.8272 150.402 20.8272C152.601 20.8272 154.511 21.3332 156.13 22.3453C157.763 23.3438 159.025 24.7203 159.915 26.4745C160.819 28.2288 161.265 30.2327 161.251 32.4862L161.251 52.3229L150.078 52.3229L150.078 34.8343C150.091 33.2959 149.7 32.0882 148.904 31.211C148.121 30.3339 147.028 29.8953 145.625 29.8953C144.707 29.8953 143.904 30.0977 143.216 30.5026C142.541 30.8939 142.022 31.4607 141.658 32.2029C141.293 32.9316 141.104 33.8087 141.091 34.8343Z" fill="#EEE6DB" style="fill:#EEE6DB;fill:color(display-p3 0.9333 0.9020 0.8588);fill-opacity:1;"/>
<path d="M173.504 52.8087C171.52 52.8087 169.766 52.4848 168.241 51.8371C166.73 51.1759 165.542 50.1773 164.679 48.8414C163.815 47.5054 163.383 45.8051 163.383 43.7405C163.383 42.0402 163.673 40.5896 164.254 39.3886C164.834 38.1741 165.644 37.1823 166.683 36.4131C167.722 35.6439 168.929 35.0569 170.306 34.6521C171.696 34.2472 173.194 33.9841 174.799 33.8627C176.54 33.7277 177.937 33.5658 178.989 33.3769C180.056 33.1745 180.825 32.8978 181.297 32.547C181.769 32.1826 182.005 31.7036 182.005 31.1098L182.005 31.0289C182.005 30.2192 181.695 29.5985 181.074 29.1666C180.454 28.7348 179.657 28.5189 178.686 28.5189C177.62 28.5189 176.749 28.7551 176.075 29.2274C175.413 29.6862 175.015 30.3946 174.88 31.3527L164.598 31.3527C164.733 29.4635 165.333 27.7227 166.399 26.1304C167.479 24.5246 169.051 23.2426 171.116 22.2845C173.18 21.3129 175.758 20.8272 178.848 20.8272C181.074 20.8272 183.072 21.0903 184.839 21.6166C186.607 22.1294 188.112 22.8513 189.353 23.7824C190.595 24.7 191.539 25.7796 192.187 27.021C192.848 28.249 193.179 29.585 193.179 31.0289L193.179 52.3229L182.734 52.3229L182.734 47.9507L182.491 47.9507C181.871 49.1112 181.115 50.0491 180.224 50.7643C179.347 51.4795 178.342 51.999 177.208 52.3229C176.088 52.6468 174.853 52.8087 173.504 52.8087ZM177.148 45.7647C177.998 45.7647 178.794 45.5892 179.536 45.2384C180.292 44.8875 180.906 44.3815 181.378 43.7203C181.85 43.059 182.086 42.2561 182.086 41.3115L182.086 38.7206C181.79 38.8421 181.472 38.9568 181.135 39.0647C180.811 39.1727 180.46 39.2739 180.083 39.3683C179.718 39.4628 179.327 39.5505 178.909 39.6315C178.504 39.7124 178.079 39.7867 177.633 39.8541C176.77 39.9891 176.061 40.2117 175.508 40.5221C174.968 40.819 174.563 41.1901 174.293 41.6354C174.037 42.0672 173.909 42.553 173.909 43.0928C173.909 43.9564 174.212 44.6176 174.82 45.0764C175.427 45.5352 176.203 45.7647 177.148 45.7647Z" fill="#EEE6DB" style="fill:#EEE6DB;fill:color(display-p3 0.9333 0.9020 0.8588);fill-opacity:1;"/>
<path d="M205.644 33.6196L205.644 52.3227L200.867 52.3227L200.867 10.8682L205.644 10.8682L205.644 26.0898L206.049 26.0898C206.778 24.4839 207.871 23.2087 209.328 22.2641C210.799 21.306 212.756 20.827 215.198 20.827C217.317 20.827 219.172 21.252 220.765 22.1022C222.357 22.9388 223.592 24.2275 224.469 25.9683C225.359 27.6956 225.805 29.8952 225.805 32.567L225.805 52.3227L221.028 52.3227L221.028 32.8909C221.028 30.4214 220.387 28.512 219.105 27.1626C217.836 25.7996 216.075 25.1182 213.822 25.1182C212.256 25.1182 210.853 25.4488 209.612 26.11C208.384 26.7712 207.412 27.7361 206.697 29.0045C205.995 30.273 205.644 31.8113 205.644 33.6196Z" fill="#EEE6DB" style="fill:#EEE6DB;fill:color(display-p3 0.9333 0.9020 0.8588);fill-opacity:1;"/>
<path d="M234.67 50.8251C236.842 52.1475 239.426 52.8088 242.422 52.8088C244.527 52.8088 246.423 52.4849 248.11 51.8372C249.797 51.1759 251.214 50.2583 252.361 49.0843C253.508 47.8968 254.324 46.5204 254.81 44.9551L250.195 43.6596C249.79 44.7392 249.216 45.6433 248.474 46.372C247.732 47.0872 246.848 47.6269 245.823 47.9913C244.811 48.3421 243.677 48.5176 242.422 48.5176C240.492 48.5176 238.799 48.0992 237.341 47.2626C235.884 46.4124 234.744 45.1777 233.921 43.5584C233.187 42.0779 232.785 40.3034 232.717 38.2349L255.296 38.2349L255.296 36.2107C255.296 33.3095 254.911 30.867 254.142 28.8833C253.373 26.8997 252.34 25.3073 251.045 24.1063C249.75 22.8918 248.312 22.0147 246.734 21.4749C245.155 20.9352 243.556 20.6653 241.936 20.6653C239.129 20.6653 236.674 21.3535 234.568 22.7299C232.477 24.0928 230.844 25.9955 229.67 28.438C228.509 30.867 227.929 33.6738 227.929 36.8585C227.929 40.0431 228.509 42.8364 229.67 45.2384C230.844 47.6269 232.511 49.4891 234.67 50.8251ZM232.729 34.1056C232.82 32.6634 233.183 31.3005 233.819 30.0168C234.562 28.519 235.621 27.3045 236.997 26.3734C238.387 25.4288 240.034 24.9565 241.936 24.9565C243.664 24.9565 245.161 25.3546 246.43 26.1507C247.712 26.9469 248.697 28.0332 249.385 29.4096C250.087 30.786 250.438 32.3514 250.438 34.1056L232.729 34.1056Z" fill="#EEE6DB" style="fill:#EEE6DB;fill:color(display-p3 0.9333 0.9020 0.8588);fill-opacity:1;"/>
<path d="M267.921 52.8087C265.951 52.8087 264.163 52.4376 262.557 51.6954C260.951 50.9397 259.676 49.8534 258.731 48.4365C257.787 47.0061 257.314 45.2788 257.314 43.2547C257.314 41.4734 257.665 40.0295 258.367 38.923C259.068 37.803 260.006 36.9258 261.18 36.2916C262.354 35.6574 263.65 35.1851 265.067 34.8747C266.497 34.5508 267.934 34.2945 269.378 34.1055C271.267 33.8626 272.799 33.6805 273.973 33.559C275.16 33.4241 276.024 33.2014 276.564 32.891C277.117 32.5807 277.394 32.0409 277.394 31.2717L277.394 31.1098C277.394 29.1126 276.847 27.5608 275.754 26.4543C274.675 25.3477 273.035 24.7945 270.836 24.7945C268.555 24.7945 266.767 25.2937 265.472 26.2923C264.176 27.2909 263.265 28.357 262.739 29.4905L258.205 27.8712C259.014 25.982 260.094 24.5111 261.443 23.4585C262.806 22.3925 264.291 21.6503 265.897 21.232C267.516 20.8001 269.108 20.5842 270.674 20.5842C271.672 20.5842 272.819 20.7057 274.115 20.9486C275.424 21.178 276.685 21.657 277.9 22.3857C279.128 23.1144 280.147 24.2142 280.956 25.6851C281.766 27.156 282.171 29.1261 282.171 31.5956L282.171 52.08L277.394 52.08L277.394 47.8697L277.151 47.8697C276.827 48.5445 276.287 49.2664 275.532 50.0356C274.776 50.8048 273.771 51.4592 272.516 51.999C271.261 52.5388 269.729 52.8087 267.921 52.8087ZM268.649 48.5175C270.539 48.5175 272.131 48.1464 273.426 47.4042C274.735 46.662 275.72 45.7039 276.382 44.5299C277.056 43.3559 277.394 42.1212 277.394 40.8257L277.394 36.4535C277.191 36.6964 276.746 36.9191 276.058 37.1215C275.383 37.3104 274.6 37.4791 273.71 37.6276C272.833 37.7625 271.976 37.8839 271.139 37.9919C270.316 38.0864 269.648 38.1673 269.135 38.2348C267.894 38.3967 266.733 38.6599 265.654 39.0242C264.588 39.3751 263.724 39.9081 263.063 40.6233C262.415 41.325 262.091 42.2831 262.091 43.4976C262.091 45.1574 262.705 46.4124 263.933 47.2625C265.175 48.0991 266.747 48.5175 268.649 48.5175Z" fill="#EEE6DB" style="fill:#EEE6DB;fill:color(display-p3 0.9333 0.9020 0.8588);fill-opacity:1;"/>
<path d="M290.704 10.8682L290.704 52.3227L285.927 52.3227L285.927 10.8682L290.704 10.8682Z" fill="#EEE6DB" style="fill:#EEE6DB;fill:color(display-p3 0.9333 0.9020 0.8588);fill-opacity:1;"/>
<path fill-rule="evenodd" clip-rule="evenodd" d="M298.297 13.7832L303.074 13.7832L303.074 21.2321L309.714 21.2321L309.714 25.2804L303.074 25.2804L303.074 43.4167C303.074 44.7662 303.27 45.7782 303.661 46.4529C304.066 47.1142 304.579 47.5595 305.2 47.7889C305.834 48.0048 306.502 48.1127 307.204 48.1127C307.73 48.1127 308.162 48.0858 308.499 48.0318L309.309 47.8699L310.28 52.161C309.956 52.2825 309.504 52.4039 308.924 52.5254C308.344 52.6603 307.608 52.7278 306.718 52.7278C305.368 52.7278 304.046 52.4377 302.75 51.8574C301.468 51.2772 300.402 50.3933 299.552 49.2058C298.716 48.0183 298.297 46.5204 298.297 44.7122L298.297 25.2804L293.601 25.2804L293.601 21.2321L298.297 21.2321L298.297 13.7832Z" fill="#EEE6DB" style="fill:#EEE6DB;fill:color(display-p3 0.9333 0.9020 0.8588);fill-opacity:1;"/>
<path d="M317.741 33.6196L317.741 52.3227L312.964 52.3227L312.964 10.8682L317.741 10.8682L317.741 26.0898L318.146 26.0898C318.875 24.4839 319.968 23.2087 321.425 22.2641C322.896 21.306 324.853 20.827 327.295 20.827C329.414 20.827 331.269 21.252 332.862 22.1022C334.454 22.9388 335.689 24.2275 336.566 25.9683C337.457 27.6956 337.902 29.8952 337.902 32.567L337.902 52.3227L333.125 52.3227L333.125 32.8909C333.125 30.4214 332.484 28.512 331.202 27.1626C329.933 25.7996 328.172 25.1182 325.919 25.1182C324.354 25.1182 322.95 25.4488 321.709 26.11C320.481 26.7712 319.509 27.7361 318.794 29.0045C318.092 30.273 317.741 31.8113 317.741 33.6196Z" fill="#EEE6DB" style="fill:#EEE6DB;fill:color(display-p3 0.9333 0.9020 0.8588);fill-opacity:1;"/>
<path fill-rule="evenodd" clip-rule="evenodd" d="M31.9822 10.73C34 10.73 35.7736 11.1364 37.3041 11.9491C38.826 12.7618 40.0144 13.9294 40.8695 15.4522C41.4398 16.4781 41.8178 17.6441 42.0038 18.9497C43.272 18.7395 44.4704 18.7458 45.5989 18.972C47.3079 19.307 48.7852 20.0774 50.0306 21.2826C51.2734 22.4798 52.2064 24.0387 52.83 25.9589C53.4535 27.8791 53.6158 29.6929 53.3162 31.4005C53.014 33.0999 52.2713 34.592 51.0881 35.8762C50.2849 36.7404 49.2867 37.4625 48.095 38.0445C48.6892 39.189 49.0538 40.3343 49.1879 41.4808C49.3976 43.2106 49.1218 44.8544 48.3611 46.4121C47.6073 47.9647 46.4145 49.3346 44.782 50.5214C43.1495 51.7081 41.4751 52.4227 39.7595 52.6653C38.0508 52.9029 36.4029 52.6572 34.8166 51.9281C34.617 51.8353 34.4201 51.7346 34.2258 51.6258C33.4351 51.1834 32.6878 50.609 31.9822 49.9035C31.1031 50.7824 30.1585 51.4578 29.1469 51.9281C27.5605 52.6572 25.9128 52.9029 24.2041 52.6653C22.4885 52.4227 20.8144 51.7081 19.182 50.5214C17.5495 49.3346 16.3562 47.9647 15.6023 46.4121C14.8416 44.8545 14.566 43.2105 14.7757 41.4808C14.9098 40.3344 15.2751 39.1895 15.8692 38.0451C14.6773 37.463 13.6794 36.7405 12.8761 35.8762C11.6929 34.592 10.95 33.0999 10.6478 31.4005C10.3482 29.6929 10.5102 27.879 11.1336 25.9589C11.7572 24.0387 12.6907 22.4798 13.9335 21.2826C15.179 20.0774 16.6562 19.3069 18.3653 18.972C19.4937 18.7459 20.6917 18.7395 21.9598 18.9497C22.1458 17.6441 22.5236 16.4782 23.0939 15.4522C23.9489 13.9294 25.1375 12.7618 26.6593 11.9491C28.1898 11.1363 29.9643 10.73 31.9822 10.73ZM31.9824 14.933C30.3681 14.933 28.9485 15.2579 27.7241 15.9081C26.5067 16.5583 25.556 17.4924 24.8721 18.7105C24.4158 19.5313 24.1136 20.4641 23.9647 21.5085C22.9503 21.3404 21.9919 21.3455 21.0892 21.5264C19.722 21.7943 18.5402 22.4106 17.5438 23.3748C16.5496 24.3325 15.8027 25.5796 15.3039 27.1157C14.8051 28.6518 14.6757 30.1029 14.9153 31.4688C15.1571 32.8283 15.7513 34.0221 16.6978 35.0494C17.3404 35.7408 18.1388 36.3186 19.0923 36.7843C18.617 37.6998 18.3249 38.6157 18.2177 39.5328C18.0499 40.9166 18.2704 42.2316 18.8789 43.4777C19.482 44.7198 20.4365 45.8156 21.7425 46.765C23.0484 47.7143 24.3876 48.2861 25.76 48.4802C27.1269 48.6703 28.4452 48.4737 29.7142 47.8904C30.5235 47.5142 31.2791 46.9739 31.9824 46.2708C32.5469 46.8351 33.1448 47.2946 33.7772 47.6485C33.9327 47.7355 34.0901 47.8162 34.2498 47.8904C35.5188 48.4737 36.8371 48.6703 38.204 48.4802C39.5765 48.2862 40.916 47.7144 42.2219 46.765C43.5278 45.8156 44.482 44.7197 45.085 43.4777C45.6936 42.2316 45.9143 40.9166 45.7465 39.5328C45.6392 38.6156 45.3476 37.6995 44.8723 36.7839C45.8256 36.3183 46.624 35.7408 47.2665 35.0494C48.2131 34.0221 48.8072 32.8283 49.049 31.4688C49.2887 30.1029 49.1589 28.6518 48.6601 27.1157C48.1613 25.5796 47.4147 24.3325 46.4205 23.3748C45.4242 22.4106 44.2425 21.7944 42.8754 21.5264C41.9726 21.3455 41.0138 21.3403 39.9993 21.5085C39.8504 20.4641 39.5482 19.5313 39.0919 18.7105C38.4079 17.4924 37.4573 16.5583 36.2398 15.9081C35.0155 15.258 33.5966 14.933 31.9824 14.933Z" fill="#F5EEE5" style="fill:#F5EEE5;fill:color(display-p3 0.9608 0.9333 0.8980);fill-opacity:1;"/>
<path fill-rule="evenodd" clip-rule="evenodd" d="M31.9809 14.9319C33.5952 14.9319 35.014 15.257 36.2384 15.9072C37.4559 16.5574 38.4066 17.4914 39.0907 18.7096C39.5469 19.5303 39.8491 20.463 39.998 21.5074C41.0125 21.3392 41.9713 21.3444 42.8741 21.5253C44.2412 21.7933 45.4229 22.4096 46.4192 23.3737C47.4135 24.3314 48.1598 25.5786 48.6586 27.1146C49.1574 28.6507 49.2874 30.1019 49.0477 31.4679C48.806 32.8274 48.2118 34.021 47.2653 35.0483C46.6227 35.7397 45.8242 36.3172 44.8708 36.7828C45.3462 37.6983 45.6378 38.6146 45.745 39.5317C45.9128 40.9155 45.6924 42.2307 45.0838 43.4768C44.4807 44.7188 43.5265 45.8147 42.2206 46.7641C40.9147 47.7135 39.575 48.2851 38.2026 48.4791C36.8356 48.6692 35.5175 48.4726 34.2485 47.8893C34.0888 47.8151 33.9312 47.7346 33.7758 47.6476C33.1433 47.2937 32.5454 46.8341 31.9809 46.2697C31.2776 46.9728 30.522 47.5131 29.7127 47.8893C28.4437 48.4726 27.1256 48.6692 25.7587 48.4791C24.3863 48.285 23.0471 47.7134 21.7412 46.7641C20.4352 45.8147 19.4807 44.7188 18.8777 43.4768C18.2691 42.2307 18.0484 40.9155 18.2162 39.5317C18.3235 38.6146 18.6157 37.6988 19.091 36.7834C18.1375 36.3177 17.3391 35.7397 16.6965 35.0483C15.75 34.021 15.1558 32.8274 14.9141 31.4679C14.6744 30.1019 14.8038 28.6507 15.3026 27.1146C15.8014 25.5785 16.5483 24.3314 17.5426 23.3737C18.5389 22.4096 19.7206 21.7933 21.0877 21.5253C21.9904 21.3444 22.9489 21.3393 23.9632 21.5074C24.1121 20.463 24.4144 19.5303 24.8706 18.7096C25.5545 17.4914 26.5054 16.5574 27.7229 15.9072C28.9472 15.257 30.3667 14.9319 31.9809 14.9319ZM31.9805 18.2927C30.689 18.2927 29.5534 18.5528 28.5738 19.073C27.5999 19.5931 26.8392 20.3403 26.292 21.3149C25.9269 21.9715 25.685 22.7179 25.5659 23.5535C24.7544 23.419 23.9876 23.4228 23.2654 23.5676C22.1716 23.7819 21.2262 24.2751 20.4291 25.0465C19.6337 25.8127 19.0362 26.8105 18.6371 28.0395C18.2381 29.2684 18.1344 30.4294 18.3261 31.5222C18.5195 32.6098 18.995 33.5648 19.7522 34.3867C20.2663 34.9398 20.9051 35.4022 21.6679 35.7747C21.2876 36.5071 21.0539 37.2401 20.9681 37.9737C20.8339 39.0808 21.0103 40.1329 21.4972 41.1298C21.9797 42.1235 22.7434 43.0003 23.7882 43.7598C24.833 44.5193 25.9044 44.9768 27.0024 45.1321C28.096 45.2841 29.1506 45.1268 30.1658 44.6601C30.8133 44.3591 31.4179 43.9269 31.9805 43.3644C32.4321 43.816 32.9106 44.1835 33.4166 44.4666C33.5409 44.5362 33.6669 44.6007 33.7946 44.6601C34.8099 45.1268 35.8645 45.2841 36.9581 45.1321C38.0562 44.9768 39.1278 44.5194 40.1726 43.7598C41.2174 43.0003 41.9808 42.1235 42.4633 41.1298C42.9501 40.1329 43.1266 39.0808 42.9924 37.9737C42.9065 37.24 42.6733 36.5068 42.293 35.7743C43.0557 35.4018 43.6946 34.9398 44.2086 34.3867C44.9659 33.5648 45.4413 32.6099 45.6348 31.5222C45.8265 30.4293 45.7224 29.2684 45.3234 28.0395C44.9243 26.8105 44.3272 25.8127 43.5317 25.0465C42.7346 24.2751 41.7892 23.782 40.6954 23.5676C39.9732 23.4228 39.2062 23.4189 38.3945 23.5535C38.2754 22.7179 38.0335 21.9715 37.6685 21.3149C37.1213 20.3403 36.3607 19.5931 35.3866 19.073C34.4071 18.5528 33.272 18.2927 31.9805 18.2927Z" fill="#D8CEC0" style="fill:#D8CEC0;fill:color(display-p3 0.8471 0.8078 0.7529);fill-opacity:1;"/>
<path fill-rule="evenodd" clip-rule="evenodd" d="M31.9816 18.2937C33.2731 18.2937 34.4082 18.5538 35.3878 19.074C36.3618 19.5942 37.1224 20.3415 37.6696 21.3161C38.0346 21.9727 38.2766 22.7189 38.3956 23.5545C39.2073 23.4199 39.9743 23.424 40.6966 23.5688C41.7903 23.7832 42.7357 24.2761 43.5328 25.0475C44.3283 25.8137 44.9256 26.8116 45.3247 28.0405C45.7237 29.2694 45.8276 30.4304 45.6359 31.5232C45.4424 32.6109 44.967 33.5658 44.2097 34.3877C43.6957 34.9408 43.0568 35.403 42.2941 35.7755C42.6744 36.508 42.9076 37.241 42.9935 37.9748C43.1277 39.0819 42.9513 40.1339 42.4644 41.1308C41.9819 42.1245 41.2185 43.0013 40.1738 43.7608C39.1289 44.5204 38.0573 44.9778 36.9592 45.1331C35.8656 45.2851 34.811 45.1278 33.7957 44.6611C33.668 44.6018 33.542 44.5374 33.4177 44.4678C32.9117 44.1847 32.4333 43.817 31.9816 43.3654C31.419 43.928 30.8144 44.3602 30.167 44.6611C29.1517 45.1278 28.0971 45.2851 27.0035 45.1331C25.9055 44.9778 24.8341 44.5203 23.7893 43.7608C22.7445 43.0013 21.9808 42.1245 21.4983 41.1308C21.0115 40.1339 20.835 39.0818 20.9692 37.9748C21.055 37.2411 21.2888 36.5083 21.669 35.7759C20.9062 35.4034 20.2674 34.9409 19.7533 34.3877C18.9961 33.5658 18.5206 32.6109 18.3272 31.5232C18.1355 30.4304 18.2392 29.2694 18.6382 28.0405C19.0373 26.8115 19.6348 25.8137 20.4302 25.0475C21.2273 24.2761 22.1728 23.7832 23.2665 23.5688C23.9887 23.424 24.7555 23.42 25.567 23.5545C25.6861 22.7189 25.9281 21.9727 26.2931 21.3161C26.8403 20.3415 27.6009 19.5942 28.5749 19.074C29.5545 18.5538 30.6902 18.2937 31.9816 18.2937ZM31.9816 20.9816C30.9483 20.9816 30.0397 21.1898 29.256 21.6059C28.4767 22.0221 27.8679 22.6201 27.4301 23.3998C27.138 23.9252 26.9445 24.5223 26.8492 25.1909C26.1999 25.0833 25.5864 25.0865 25.0086 25.2023C24.1334 25.3738 23.3769 25.7684 22.7391 26.3856C22.1027 26.9987 21.6247 27.797 21.3054 28.7803C20.9861 29.7635 20.9032 30.6924 21.0566 31.5668C21.2114 32.4371 21.5917 33.2012 22.1977 33.8588C22.609 34.3014 23.12 34.6715 23.7303 34.9695C23.4261 35.5555 23.239 36.1418 23.1703 36.7288C23.0629 37.6146 23.2042 38.4564 23.5937 39.2541C23.9798 40.0491 24.5909 40.7507 25.4269 41.3584C26.2628 41.9661 27.1201 42.3321 27.9986 42.4564C28.8736 42.578 29.7174 42.4521 30.5298 42.0787C31.0478 41.8379 31.5315 41.4921 31.9816 41.0421C32.343 41.4033 32.7258 41.6973 33.1307 41.9239C33.2301 41.9795 33.3309 42.0312 33.4331 42.0787C34.2454 42.4521 35.0893 42.578 35.9643 42.4564C36.8428 42.3322 37.7004 41.9661 38.5364 41.3584C39.3723 40.7507 39.9831 40.0491 40.3692 39.2541C40.7587 38.4564 40.9 37.6146 40.7925 36.7288C40.7239 36.1417 40.5371 35.5552 40.2328 34.9692C40.843 34.6711 41.3543 34.3014 41.7656 33.8588C42.3715 33.2012 42.7519 32.4371 42.9066 31.5668C43.06 30.6924 42.9768 29.7635 42.6575 28.7803C42.3382 27.797 41.8605 26.9987 41.2241 26.3856C40.5863 25.7684 39.8298 25.3739 38.9546 25.2023C38.3767 25.0865 37.7631 25.0833 37.1137 25.1909C37.0184 24.5223 36.8248 23.9252 36.5328 23.3998C36.0949 22.6201 35.4862 22.0221 34.7069 21.6059C33.9231 21.1898 33.0149 20.9816 31.9816 20.9816Z" fill="#BCB0A0" style="fill:#BCB0A0;fill:color(display-p3 0.7373 0.6902 0.6275);fill-opacity:1;"/>
</svg>
