<svg width="349" height="64" viewBox="0 0 349 64" fill="none" xmlns="http://www.w3.org/2000/svg">
<path d="M78.2838 52.8087C74.9103 52.8087 72.0225 52.1407 69.6205 50.8048C67.2185 49.4554 65.3765 47.5797 64.0946 45.1777C62.8126 42.7622 62.1716 39.9621 62.1716 36.7775C62.1716 33.5928 62.8126 30.7995 64.0946 28.3975C65.3765 25.982 67.2185 24.1063 69.6205 22.7704C72.0225 21.4209 74.9103 20.7462 78.2838 20.7462C81.3336 20.7462 83.9717 21.2995 86.1983 22.406C88.4383 23.4991 90.1723 25.0509 91.4003 27.0616C92.6283 29.0587 93.249 31.4067 93.2625 34.1056L82.8989 34.1056C82.7505 32.4728 82.2782 31.2313 81.482 30.3812C80.6993 29.5175 79.6873 29.0857 78.4458 29.0857C77.4742 29.0857 76.624 29.3691 75.8954 29.9358C75.1667 30.4891 74.5999 31.3325 74.1951 32.466C73.7902 33.5861 73.5878 34.9962 73.5878 36.6965C73.5878 38.3968 73.7902 39.8137 74.1951 40.9472C74.5999 42.0672 75.1667 42.9106 75.8953 43.4774C76.624 44.0307 77.4742 44.3073 78.4458 44.3073C79.2689 44.3073 79.9976 44.1184 80.6319 43.7405C81.2661 43.3492 81.7789 42.7824 82.1702 42.0403C82.575 41.2846 82.8179 40.367 82.8989 39.2874L93.2625 39.2874C93.2221 42.0268 92.5946 44.4153 91.3801 46.4529C90.1656 48.477 88.4451 50.0424 86.2185 51.1489C84.0054 52.2555 81.3605 52.8087 78.2838 52.8087Z" fill="#351309" style="fill:#351309;fill:color(display-p3 0.2078 0.0745 0.0353);fill-opacity:1;"/>
<path d="M102.94 50.906C105.342 52.1745 108.202 52.8087 111.522 52.8087C114.396 52.8087 116.906 52.3769 119.052 51.5133C121.211 50.6361 122.945 49.4082 124.254 47.8293C125.563 46.237 126.393 44.3613 126.744 42.2022L116.542 42.2022C116.326 42.7824 115.989 43.2817 115.53 43.7001C115.071 44.1049 114.518 44.4153 113.87 44.6312C113.236 44.8471 112.534 44.955 111.765 44.955C110.658 44.955 109.714 44.7324 108.931 44.2871C108.148 43.8417 107.548 43.2278 107.13 42.4451C106.711 41.6624 106.502 40.7718 106.502 39.7732L106.502 39.2874L126.744 39.2874L126.744 36.6965C126.744 34.227 126.379 32.0072 125.651 30.0371C124.922 28.0669 123.883 26.3936 122.533 25.0172C121.184 23.6273 119.558 22.568 117.655 21.8393C115.752 21.1106 113.627 20.7462 111.279 20.7462C108.067 20.7462 105.281 21.4142 102.919 22.7501C100.558 24.0861 98.7294 25.955 97.4339 28.357C96.1385 30.759 95.4907 33.5658 95.4907 36.7775C95.4907 40.1241 96.1317 42.9983 97.4137 45.4003C98.7091 47.7888 100.551 49.6241 102.94 50.906ZM106.502 33.134C106.529 32.2299 106.765 31.4405 107.211 30.7657C107.669 30.091 108.277 29.5648 109.032 29.1869C109.788 28.7956 110.618 28.5999 111.522 28.5999C112.453 28.5999 113.283 28.7956 114.012 29.1869C114.754 29.5648 115.341 30.0978 115.773 30.786C116.218 31.4607 116.447 32.2434 116.461 33.134L106.502 33.134Z" fill="#351309" style="fill:#351309;fill:color(display-p3 0.2078 0.0745 0.0353);fill-opacity:1;"/>
<path d="M141.09 34.8343L141.09 52.3229L129.917 52.3229L129.917 21.232L140.524 21.232L140.524 27.1425L140.847 27.1425C141.522 25.1723 142.71 23.6272 144.41 22.5072C146.124 21.3872 148.121 20.8272 150.401 20.8272C152.601 20.8272 154.51 21.3332 156.13 22.3453C157.763 23.3438 159.024 24.7203 159.915 26.4745C160.819 28.2288 161.264 30.2327 161.251 32.4862L161.251 52.3229L150.077 52.3229L150.077 34.8343C150.091 33.2959 149.7 32.0882 148.903 31.211C148.121 30.3339 147.028 29.8953 145.624 29.8953C144.707 29.8953 143.904 30.0977 143.216 30.5026C142.541 30.8939 142.021 31.4607 141.657 32.2029C141.293 32.9316 141.104 33.8087 141.09 34.8343Z" fill="#351309" style="fill:#351309;fill:color(display-p3 0.2078 0.0745 0.0353);fill-opacity:1;"/>
<path d="M173.504 52.8087C171.52 52.8087 169.766 52.4848 168.241 51.8371C166.73 51.1759 165.542 50.1773 164.679 48.8414C163.815 47.5054 163.383 45.8051 163.383 43.7405C163.383 42.0402 163.673 40.5896 164.253 39.3886C164.834 38.1741 165.643 37.1823 166.682 36.4131C167.721 35.6439 168.929 35.0569 170.306 34.6521C171.696 34.2472 173.193 33.9841 174.799 33.8627C176.54 33.7277 177.937 33.5658 178.989 33.3769C180.055 33.1745 180.824 32.8978 181.297 32.547C181.769 32.1826 182.005 31.7036 182.005 31.1098L182.005 31.0289C182.005 30.2192 181.695 29.5985 181.074 29.1666C180.453 28.7348 179.657 28.5189 178.686 28.5189C177.62 28.5189 176.749 28.7551 176.074 29.2274C175.413 29.6862 175.015 30.3946 174.88 31.3527L164.598 31.3527C164.732 29.4635 165.333 27.7227 166.399 26.1304C167.479 24.5246 169.051 23.2426 171.115 22.2845C173.18 21.3129 175.757 20.8272 178.848 20.8272C181.074 20.8272 183.071 21.0903 184.839 21.6166C186.607 22.1294 188.111 22.8513 189.353 23.7824C190.594 24.7 191.539 25.7796 192.187 27.021C192.848 28.249 193.179 29.585 193.179 31.0289L193.178 52.3229L182.734 52.3229L182.734 47.9507L182.491 47.9507C181.87 49.1112 181.115 50.0491 180.224 50.7643C179.347 51.4795 178.342 51.999 177.208 52.3229C176.088 52.6468 174.853 52.8087 173.504 52.8087ZM177.147 45.7647C177.997 45.7647 178.794 45.5892 179.536 45.2384C180.291 44.8875 180.905 44.3815 181.378 43.7203C181.85 43.059 182.086 42.2561 182.086 41.3115L182.086 38.7206C181.789 38.8421 181.472 38.9568 181.135 39.0647C180.811 39.1727 180.46 39.2739 180.082 39.3683C179.718 39.4628 179.327 39.5505 178.908 39.6315C178.503 39.7124 178.078 39.7867 177.633 39.8541C176.769 39.9891 176.061 40.2117 175.508 40.5221C174.968 40.819 174.563 41.1901 174.293 41.6354C174.037 42.0672 173.909 42.553 173.909 43.0928C173.909 43.9564 174.212 44.6176 174.819 45.0764C175.427 45.5352 176.203 45.7647 177.147 45.7647Z" fill="#351309" style="fill:#351309;fill:color(display-p3 0.2078 0.0745 0.0353);fill-opacity:1;"/>
<path d="M205.644 33.6196L205.644 52.3227L200.867 52.3227L200.867 10.8682L205.644 10.8682L205.644 26.0898L206.049 26.0898C206.778 24.4839 207.871 23.2087 209.328 22.2641C210.799 21.306 212.756 20.827 215.198 20.827C217.317 20.827 219.172 21.252 220.765 22.1022C222.357 22.9388 223.592 24.2275 224.469 25.9683C225.359 27.6956 225.805 29.8952 225.805 32.567L225.805 52.3227L221.028 52.3227L221.028 32.8909C221.028 30.4214 220.387 28.512 219.105 27.1626C217.836 25.7996 216.075 25.1182 213.822 25.1182C212.256 25.1182 210.853 25.4488 209.612 26.11C208.384 26.7712 207.412 27.7361 206.697 29.0045C205.995 30.273 205.644 31.8113 205.644 33.6196Z" fill="#9F4B32" style="fill:#9F4B32;fill:color(display-p3 0.6235 0.2941 0.1961);fill-opacity:1;"/>
<path d="M234.669 50.8251C236.842 52.1475 239.426 52.8088 242.422 52.8088C244.527 52.8088 246.423 52.4849 248.109 51.8372C249.796 51.1759 251.213 50.2583 252.36 49.0843C253.507 47.8968 254.324 46.5204 254.809 44.9551L250.194 43.6596C249.79 44.7392 249.216 45.6433 248.474 46.372C247.732 47.0872 246.848 47.6269 245.822 47.9913C244.81 48.3421 243.677 48.5176 242.422 48.5176C240.492 48.5176 238.798 48.0992 237.341 47.2626C235.884 46.4124 234.743 45.1777 233.92 43.5584C233.186 42.0779 232.785 40.3034 232.716 38.2349L255.295 38.2349L255.295 36.2107C255.295 33.3095 254.911 30.867 254.141 28.8833C253.372 26.8997 252.34 25.3073 251.044 24.1063C249.749 22.8918 248.312 22.0147 246.733 21.4749C245.154 20.9352 243.555 20.6653 241.936 20.6653C239.129 20.6653 236.673 21.3535 234.568 22.7299C232.476 24.0928 230.843 25.9955 229.669 28.438C228.509 30.867 227.929 33.6738 227.929 36.8585C227.929 40.0431 228.509 42.8364 229.669 45.2384C230.843 47.6269 232.51 49.4891 234.669 50.8251ZM232.728 34.1056C232.819 32.6634 233.183 31.3005 233.819 30.0168C234.561 28.519 235.62 27.3045 236.997 26.3734C238.387 25.4288 240.033 24.9565 241.936 24.9565C243.663 24.9565 245.161 25.3546 246.429 26.1507C247.711 26.9469 248.696 28.0332 249.385 29.4096C250.086 30.786 250.437 32.3514 250.437 34.1056L232.728 34.1056Z" fill="#9F4B32" style="fill:#9F4B32;fill:color(display-p3 0.6235 0.2941 0.1961);fill-opacity:1;"/>
<path d="M267.92 52.8088C265.95 52.8088 264.162 52.4377 262.557 51.6955C260.951 50.9398 259.675 49.8535 258.731 48.4366C257.786 47.0062 257.314 45.279 257.314 43.2548C257.314 41.4736 257.665 40.0297 258.367 38.9231C259.068 37.8031 260.006 36.926 261.18 36.2917C262.354 35.6575 263.65 35.1852 265.066 34.8748C266.497 34.551 267.934 34.2946 269.378 34.1057C271.267 33.8628 272.799 33.6806 273.973 33.5591C275.16 33.4242 276.024 33.2015 276.564 32.8912C277.117 32.5808 277.394 32.041 277.394 31.2719L277.394 31.1099C277.394 29.1128 276.847 27.5609 275.754 26.4544C274.674 25.3478 273.035 24.7946 270.835 24.7946C268.555 24.7946 266.767 25.2939 265.471 26.2924C264.176 27.291 263.265 28.3571 262.739 29.4906L258.205 27.8713C259.014 25.9821 260.094 24.5112 261.443 23.4586C262.806 22.3926 264.291 21.6504 265.896 21.2321C267.516 20.8003 269.108 20.5844 270.673 20.5844C271.672 20.5844 272.819 20.7058 274.114 20.9487C275.423 21.1781 276.685 21.6571 277.9 22.3858C279.128 23.1145 280.146 24.2143 280.956 25.6852C281.766 27.1561 282.17 29.1263 282.17 31.5957L282.17 52.0801L277.394 52.0801L277.394 47.8699L277.151 47.8699C276.827 48.5446 276.287 49.2665 275.531 50.0357C274.776 50.8049 273.77 51.4594 272.515 51.9991C271.26 52.5389 269.729 52.8088 267.92 52.8088ZM268.649 48.5176C270.538 48.5176 272.131 48.1465 273.426 47.4043C274.735 46.6621 275.72 45.704 276.381 44.53C277.056 43.356 277.394 42.1213 277.394 40.8258L277.394 36.4537C277.191 36.6966 276.746 36.9192 276.058 37.1216C275.383 37.3106 274.6 37.4792 273.71 37.6277C272.832 37.7626 271.976 37.8841 271.139 37.992C270.316 38.0865 269.648 38.1674 269.135 38.2349C267.894 38.3969 266.733 38.66 265.653 39.0243C264.587 39.3752 263.724 39.9082 263.063 40.6234C262.415 41.3251 262.091 42.2832 262.091 43.4977C262.091 45.1575 262.705 46.4125 263.933 47.2626C265.174 48.0993 266.746 48.5176 268.649 48.5176Z" fill="#9F4B32" style="fill:#9F4B32;fill:color(display-p3 0.6235 0.2941 0.1961);fill-opacity:1;"/>
<path d="M290.704 10.8682L290.704 52.3227L285.927 52.3227L285.927 10.8682L290.704 10.8682Z" fill="#9F4B32" style="fill:#9F4B32;fill:color(display-p3 0.6235 0.2941 0.1961);fill-opacity:1;"/>
<path fill-rule="evenodd" clip-rule="evenodd" d="M298.297 13.7832L303.074 13.7832L303.074 21.2321L309.713 21.2321L309.713 25.2804L303.074 25.2804L303.074 43.4167C303.074 44.7662 303.27 45.7782 303.661 46.4529C304.066 47.1142 304.579 47.5595 305.199 47.7889C305.834 48.0048 306.502 48.1127 307.203 48.1127C307.73 48.1127 308.161 48.0858 308.499 48.0318L309.308 47.8699L310.28 52.161C309.956 52.2825 309.504 52.4039 308.924 52.5254C308.344 52.6603 307.608 52.7278 306.718 52.7278C305.368 52.7278 304.046 52.4377 302.75 51.8574C301.468 51.2772 300.402 50.3933 299.552 49.2058C298.715 48.0183 298.297 46.5204 298.297 44.7122L298.297 25.2804L293.601 25.2804L293.601 21.2321L298.297 21.2321L298.297 13.7832Z" fill="#9F4B32" style="fill:#9F4B32;fill:color(display-p3 0.6235 0.2941 0.1961);fill-opacity:1;"/>
<path d="M317.741 33.6196L317.741 52.3227L312.964 52.3227L312.964 10.8682L317.741 10.8682L317.741 26.0898L318.146 26.0898C318.875 24.4839 319.968 23.2087 321.425 22.2641C322.896 21.306 324.853 20.827 327.295 20.827C329.414 20.827 331.269 21.252 332.861 22.1022C334.454 22.9388 335.689 24.2275 336.566 25.9683C337.456 27.6956 337.902 29.8952 337.902 32.567L337.902 52.3227L333.125 52.3227L333.125 32.8909C333.125 30.4214 332.484 28.512 331.202 27.1626C329.933 25.7996 328.172 25.1182 325.919 25.1182C324.353 25.1182 322.95 25.4488 321.708 26.11C320.48 26.7712 319.509 27.7361 318.794 29.0045C318.092 30.273 317.741 31.8113 317.741 33.6196Z" fill="#9F4B32" style="fill:#9F4B32;fill:color(display-p3 0.6235 0.2941 0.1961);fill-opacity:1;"/>
<path fill-rule="evenodd" clip-rule="evenodd" d="M31.9822 10.73C34 10.73 35.7736 11.1364 37.3041 11.9491C38.826 12.7618 40.0144 13.9294 40.8695 15.4522C41.4398 16.4781 41.8178 17.6441 42.0038 18.9497C43.272 18.7395 44.4704 18.7458 45.5989 18.972C47.3079 19.307 48.7852 20.0774 50.0306 21.2826C51.2734 22.4798 52.2064 24.0387 52.83 25.9589C53.4535 27.8791 53.6158 29.6929 53.3162 31.4005C53.014 33.0999 52.2713 34.592 51.0881 35.8762C50.2849 36.7404 49.2867 37.4625 48.095 38.0445C48.6892 39.189 49.0538 40.3343 49.1879 41.4808C49.3976 43.2106 49.1218 44.8544 48.3611 46.4121C47.6073 47.9647 46.4145 49.3346 44.782 50.5214C43.1495 51.7081 41.4751 52.4227 39.7595 52.6653C38.0508 52.9029 36.4029 52.6572 34.8166 51.9281C34.617 51.8353 34.4201 51.7346 34.2258 51.6258C33.4351 51.1834 32.6878 50.609 31.9822 49.9035C31.1031 50.7824 30.1585 51.4578 29.1469 51.9281C27.5605 52.6572 25.9128 52.9029 24.2041 52.6653C22.4885 52.4227 20.8144 51.7081 19.182 50.5214C17.5495 49.3346 16.3562 47.9647 15.6023 46.4121C14.8416 44.8545 14.566 43.2105 14.7757 41.4808C14.9098 40.3344 15.2751 39.1895 15.8692 38.0451C14.6773 37.463 13.6794 36.7405 12.8761 35.8762C11.6929 34.592 10.95 33.0999 10.6478 31.4005C10.3482 29.6929 10.5102 27.879 11.1336 25.9589C11.7572 24.0387 12.6907 22.4798 13.9335 21.2826C15.179 20.0774 16.6562 19.3069 18.3653 18.972C19.4937 18.7459 20.6917 18.7395 21.9598 18.9497C22.1458 17.6441 22.5236 16.4782 23.0939 15.4522C23.9489 13.9294 25.1375 12.7618 26.6593 11.9491C28.1898 11.1363 29.9643 10.73 31.9822 10.73ZM31.9824 14.933C30.3681 14.933 28.9485 15.2579 27.7241 15.9081C26.5067 16.5583 25.556 17.4924 24.8721 18.7105C24.4158 19.5313 24.1136 20.4641 23.9647 21.5085C22.9503 21.3404 21.9919 21.3455 21.0892 21.5264C19.722 21.7943 18.5402 22.4106 17.5438 23.3748C16.5496 24.3325 15.8027 25.5796 15.3039 27.1157C14.8051 28.6518 14.6757 30.1029 14.9153 31.4688C15.1571 32.8283 15.7513 34.0221 16.6978 35.0494C17.3404 35.7408 18.1388 36.3186 19.0923 36.7843C18.617 37.6998 18.3249 38.6157 18.2177 39.5328C18.0499 40.9166 18.2704 42.2316 18.8789 43.4777C19.482 44.7198 20.4365 45.8156 21.7425 46.765C23.0484 47.7143 24.3876 48.2861 25.76 48.4802C27.1269 48.6703 28.4452 48.4737 29.7142 47.8904C30.5235 47.5142 31.2791 46.9739 31.9824 46.2708C32.5469 46.8351 33.1448 47.2946 33.7772 47.6485C33.9327 47.7355 34.0901 47.8162 34.2498 47.8904C35.5188 48.4737 36.8371 48.6703 38.204 48.4802C39.5765 48.2862 40.916 47.7144 42.2219 46.765C43.5278 45.8156 44.482 44.7197 45.085 43.4777C45.6936 42.2316 45.9143 40.9166 45.7465 39.5328C45.6392 38.6156 45.3476 37.6995 44.8723 36.7839C45.8256 36.3183 46.624 35.7408 47.2665 35.0494C48.2131 34.0221 48.8072 32.8283 49.049 31.4688C49.2887 30.1029 49.1589 28.6518 48.6601 27.1157C48.1613 25.5796 47.4147 24.3325 46.4205 23.3748C45.4242 22.4106 44.2425 21.7944 42.8754 21.5264C41.9726 21.3455 41.0138 21.3403 39.9993 21.5085C39.8504 20.4641 39.5482 19.5313 39.0919 18.7105C38.4079 17.4924 37.4573 16.5583 36.2398 15.9081C35.0155 15.258 33.5966 14.933 31.9824 14.933Z" fill="#9F4B32" style="fill:#9F4B32;fill:color(display-p3 0.6235 0.2941 0.1961);fill-opacity:1;"/>
<path fill-rule="evenodd" clip-rule="evenodd" d="M31.9811 14.9319C33.5954 14.9319 35.0142 15.257 36.2386 15.9072C37.4561 16.5574 38.4069 17.4914 39.0909 18.7096C39.5471 19.5303 39.8494 20.463 39.9982 21.5074C41.0128 21.3392 41.9715 21.3444 42.8743 21.5253C44.2414 21.7933 45.4232 22.4096 46.4195 23.3737C47.4137 24.3314 48.1601 25.5786 48.6589 27.1146C49.1577 28.6507 49.2876 30.1019 49.048 31.4679C48.8062 32.8274 48.212 34.021 47.2655 35.0483C46.623 35.7397 45.8244 36.3172 44.8711 36.7828C45.3464 37.6983 45.638 38.6146 45.7453 39.5317C45.9131 40.9155 45.6926 42.2307 45.084 43.4768C44.481 44.7188 43.5268 45.8147 42.2209 46.7641C40.9149 47.7135 39.5753 48.2851 38.2028 48.4791C36.8359 48.6692 35.5177 48.4726 34.2487 47.8893C34.0891 47.8151 33.9315 47.7346 33.776 47.6476C33.1435 47.2937 32.5457 46.8341 31.9811 46.2697C31.2779 46.9728 30.5223 47.5131 29.713 47.8893C28.444 48.4726 27.1259 48.6692 25.7589 48.4791C24.3865 48.285 23.0473 47.7134 21.7414 46.7641C20.4355 45.8147 19.481 44.7188 18.8779 43.4768C18.2693 42.2307 18.0486 40.9155 18.2164 39.5317C18.3237 38.6146 18.616 37.6988 19.0912 36.7834C18.1378 36.3177 17.3394 35.7397 16.6968 35.0483C15.7503 34.021 15.1561 32.8274 14.9143 31.4679C14.6747 30.1019 14.8041 28.6507 15.3028 27.1146C15.8017 25.5785 16.5486 24.3314 17.5428 23.3737C18.5391 22.4096 19.7208 21.7933 21.088 21.5253C21.9907 21.3444 22.9491 21.3393 23.9635 21.5074C24.1123 20.463 24.4146 19.5303 24.8708 18.7096C25.5548 17.4914 26.5057 16.5574 27.7231 15.9072C28.9475 15.257 30.3669 14.9319 31.9811 14.9319ZM31.9808 18.2927C30.6893 18.2927 29.5536 18.5528 28.5741 19.073C27.6001 19.5931 26.8394 20.3403 26.2922 21.3149C25.9272 21.9715 25.6853 22.7179 25.5662 23.5535C24.7546 23.419 23.9879 23.4228 23.2656 23.5676C22.1719 23.7819 21.2265 24.2751 20.4294 25.0465C19.6339 25.8127 19.0364 26.8105 18.6374 28.0395C18.2383 29.2684 18.1346 30.4294 18.3263 31.5222C18.5198 32.6098 18.9952 33.5648 19.7525 34.3867C20.2666 34.9398 20.9053 35.4022 21.6681 35.7747C21.2879 36.5071 21.0542 37.2401 20.9684 37.9737C20.8341 39.0808 21.0106 40.1329 21.4974 41.1298C21.9799 42.1235 22.7436 43.0003 23.7885 43.7598C24.8332 44.5193 25.9046 44.9768 27.0026 45.1321C28.0962 45.2841 29.1508 45.1268 30.1661 44.6601C30.8135 44.3591 31.4181 43.9269 31.9808 43.3644C32.4324 43.816 32.9108 44.1835 33.4168 44.4666C33.5412 44.5362 33.6672 44.6007 33.7949 44.6601C34.8101 45.1268 35.8647 45.2841 36.9584 45.1321C38.0564 44.9768 39.1281 44.5194 40.1729 43.7598C41.2177 43.0003 41.981 42.1235 42.4635 41.1298C42.9504 40.1329 43.1268 39.0808 42.9926 37.9737C42.9068 37.24 42.6735 36.5068 42.2932 35.7743C43.0559 35.4018 43.6948 34.9398 44.2089 34.3867C44.9661 33.5648 45.4416 32.6099 45.635 31.5222C45.8267 30.4293 45.7226 29.2684 45.3236 28.0395C44.9245 26.8105 44.3274 25.8127 43.532 25.0465C42.7349 24.2751 41.7895 23.782 40.6957 23.5676C39.9734 23.4228 39.2064 23.4189 38.3948 23.5535C38.2757 22.7179 38.0338 21.9715 37.6688 21.3149C37.1215 20.3403 36.3609 19.5931 35.3869 19.073C34.4073 18.5528 33.2722 18.2927 31.9808 18.2927Z" fill="#C26346" style="fill:#C26346;fill:color(display-p3 0.7608 0.3882 0.2745);fill-opacity:1;"/>
<path fill-rule="evenodd" clip-rule="evenodd" d="M31.9819 18.2937C33.2733 18.2937 34.4085 18.5538 35.388 19.074C36.362 19.5942 37.1226 20.3415 37.6699 21.3161C38.0349 21.9727 38.2768 22.7189 38.3959 23.5545C39.2076 23.4199 39.9745 23.424 40.6968 23.5688C41.7905 23.7832 42.736 24.2761 43.5331 25.0475C44.3285 25.8137 44.9258 26.8116 45.3249 28.0405C45.7239 29.2694 45.8278 30.4304 45.6361 31.5232C45.4427 32.6109 44.9672 33.5658 44.21 34.3877C43.6959 34.9408 43.0571 35.403 42.2944 35.7755C42.6746 36.508 42.9079 37.241 42.9937 37.9748C43.128 39.0819 42.9515 40.1339 42.4646 41.1308C41.9822 42.1245 41.2188 43.0013 40.174 43.7608C39.1292 44.5204 38.0575 44.9778 36.9595 45.1331C35.8659 45.2851 34.8112 45.1278 33.796 44.6611C33.6683 44.6018 33.5422 44.5374 33.4179 44.4678C32.9119 44.1847 32.4335 43.817 31.9819 43.3654C31.4192 43.928 30.8147 44.3602 30.1672 44.6611C29.1519 45.1278 28.0973 45.2851 27.0037 45.1331C25.9057 44.9778 24.8343 44.5203 23.7896 43.7608C22.7447 43.0013 21.981 42.1245 21.4986 41.1308C21.0117 40.1339 20.8352 39.0818 20.9695 37.9748C21.0553 37.2411 21.289 36.5083 21.6692 35.7759C20.9064 35.4034 20.2677 34.9409 19.7536 34.3877C18.9963 33.5658 18.5209 32.6109 18.3275 31.5232C18.1357 30.4304 18.2394 29.2694 18.6385 28.0405C19.0376 26.8115 19.635 25.8137 20.4305 25.0475C21.2276 24.2761 22.173 23.7832 23.2668 23.5688C23.989 23.424 24.7557 23.42 25.5673 23.5545C25.6864 22.7189 25.9283 21.9727 26.2933 21.3161C26.8405 20.3415 27.6012 19.5942 28.5752 19.074C29.5547 18.5538 30.6904 18.2937 31.9819 18.2937ZM31.9819 20.9816C30.9486 20.9816 30.04 21.1898 29.2562 21.6059C28.4769 22.0221 27.8682 22.6201 27.4303 23.3998C27.1383 23.9252 26.9447 24.5223 26.8494 25.1909C26.2001 25.0833 25.5867 25.0865 25.0089 25.2023C24.1337 25.3738 23.3772 25.7684 22.7394 26.3856C22.103 26.9987 21.6249 27.797 21.3056 28.7803C20.9863 29.7635 20.9035 30.6924 21.0569 31.5668C21.2117 32.4371 21.592 33.2012 22.1979 33.8588C22.6092 34.3014 23.1202 34.6715 23.7305 34.9695C23.4263 35.5555 23.2392 36.1418 23.1706 36.7288C23.0632 37.6146 23.2044 38.4564 23.594 39.2541C23.98 40.0491 24.5911 40.7507 25.4271 41.3584C26.2631 41.9661 27.1203 42.3321 27.9989 42.4564C28.8739 42.578 29.7177 42.4521 30.53 42.0787C31.048 41.8379 31.5317 41.4921 31.9819 41.0421C32.3432 41.4033 32.726 41.6973 33.1309 41.9239C33.2304 41.9795 33.3312 42.0312 33.4333 42.0787C34.2457 42.4521 35.0895 42.578 35.9645 42.4564C36.8431 42.3322 37.7006 41.9661 38.5366 41.3584C39.3726 40.7507 39.9834 40.0491 40.3694 39.2541C40.759 38.4564 40.9002 37.6146 40.7928 36.7288C40.7241 36.1417 40.5373 35.5552 40.233 34.9692C40.8433 34.6711 41.3545 34.3014 41.7658 33.8588C42.3717 33.2012 42.7521 32.4371 42.9069 31.5668C43.0603 30.6924 42.977 29.7635 42.6577 28.7803C42.3384 27.797 41.8607 26.9987 41.2244 26.3856C40.5866 25.7684 39.83 25.3739 38.9549 25.2023C38.377 25.0865 37.7633 25.0833 37.1139 25.1909C37.0186 24.5223 36.8251 23.9252 36.533 23.3998C36.0952 22.6201 35.4865 22.0221 34.7071 21.6059C33.9234 21.1898 33.0152 20.9816 31.9819 20.9816Z" fill="#D69643" style="fill:#D69643;fill:color(display-p3 0.8392 0.5882 0.2627);fill-opacity:1;"/>
</svg>
