<svg width="349" height="99" viewBox="0 0 349 99" fill="none" xmlns="http://www.w3.org/2000/svg">
<path d="M327.495 86.3473C328.356 86.8947 329.445 87.1683 330.762 87.1683C331.788 87.1683 332.72 87.0144 333.559 86.7065C334.402 86.3929 335.127 85.9539 335.731 85.3895C336.335 84.8193 336.794 84.1522 337.108 83.3882L334.277 83.0632C334.072 83.4338 333.815 83.7474 333.507 84.004C333.205 84.2549 332.86 84.443 332.472 84.5684C332.085 84.6939 331.663 84.7566 331.207 84.7566C330.511 84.7566 329.935 84.634 329.479 84.3888C329.023 84.1437 328.704 83.7617 328.521 83.2428C328.339 82.724 328.31 82.0541 328.436 81.233L328.443 81.1903H337.604L337.749 80.241C337.943 79.0893 337.952 78.0972 337.775 77.2648C337.598 76.4266 337.276 75.7367 336.808 75.1951C336.341 74.6535 335.768 74.2543 335.089 73.9978C334.411 73.7355 333.667 73.6044 332.857 73.6044C331.609 73.6044 330.468 73.8923 329.436 74.4682C328.41 75.0383 327.555 75.8365 326.871 76.8628C326.186 77.8834 325.733 79.0693 325.511 80.4206C325.283 81.7946 325.34 82.9891 325.682 84.004C326.03 85.0132 326.634 85.7943 327.495 86.3473ZM328.812 79.1035C328.92 78.6085 329.14 78.1353 329.471 77.6838C329.83 77.1935 330.272 76.7944 330.796 76.4865C331.326 76.1729 331.897 76.0161 332.507 76.0161C333.105 76.0161 333.604 76.1501 334.003 76.4181C334.402 76.6861 334.687 77.0538 334.859 77.5213C335.03 77.9832 335.064 78.5106 334.961 79.1035H328.812Z" fill="#3A8478" style="fill:#3A8478;fill:color(display-p3 0.2275 0.5176 0.4706);fill-opacity:1;"/>
<path d="M316.672 86.9118L318.861 73.7754H321.863L321.495 75.9648H321.632C321.991 75.2065 322.499 74.6221 323.155 74.2116C323.816 73.7954 324.523 73.5873 325.276 73.5873C325.452 73.5873 325.643 73.5958 325.849 73.6129C326.054 73.6243 326.231 73.6443 326.379 73.6728L325.9 76.5207C325.769 76.4751 325.563 76.4352 325.284 76.401C325.01 76.3611 324.74 76.3411 324.472 76.3411C323.907 76.3411 323.383 76.4637 322.898 76.7089C322.419 76.9483 322.014 77.2819 321.684 77.7095C321.353 78.1371 321.139 78.6303 321.042 79.189L319.768 86.9118H316.672Z" fill="#3A8478" style="fill:#3A8478;fill:color(display-p3 0.2275 0.5176 0.4706);fill-opacity:1;"/>
<path d="M308.034 87.1769C307.201 87.1769 306.477 87.0287 305.861 86.7322C305.246 86.43 304.792 85.9853 304.502 85.398C304.217 84.8108 304.145 84.0867 304.288 83.2257C304.413 82.4845 304.653 81.8716 305.006 81.387C305.365 80.9023 305.804 80.5146 306.323 80.2239C306.848 79.9274 307.418 79.705 308.034 79.5568C308.655 79.4085 309.288 79.3002 309.932 79.2318C310.719 79.152 311.355 79.0779 311.84 79.0094C312.33 78.941 312.698 78.8384 312.943 78.7016C313.188 78.559 313.336 78.3424 313.387 78.0516V78.0003C313.49 77.356 313.388 76.8571 313.08 76.5036C312.772 76.1501 312.259 75.9734 311.54 75.9734C310.788 75.9734 310.155 76.1387 309.642 76.4694C309.128 76.8001 308.755 77.1906 308.521 77.6411L305.716 77.2306C306.07 76.4323 306.554 75.7653 307.17 75.2293C307.786 74.6877 308.496 74.2829 309.299 74.0149C310.109 73.7412 310.973 73.6044 311.891 73.6044C312.518 73.6044 313.131 73.6785 313.73 73.8267C314.334 73.975 314.867 74.2201 315.329 74.5622C315.796 74.8986 316.138 75.3576 316.355 75.9392C316.578 76.5207 316.615 77.2477 316.466 78.12L315.004 86.9118H312.028L312.336 85.1072H312.233C311.988 85.4721 311.668 85.8142 311.275 86.1335C310.882 86.4471 310.414 86.7008 309.872 86.8947C309.331 87.0828 308.718 87.1769 308.034 87.1769ZM309.205 84.902C309.827 84.902 310.386 84.7794 310.882 84.5342C311.378 84.2834 311.785 83.9527 312.105 83.5422C312.424 83.1317 312.623 82.6841 312.703 82.1995L312.96 80.6515C312.846 80.7313 312.669 80.8054 312.43 80.8738C312.19 80.9423 311.922 81.0021 311.626 81.0534C311.335 81.1048 311.047 81.1504 310.762 81.1903C310.477 81.2302 310.232 81.2644 310.026 81.2929C309.553 81.3556 309.12 81.4583 308.726 81.6008C308.339 81.7433 308.017 81.9429 307.76 82.1995C307.509 82.4503 307.352 82.7753 307.29 83.1744C307.198 83.7389 307.332 84.1693 307.692 84.4658C308.051 84.7566 308.555 84.902 309.205 84.902Z" fill="#3A8478" style="fill:#3A8478;fill:color(display-p3 0.2275 0.5176 0.4706);fill-opacity:1;"/>
<path d="M297.047 87.1683C295.736 87.1683 294.658 86.8804 293.814 86.3046C292.971 85.7287 292.381 84.9333 292.044 83.9185C291.713 82.8979 291.659 81.7234 291.882 80.3949C292.098 79.0607 292.546 77.8834 293.224 76.8628C293.909 75.8365 294.77 75.0383 295.807 74.4682C296.845 73.8923 298.005 73.6044 299.288 73.6044C300.354 73.6044 301.264 73.8011 302.016 74.1945C302.774 74.5822 303.339 75.1324 303.71 75.8451C304.086 76.5521 304.231 77.3788 304.146 78.3253H301.178C301.167 77.6924 300.97 77.165 300.588 76.7431C300.206 76.3155 299.647 76.1016 298.912 76.1016C298.273 76.1016 297.686 76.2727 297.15 76.6148C296.614 76.9512 296.161 77.4358 295.79 78.0687C295.419 78.7016 295.163 79.4599 295.02 80.3436C294.872 81.2387 294.875 82.0084 295.029 82.6527C295.189 83.2913 295.476 83.7845 295.893 84.1323C296.315 84.4744 296.848 84.6454 297.492 84.6454C297.948 84.6454 298.373 84.5599 298.766 84.3888C299.16 84.2121 299.505 83.9584 299.801 83.6277C300.103 83.297 300.34 82.895 300.511 82.4218H303.47C303.236 83.3512 302.82 84.175 302.221 84.8934C301.628 85.6061 300.893 86.1649 300.015 86.5697C299.137 86.9688 298.148 87.1683 297.047 87.1683Z" fill="#3A8478" style="fill:#3A8478;fill:color(display-p3 0.2275 0.5176 0.4706);fill-opacity:1;"/>
<path d="M282.165 79.2147L280.899 86.9118H277.794L280.702 69.3966H283.738L282.644 76.0075H282.806C283.222 75.2606 283.79 74.6734 284.508 74.2458C285.232 73.8182 286.102 73.6043 287.116 73.6043C288.017 73.6043 288.776 73.7953 289.391 74.1774C290.007 74.5594 290.44 75.1181 290.691 75.8536C290.948 76.5891 290.991 77.4871 290.82 78.5476L289.417 86.9118H286.313L287.63 79.0265C287.772 78.1428 287.655 77.4557 287.279 76.9654C286.908 76.4694 286.321 76.2214 285.517 76.2214C284.964 76.2214 284.454 76.3411 283.986 76.5806C283.519 76.8143 283.125 77.1536 282.806 77.5983C282.493 78.043 282.279 78.5818 282.165 79.2147Z" fill="#3A8478" style="fill:#3A8478;fill:color(display-p3 0.2275 0.5176 0.4706);fill-opacity:1;"/>
<path fill-rule="evenodd" clip-rule="evenodd" d="M275.706 73.7753L276.23 70.6281H273.134L272.614 73.7753H270.756L270.363 76.17H272.219L271.013 83.4736C270.87 84.2947 270.93 84.9788 271.192 85.5262C271.46 86.0678 271.882 86.4698 272.458 86.7321C273.04 86.9886 273.724 87.1084 274.511 87.0913C274.95 87.0799 275.326 87.04 275.64 86.9715C275.959 86.9031 276.213 86.8404 276.401 86.7834L276.264 84.3631C276.167 84.3802 276.036 84.4058 275.87 84.44C275.705 84.4686 275.528 84.4828 275.34 84.4828C275.084 84.4828 274.853 84.4429 274.648 84.3631C274.448 84.2833 274.303 84.135 274.211 83.9184C274.126 83.696 274.114 83.3767 274.177 82.9605L275.307 76.17H277.906L278.308 73.7753H275.706Z" fill="#3A8478" style="fill:#3A8478;fill:color(display-p3 0.2275 0.5176 0.4706);fill-opacity:1;"/>
<path d="M270.006 69.3966L267.098 86.9118H264.002L266.91 69.3966H270.006Z" fill="#3A8478" style="fill:#3A8478;fill:color(display-p3 0.2275 0.5176 0.4706);fill-opacity:1;"/>
<path d="M255.364 87.1769C254.531 87.1769 253.807 87.0287 253.192 86.7322C252.576 86.43 252.122 85.9853 251.832 85.398C251.547 84.8108 251.475 84.0867 251.618 83.2257C251.743 82.4845 251.983 81.8716 252.336 81.387C252.695 80.9023 253.135 80.5146 253.653 80.2239C254.178 79.9274 254.748 79.705 255.364 79.5568C255.985 79.4085 256.618 79.3002 257.262 79.2318C258.049 79.152 258.685 79.0779 259.17 79.0094C259.66 78.941 260.028 78.8384 260.273 78.7016C260.518 78.559 260.666 78.3424 260.718 78.0516V78.0003C260.82 77.356 260.718 76.8571 260.41 76.5036C260.102 76.1501 259.589 75.9734 258.87 75.9734C258.118 75.9734 257.485 76.1387 256.972 76.4694C256.459 76.8001 256.085 77.1906 255.851 77.6411L253.046 77.2306C253.4 76.4323 253.884 75.7653 254.5 75.2293C255.116 74.6877 255.826 74.2829 256.63 74.0149C257.439 73.7412 258.303 73.6044 259.221 73.6044C259.848 73.6044 260.461 73.6785 261.06 73.8267C261.664 73.975 262.197 74.2201 262.659 74.5622C263.126 74.8986 263.469 75.3576 263.685 75.9392C263.908 76.5207 263.945 77.2477 263.796 78.12L262.334 86.9118H259.358L259.666 85.1072H259.563C259.318 85.4721 258.999 85.8142 258.605 86.1335C258.212 86.4471 257.744 86.7008 257.203 86.8947C256.661 87.0828 256.048 87.1769 255.364 87.1769ZM256.535 84.902C257.157 84.902 257.716 84.7794 258.212 84.5342C258.708 84.2834 259.115 83.9527 259.435 83.5422C259.754 83.1317 259.954 82.6841 260.033 82.1995L260.29 80.6515C260.176 80.7313 259.999 80.8054 259.76 80.8738C259.52 80.9423 259.252 81.0021 258.956 81.0534C258.665 81.1048 258.377 81.1504 258.092 81.1903C257.807 81.2302 257.562 81.2644 257.357 81.2929C256.883 81.3556 256.45 81.4583 256.057 81.6008C255.669 81.7433 255.347 81.9429 255.09 82.1995C254.839 82.4503 254.682 82.7753 254.62 83.1744C254.529 83.7389 254.663 84.1693 255.022 84.4658C255.381 84.7566 255.886 84.902 256.535 84.902Z" fill="#3A8478" style="fill:#3A8478;fill:color(display-p3 0.2275 0.5176 0.4706);fill-opacity:1;"/>
<path d="M240.796 86.3473C241.657 86.8947 242.746 87.1683 244.063 87.1683C245.089 87.1683 246.021 87.0144 246.86 86.7065C247.703 86.3929 248.428 85.9539 249.032 85.3895C249.636 84.8193 250.095 84.1522 250.409 83.3882L247.578 83.0632C247.373 83.4338 247.116 83.7474 246.808 84.004C246.506 84.2549 246.161 84.443 245.773 84.5684C245.386 84.6939 244.964 84.7566 244.508 84.7566C243.812 84.7566 243.236 84.634 242.78 84.3888C242.324 84.1437 242.005 83.7617 241.822 83.2428C241.64 82.724 241.611 82.0541 241.737 81.233L241.744 81.1903H250.905L251.05 80.241C251.244 79.0893 251.253 78.0972 251.076 77.2648C250.899 76.4266 250.577 75.7367 250.109 75.1951C249.642 74.6535 249.069 74.2543 248.39 73.9978C247.712 73.7355 246.968 73.6044 246.158 73.6044C244.91 73.6044 243.769 73.8923 242.737 74.4682C241.711 75.0383 240.856 75.8365 240.172 76.8628C239.488 77.8834 239.034 79.0693 238.812 80.4206C238.584 81.7946 238.641 82.9891 238.983 84.004C239.331 85.0132 239.935 85.7943 240.796 86.3473ZM242.113 79.1035C242.221 78.6085 242.441 78.1353 242.772 77.6838C243.131 77.1935 243.573 76.7944 244.097 76.4865C244.627 76.1729 245.198 76.0161 245.808 76.0161C246.406 76.0161 246.905 76.1501 247.304 76.4181C247.703 76.6861 247.989 77.0538 248.16 77.5213C248.331 77.9832 248.365 78.5106 248.262 79.1035H242.113Z" fill="#3A8478" style="fill:#3A8478;fill:color(display-p3 0.2275 0.5176 0.4706);fill-opacity:1;"/>
<path d="M229.095 79.2147L227.829 86.9118H224.725L227.632 69.3966H230.668L229.574 76.0075H229.736C230.152 75.2606 230.72 74.6734 231.438 74.2458C232.162 73.8182 233.032 73.6043 234.047 73.6043C234.947 73.6043 235.706 73.7953 236.322 74.1774C236.937 74.5594 237.371 75.1181 237.622 75.8536C237.878 76.5891 237.921 77.4871 237.75 78.5476L236.347 86.9118H233.243L234.56 79.0265C234.702 78.1428 234.585 77.4557 234.209 76.9654C233.839 76.4694 233.251 76.2214 232.447 76.2214C231.894 76.2214 231.384 76.3411 230.916 76.5806C230.449 76.8143 230.056 77.1536 229.736 77.5983C229.423 78.043 229.209 78.5818 229.095 79.2147Z" fill="#3A8478" style="fill:#3A8478;fill:color(display-p3 0.2275 0.5176 0.4706);fill-opacity:1;"/>
<path d="M218.47 77.2477L215.622 77.5555C215.593 77.2648 215.505 76.9939 215.357 76.7431C215.208 76.4922 214.986 76.2926 214.69 76.1444C214.399 75.9905 214.022 75.9135 213.561 75.9135C212.888 75.9135 212.298 76.0646 211.79 76.3668C211.283 76.669 210.995 77.0567 210.926 77.5299C210.864 77.8834 210.949 78.1713 211.183 78.3937C211.417 78.616 211.85 78.8042 212.483 78.9581L214.655 79.4371C215.853 79.705 216.714 80.1383 217.238 80.737C217.768 81.3357 217.954 82.1196 217.794 83.0889C217.657 83.8985 217.304 84.6112 216.734 85.227C216.163 85.837 215.434 86.3131 214.544 86.6552C213.66 86.9973 212.68 87.1683 211.602 87.1683C209.966 87.1683 208.706 86.8291 207.822 86.1506C206.944 85.4664 206.508 84.5257 206.513 83.3284L209.558 83.0376C209.592 83.6305 209.8 84.0781 210.182 84.3803C210.564 84.6768 211.095 84.8279 211.773 84.8336C212.537 84.8393 213.181 84.6796 213.706 84.3546C214.236 84.0239 214.536 83.622 214.604 83.1488C214.661 82.7953 214.573 82.5073 214.339 82.285C214.111 82.0626 213.703 81.8859 213.116 81.7547L210.961 81.2844C209.741 81.0164 208.871 80.5631 208.352 79.9245C207.839 79.2803 207.665 78.4678 207.831 77.4871C207.967 76.6889 208.301 76.0019 208.831 75.426C209.367 74.8445 210.054 74.3969 210.892 74.0833C211.73 73.764 212.668 73.6044 213.706 73.6044C215.268 73.6044 216.446 73.9322 217.238 74.5879C218.031 75.2436 218.441 76.1302 218.47 77.2477Z" fill="#3A8478" style="fill:#3A8478;fill:color(display-p3 0.2275 0.5176 0.4706);fill-opacity:1;"/>
<path d="M197.85 87.1769C197.017 87.1769 196.293 87.0287 195.677 86.7322C195.062 86.43 194.608 85.9853 194.318 85.398C194.032 84.8108 193.961 84.0867 194.104 83.2257C194.229 82.4845 194.469 81.8716 194.822 81.387C195.181 80.9023 195.62 80.5146 196.139 80.2239C196.664 79.9274 197.234 79.705 197.85 79.5568C198.471 79.4085 199.104 79.3002 199.748 79.2318C200.535 79.152 201.171 79.0779 201.655 79.0094C202.146 78.941 202.514 78.8384 202.759 78.7016C203.004 78.559 203.152 78.3424 203.203 78.0516V78.0003C203.306 77.356 203.203 76.8571 202.896 76.5036C202.588 76.1501 202.075 75.9734 201.356 75.9734C200.604 75.9734 199.971 76.1387 199.457 76.4694C198.944 76.8001 198.571 77.1906 198.337 77.6411L195.532 77.2306C195.885 76.4323 196.37 75.7653 196.986 75.2293C197.602 74.6877 198.311 74.2829 199.115 74.0149C199.925 73.7412 200.789 73.6044 201.707 73.6044C202.334 73.6044 202.947 73.6785 203.546 73.8267C204.15 73.975 204.683 74.2201 205.145 74.5622C205.612 74.8986 205.954 75.3576 206.171 75.9392C206.393 76.5207 206.43 77.2477 206.282 78.12L204.82 86.9118H201.844L202.151 85.1072H202.049C201.804 85.4721 201.484 85.8142 201.091 86.1335C200.698 86.4471 200.23 86.7008 199.688 86.8947C199.147 87.0828 198.534 87.1769 197.85 87.1769ZM199.021 84.902C199.643 84.902 200.202 84.7794 200.698 84.5342C201.194 84.2834 201.601 83.9527 201.921 83.5422C202.24 83.1317 202.439 82.6841 202.519 82.1995L202.776 80.6515C202.662 80.7313 202.485 80.8054 202.246 80.8738C202.006 80.9423 201.738 81.0021 201.442 81.0534C201.151 81.1048 200.863 81.1504 200.578 81.1903C200.293 81.2302 200.048 81.2644 199.842 81.2929C199.369 81.3556 198.936 81.4583 198.542 81.6008C198.155 81.7433 197.833 81.9429 197.576 82.1995C197.325 82.4503 197.168 82.7753 197.106 83.1744C197.014 83.7389 197.148 84.1693 197.508 84.4658C197.867 84.7566 198.371 84.902 199.021 84.902Z" fill="#3A8478" style="fill:#3A8478;fill:color(display-p3 0.2275 0.5176 0.4706);fill-opacity:1;"/>
<path d="M178.758 87.1427C177.726 87.1427 176.845 86.8775 176.115 86.3473C175.386 85.8171 174.867 85.0474 174.559 84.0382C174.257 83.029 174.222 81.8032 174.456 80.3607C174.701 78.9011 175.149 77.6696 175.799 76.6661C176.449 75.6569 177.224 74.8957 178.125 74.3826C179.032 73.8638 179.99 73.6043 180.999 73.6043C181.774 73.6043 182.387 73.7355 182.837 73.9978C183.294 74.2543 183.636 74.5651 183.864 74.93C184.092 75.2892 184.26 75.6284 184.368 75.9477H184.497L185.583 69.3966H188.687L185.779 86.9118H182.735L183.085 84.8421H182.897C182.681 85.1614 182.393 85.5006 182.034 85.8598C181.674 86.2133 181.227 86.5155 180.691 86.7664C180.155 87.0172 179.511 87.1427 178.758 87.1427ZM179.99 84.6026C180.651 84.6026 181.244 84.4259 181.768 84.0724C182.299 83.7132 182.741 83.2143 183.094 82.5757C183.448 81.9372 183.696 81.1931 183.838 80.3436C183.981 79.494 183.981 78.7557 183.838 78.1285C183.696 77.5014 183.419 77.0139 183.008 76.6661C182.598 76.3183 182.059 76.1444 181.392 76.1444C180.708 76.1444 180.106 76.324 179.588 76.6832C179.074 77.0424 178.652 77.5384 178.322 78.1713C177.991 78.8042 177.757 79.5283 177.621 80.3436C177.484 81.1646 177.475 81.8972 177.595 82.5415C177.72 83.1801 177.98 83.6847 178.373 84.0553C178.772 84.4202 179.311 84.6026 179.99 84.6026Z" fill="#3A8478" style="fill:#3A8478;fill:color(display-p3 0.2275 0.5176 0.4706);fill-opacity:1;"/>
<path d="M166.216 87.1683C164.922 87.1683 163.845 86.8833 162.984 86.3131C162.128 85.743 161.527 84.9419 161.179 83.9099C160.831 82.8779 160.769 81.6806 160.991 80.3179C161.213 78.9724 161.658 77.795 162.325 76.7858C162.998 75.7767 163.845 74.9955 164.865 74.4425C165.891 73.8837 167.04 73.6044 168.312 73.6044C169.606 73.6044 170.681 73.8923 171.536 74.4682C172.391 75.0383 172.993 75.8394 173.34 76.8714C173.694 77.9033 173.76 79.1064 173.537 80.4804C173.321 81.8203 172.873 82.992 172.194 83.9954C171.522 84.9989 170.675 85.78 169.654 86.3388C168.634 86.8918 167.488 87.1683 166.216 87.1683ZM166.473 84.6882C167.191 84.6882 167.821 84.4943 168.363 84.1066C168.91 83.7132 169.358 83.1858 169.706 82.5244C170.059 81.8574 170.304 81.1162 170.441 80.3008C170.567 79.514 170.57 78.8013 170.45 78.1628C170.33 77.5185 170.073 77.0082 169.68 76.6319C169.292 76.2499 168.754 76.0589 168.064 76.0589C167.345 76.0589 166.71 76.2584 166.157 76.6575C165.609 77.051 165.162 77.5812 164.814 78.2483C164.466 78.9097 164.227 79.648 164.095 80.4633C163.964 81.2501 163.959 81.9628 164.078 82.6014C164.198 83.24 164.455 83.7474 164.848 84.1237C165.241 84.5 165.783 84.6882 166.473 84.6882Z" fill="#3A8478" style="fill:#3A8478;fill:color(display-p3 0.2275 0.5176 0.4706);fill-opacity:1;"/>
<path d="M152.768 87.1683C151.474 87.1683 150.396 86.8833 149.535 86.3131C148.68 85.743 148.079 84.9419 147.731 83.9099C147.383 82.8779 147.32 81.6806 147.543 80.3179C147.765 78.9724 148.21 77.795 148.877 76.7858C149.55 75.7767 150.396 74.9955 151.417 74.4425C152.443 73.8837 153.592 73.6044 154.863 73.6044C156.158 73.6044 157.232 73.8923 158.088 74.4682C158.943 75.0383 159.544 75.8394 159.892 76.8714C160.246 77.9033 160.311 79.1064 160.089 80.4804C159.872 81.8203 159.425 82.992 158.746 83.9954C158.073 84.9989 157.227 85.78 156.206 86.3388C155.186 86.8918 154.04 87.1683 152.768 87.1683ZM153.025 84.6882C153.743 84.6882 154.373 84.4943 154.915 84.1066C155.462 83.7132 155.91 83.1858 156.257 82.5244C156.611 81.8574 156.856 81.1162 156.993 80.3008C157.118 79.514 157.121 78.8013 157.002 78.1628C156.882 77.5185 156.625 77.0082 156.232 76.6319C155.844 76.2499 155.305 76.0589 154.615 76.0589C153.897 76.0589 153.261 76.2584 152.708 76.6575C152.161 77.051 151.713 77.5812 151.366 78.2483C151.018 78.9097 150.778 79.648 150.647 80.4633C150.516 81.2501 150.51 81.9628 150.63 82.6014C150.75 83.24 151.006 83.7474 151.4 84.1237C151.793 84.5 152.335 84.6882 153.025 84.6882Z" fill="#3A8478" style="fill:#3A8478;fill:color(display-p3 0.2275 0.5176 0.4706);fill-opacity:1;"/>
<path fill-rule="evenodd" clip-rule="evenodd" d="M145.714 73.7754L145.886 72.7405C145.977 72.2274 146.166 71.834 146.451 71.5603C146.736 71.2809 147.166 71.1413 147.742 71.1413C147.987 71.1413 148.201 71.1641 148.383 71.2097C148.572 71.2496 148.731 71.2895 148.862 71.3294L149.863 68.9348C149.681 68.8663 149.39 68.7894 148.991 68.7038C148.592 68.6183 148.121 68.5756 147.58 68.5756C146.821 68.5756 146.106 68.721 145.433 69.0117C144.766 69.3025 144.199 69.7415 143.731 70.3288C143.269 70.916 142.97 71.6515 142.833 72.5353L142.626 73.7754H140.686L140.284 76.17H142.225L140.43 86.9117H143.534L145.317 76.17H148.05L148.452 73.7754H145.714Z" fill="#3A8478" style="fill:#3A8478;fill:color(display-p3 0.2275 0.5176 0.4706);fill-opacity:1;"/>
<path d="M78.2838 52.8087C74.9103 52.8087 72.0225 52.1407 69.6205 50.8048C67.2185 49.4554 65.3765 47.5797 64.0946 45.1777C62.8126 42.7622 62.1716 39.9621 62.1716 36.7775C62.1716 33.5928 62.8126 30.7995 64.0946 28.3975C65.3765 25.982 67.2185 24.1063 69.6205 22.7704C72.0225 21.4209 74.9103 20.7462 78.2838 20.7462C81.3336 20.7462 83.9717 21.2995 86.1983 22.406C88.4383 23.4991 90.1723 25.0509 91.4003 27.0616C92.6283 29.0587 93.249 31.4067 93.2625 34.1056L82.8989 34.1056C82.7505 32.4728 82.2782 31.2313 81.482 30.3812C80.6993 29.5175 79.6873 29.0857 78.4458 29.0857C77.4742 29.0857 76.624 29.3691 75.8954 29.9358C75.1667 30.4891 74.5999 31.3325 74.1951 32.466C73.7902 33.5861 73.5878 34.9962 73.5878 36.6965C73.5878 38.3968 73.7902 39.8137 74.1951 40.9472C74.5999 42.0672 75.1667 42.9106 75.8953 43.4774C76.624 44.0307 77.4742 44.3073 78.4458 44.3073C79.2689 44.3073 79.9976 44.1184 80.6319 43.7405C81.2661 43.3492 81.7789 42.7824 82.1702 42.0403C82.575 41.2846 82.8179 40.367 82.8989 39.2874L93.2625 39.2874C93.2221 42.0268 92.5946 44.4153 91.3801 46.4529C90.1656 48.477 88.4451 50.0424 86.2185 51.1489C84.0054 52.2555 81.3605 52.8087 78.2838 52.8087Z" fill="#0D322D" style="fill:#0D322D;fill:color(display-p3 0.0510 0.1961 0.1765);fill-opacity:1;"/>
<path d="M102.94 50.906C105.342 52.1745 108.202 52.8087 111.522 52.8087C114.396 52.8087 116.906 52.3769 119.052 51.5133C121.211 50.6361 122.945 49.4082 124.254 47.8293C125.563 46.237 126.393 44.3613 126.744 42.2022L116.542 42.2022C116.326 42.7824 115.989 43.2817 115.53 43.7001C115.071 44.1049 114.518 44.4153 113.87 44.6312C113.236 44.8471 112.534 44.955 111.765 44.955C110.658 44.955 109.714 44.7324 108.931 44.2871C108.148 43.8417 107.548 43.2278 107.13 42.4451C106.711 41.6624 106.502 40.7718 106.502 39.7732L106.502 39.2874L126.744 39.2874L126.744 36.6965C126.744 34.227 126.379 32.0072 125.651 30.0371C124.922 28.0669 123.883 26.3936 122.533 25.0172C121.184 23.6273 119.558 22.568 117.655 21.8393C115.752 21.1106 113.627 20.7462 111.279 20.7462C108.067 20.7462 105.281 21.4142 102.919 22.7501C100.558 24.0861 98.7294 25.955 97.4339 28.357C96.1385 30.759 95.4907 33.5658 95.4907 36.7775C95.4907 40.1241 96.1317 42.9983 97.4137 45.4003C98.7091 47.7888 100.551 49.6241 102.94 50.906ZM106.502 33.134C106.529 32.2299 106.765 31.4405 107.211 30.7657C107.669 30.091 108.277 29.5648 109.032 29.1869C109.788 28.7956 110.618 28.5999 111.522 28.5999C112.453 28.5999 113.283 28.7956 114.012 29.1869C114.754 29.5648 115.341 30.0978 115.773 30.786C116.218 31.4607 116.447 32.2434 116.461 33.134L106.502 33.134Z" fill="#0D322D" style="fill:#0D322D;fill:color(display-p3 0.0510 0.1961 0.1765);fill-opacity:1;"/>
<path d="M141.09 34.8344L141.09 52.323L129.917 52.323L129.917 21.2321L140.524 21.2321L140.524 27.1426L140.847 27.1426C141.522 25.1724 142.71 23.6273 144.41 22.5073C146.124 21.3873 148.121 20.8273 150.401 20.8273C152.601 20.8273 154.51 21.3333 156.13 22.3454C157.763 23.344 159.024 24.7204 159.915 26.4746C160.819 28.2289 161.264 30.2328 161.251 32.4864L161.251 52.323L150.077 52.323L150.077 34.8344C150.091 33.296 149.7 32.0883 148.903 31.2111C148.121 30.334 147.028 29.8955 145.624 29.8955C144.707 29.8955 143.904 30.0979 143.216 30.5027C142.541 30.894 142.021 31.4608 141.657 32.203C141.293 32.9317 141.104 33.8088 141.09 34.8344Z" fill="#0D322D" style="fill:#0D322D;fill:color(display-p3 0.0510 0.1961 0.1765);fill-opacity:1;"/>
<path d="M173.504 52.8088C171.52 52.8088 169.766 52.4849 168.241 51.8372C166.73 51.176 165.542 50.1774 164.679 48.8415C163.815 47.5055 163.383 45.8053 163.383 43.7406C163.383 42.0403 163.673 40.5897 164.253 39.3887C164.834 38.1742 165.643 37.1824 166.682 36.4132C167.721 35.644 168.929 35.057 170.306 34.6522C171.696 34.2474 173.193 33.9842 174.799 33.8628C176.54 33.7278 177.937 33.5659 178.989 33.377C180.055 33.1746 180.824 32.8979 181.297 32.5471C181.769 32.1827 182.005 31.7037 182.005 31.1099L182.005 31.029C182.005 30.2193 181.695 29.5986 181.074 29.1668C180.453 28.7349 179.657 28.519 178.686 28.519C177.62 28.519 176.749 28.7552 176.074 29.2275C175.413 29.6863 175.015 30.3947 174.88 31.3528L164.598 31.3528C164.732 29.4636 165.333 27.7229 166.399 26.1305C167.479 24.5247 169.051 23.2428 171.115 22.2847C173.18 21.3131 175.757 20.8273 178.848 20.8273C181.074 20.8273 183.071 21.0904 184.839 21.6167C186.607 22.1295 188.111 22.8514 189.353 23.7825C190.594 24.7001 191.539 25.7797 192.187 27.0212C192.848 28.2491 193.179 29.5851 193.179 31.029L193.178 52.323L182.734 52.323L182.734 47.9509L182.491 47.9509C181.87 49.1114 181.115 50.0492 180.224 50.7644C179.347 51.4796 178.342 51.9991 177.208 52.323C176.088 52.6469 174.853 52.8088 173.504 52.8088ZM177.147 45.7648C177.997 45.7648 178.794 45.5893 179.536 45.2385C180.291 44.8876 180.905 44.3816 181.378 43.7204C181.85 43.0592 182.086 42.2563 182.086 41.3116L182.086 38.7207C181.789 38.8422 181.472 38.9569 181.135 39.0648C180.811 39.1728 180.46 39.274 180.082 39.3685C179.718 39.4629 179.327 39.5506 178.908 39.6316C178.503 39.7126 178.078 39.7868 177.633 39.8543C176.769 39.9892 176.061 40.2119 175.508 40.5222C174.968 40.8191 174.563 41.1902 174.293 41.6355C174.037 42.0673 173.909 42.5531 173.909 43.0929C173.909 43.9565 174.212 44.6178 174.819 45.0766C175.427 45.5354 176.203 45.7648 177.147 45.7648Z" fill="#0D322D" style="fill:#0D322D;fill:color(display-p3 0.0510 0.1961 0.1765);fill-opacity:1;"/>
<path d="M205.644 33.6196L205.644 52.3227L200.867 52.3227L200.867 10.8682L205.644 10.8682L205.644 26.0898L206.049 26.0898C206.778 24.4839 207.871 23.2087 209.328 22.2641C210.799 21.306 212.756 20.827 215.198 20.827C217.317 20.827 219.172 21.252 220.765 22.1022C222.357 22.9388 223.592 24.2275 224.469 25.9683C225.359 27.6956 225.805 29.8952 225.805 32.567L225.805 52.3227L221.028 52.3227L221.028 32.8909C221.028 30.4214 220.387 28.512 219.105 27.1626C217.836 25.7996 216.075 25.1182 213.822 25.1182C212.256 25.1182 210.853 25.4488 209.612 26.11C208.384 26.7712 207.412 27.7361 206.697 29.0045C205.995 30.273 205.644 31.8113 205.644 33.6196Z" fill="#3A8478" style="fill:#3A8478;fill:color(display-p3 0.2275 0.5176 0.4706);fill-opacity:1;"/>
<path d="M234.669 50.8251C236.842 52.1475 239.426 52.8088 242.422 52.8088C244.527 52.8088 246.423 52.4849 248.109 51.8372C249.796 51.1759 251.213 50.2583 252.36 49.0843C253.507 47.8968 254.324 46.5204 254.809 44.9551L250.194 43.6596C249.79 44.7392 249.216 45.6433 248.474 46.372C247.732 47.0872 246.848 47.6269 245.822 47.9913C244.81 48.3421 243.677 48.5176 242.422 48.5176C240.492 48.5176 238.798 48.0992 237.341 47.2626C235.884 46.4124 234.743 45.1777 233.92 43.5584C233.186 42.0779 232.785 40.3034 232.716 38.2349L255.295 38.2349L255.295 36.2107C255.295 33.3095 254.911 30.867 254.141 28.8833C253.372 26.8997 252.34 25.3073 251.044 24.1063C249.749 22.8918 248.312 22.0147 246.733 21.4749C245.154 20.9352 243.555 20.6653 241.936 20.6653C239.129 20.6653 236.673 21.3535 234.568 22.7299C232.476 24.0928 230.843 25.9955 229.669 28.438C228.509 30.867 227.929 33.6738 227.929 36.8585C227.929 40.0431 228.509 42.8364 229.669 45.2384C230.843 47.6269 232.51 49.4891 234.669 50.8251ZM232.728 34.1056C232.819 32.6634 233.183 31.3005 233.819 30.0168C234.561 28.519 235.62 27.3045 236.997 26.3734C238.387 25.4288 240.033 24.9565 241.936 24.9565C243.663 24.9565 245.161 25.3546 246.429 26.1507C247.711 26.9469 248.696 28.0332 249.385 29.4096C250.086 30.786 250.437 32.3514 250.437 34.1056L232.728 34.1056Z" fill="#3A8478" style="fill:#3A8478;fill:color(display-p3 0.2275 0.5176 0.4706);fill-opacity:1;"/>
<path d="M267.92 52.8088C265.95 52.8088 264.162 52.4377 262.557 51.6955C260.951 50.9398 259.675 49.8535 258.731 48.4366C257.786 47.0062 257.314 45.279 257.314 43.2548C257.314 41.4736 257.665 40.0297 258.367 38.9231C259.068 37.8031 260.006 36.926 261.18 36.2917C262.354 35.6575 263.65 35.1852 265.066 34.8748C266.497 34.551 267.934 34.2946 269.378 34.1057C271.267 33.8628 272.799 33.6806 273.973 33.5591C275.16 33.4242 276.024 33.2015 276.564 32.8912C277.117 32.5808 277.394 32.041 277.394 31.2719L277.394 31.1099C277.394 29.1128 276.847 27.5609 275.754 26.4544C274.674 25.3478 273.035 24.7946 270.835 24.7946C268.555 24.7946 266.767 25.2939 265.471 26.2924C264.176 27.291 263.265 28.3571 262.739 29.4906L258.205 27.8713C259.014 25.9821 260.094 24.5112 261.443 23.4586C262.806 22.3926 264.291 21.6504 265.896 21.2321C267.516 20.8003 269.108 20.5844 270.673 20.5844C271.672 20.5844 272.819 20.7058 274.114 20.9487C275.423 21.1781 276.685 21.6571 277.9 22.3858C279.128 23.1145 280.146 24.2143 280.956 25.6852C281.766 27.1561 282.17 29.1263 282.17 31.5957L282.17 52.0801L277.394 52.0801L277.394 47.8699L277.151 47.8699C276.827 48.5446 276.287 49.2665 275.531 50.0357C274.776 50.8049 273.77 51.4594 272.515 51.9991C271.26 52.5389 269.729 52.8088 267.92 52.8088ZM268.649 48.5176C270.538 48.5176 272.131 48.1465 273.426 47.4043C274.735 46.6621 275.72 45.704 276.381 44.53C277.056 43.356 277.394 42.1213 277.394 40.8258L277.394 36.4537C277.191 36.6966 276.746 36.9192 276.058 37.1216C275.383 37.3106 274.6 37.4792 273.71 37.6277C272.832 37.7626 271.976 37.8841 271.139 37.992C270.316 38.0865 269.648 38.1674 269.135 38.2349C267.894 38.3969 266.733 38.66 265.653 39.0243C264.587 39.3752 263.724 39.9082 263.063 40.6234C262.415 41.3251 262.091 42.2832 262.091 43.4977C262.091 45.1575 262.705 46.4125 263.933 47.2626C265.174 48.0993 266.746 48.5176 268.649 48.5176Z" fill="#3A8478" style="fill:#3A8478;fill:color(display-p3 0.2275 0.5176 0.4706);fill-opacity:1;"/>
<path d="M290.704 10.8682L290.704 52.3227L285.927 52.3227L285.927 10.8682L290.704 10.8682Z" fill="#3A8478" style="fill:#3A8478;fill:color(display-p3 0.2275 0.5176 0.4706);fill-opacity:1;"/>
<path fill-rule="evenodd" clip-rule="evenodd" d="M298.297 13.7832L303.074 13.7832L303.074 21.2321L309.713 21.2321L309.713 25.2804L303.074 25.2804L303.074 43.4167C303.074 44.7662 303.27 45.7782 303.661 46.4529C304.066 47.1142 304.579 47.5595 305.199 47.7889C305.834 48.0048 306.502 48.1127 307.203 48.1127C307.73 48.1127 308.161 48.0858 308.499 48.0318L309.308 47.8699L310.28 52.161C309.956 52.2825 309.504 52.4039 308.924 52.5254C308.344 52.6603 307.608 52.7278 306.718 52.7278C305.368 52.7278 304.046 52.4377 302.75 51.8574C301.468 51.2772 300.402 50.3933 299.552 49.2058C298.715 48.0183 298.297 46.5204 298.297 44.7122L298.297 25.2804L293.601 25.2804L293.601 21.2321L298.297 21.2321L298.297 13.7832Z" fill="#3A8478" style="fill:#3A8478;fill:color(display-p3 0.2275 0.5176 0.4706);fill-opacity:1;"/>
<path d="M317.741 33.6196L317.741 52.3227L312.964 52.3227L312.964 10.8682L317.741 10.8682L317.741 26.0898L318.146 26.0898C318.875 24.4839 319.968 23.2087 321.425 22.2641C322.896 21.306 324.853 20.827 327.295 20.827C329.414 20.827 331.269 21.252 332.861 22.1022C334.454 22.9388 335.689 24.2275 336.566 25.9683C337.456 27.6956 337.902 29.8952 337.902 32.567L337.902 52.3227L333.125 52.3227L333.125 32.8909C333.125 30.4214 332.484 28.512 331.202 27.1626C329.933 25.7996 328.172 25.1182 325.919 25.1182C324.353 25.1182 322.95 25.4488 321.708 26.11C320.48 26.7712 319.509 27.7361 318.794 29.0045C318.092 30.273 317.741 31.8113 317.741 33.6196Z" fill="#3A8478" style="fill:#3A8478;fill:color(display-p3 0.2275 0.5176 0.4706);fill-opacity:1;"/>
<path fill-rule="evenodd" clip-rule="evenodd" d="M31.9822 10.7301C34 10.7301 35.7736 11.1365 37.3041 11.9492C38.826 12.7619 40.0144 13.9295 40.8695 15.4523C41.4398 16.4783 41.8178 17.6443 42.0038 18.9498C43.272 18.7396 44.4704 18.7459 45.5989 18.9721C47.3079 19.3071 48.7852 20.0775 50.0306 21.2827C51.2734 22.4799 52.2064 24.0389 52.83 25.959C53.4535 27.8792 53.6158 29.693 53.3162 31.4006C53.014 33.1 52.2713 34.5921 51.0881 35.8763C50.2849 36.7406 49.2867 37.4626 48.095 38.0447C48.6892 39.1891 49.0538 40.3344 49.1879 41.4809C49.3976 43.2107 49.1218 44.8546 48.3611 46.4122C47.6073 47.9648 46.4145 49.3347 44.782 50.5215C43.1495 51.7082 41.4751 52.4229 39.7595 52.6655C38.0508 52.903 36.4029 52.6573 34.8166 51.9282C34.617 51.8354 34.4201 51.7347 34.2258 51.626C33.4351 51.1836 32.6878 50.6091 31.9822 49.9037C31.1031 50.7826 30.1585 51.458 29.1469 51.9282C27.5605 52.6573 25.9128 52.903 24.2041 52.6655C22.4885 52.4228 20.8144 51.7082 19.182 50.5215C17.5495 49.3347 16.3562 47.9648 15.6023 46.4122C14.8416 44.8546 14.566 43.2106 14.7757 41.4809C14.9098 40.3345 15.2751 39.1896 15.8692 38.0452C14.6773 37.4631 13.6794 36.7406 12.8761 35.8763C11.6929 34.5921 10.95 33.1 10.6478 31.4006C10.3482 29.6931 10.5102 27.8791 11.1336 25.959C11.7572 24.0388 12.6907 22.4799 13.9335 21.2827C15.179 20.0775 16.6562 19.3071 18.3653 18.9721C19.4937 18.746 20.6917 18.7397 21.9598 18.9498C22.1458 17.6443 22.5236 16.4783 23.0939 15.4523C23.9489 13.9296 25.1375 12.762 26.6593 11.9492C28.1898 11.1365 29.9643 10.7301 31.9822 10.7301ZM31.9824 14.9331C30.3681 14.9331 28.9485 15.2581 27.7241 15.9082C26.5067 16.5584 25.556 17.4925 24.8721 18.7106C24.4158 19.5314 24.1136 20.4642 23.9647 21.5086C22.9503 21.3405 21.9919 21.3456 21.0892 21.5265C19.722 21.7945 18.5402 22.4107 17.5438 23.3749C16.5496 24.3326 15.8027 25.5797 15.3039 27.1159C14.8051 28.6519 14.6757 30.103 14.9153 31.469C15.1571 32.8285 15.7513 34.0222 16.6978 35.0495C17.3404 35.7409 18.1388 36.3188 19.0923 36.7844C18.617 37.6999 18.3249 38.6158 18.2177 39.5329C18.0499 40.9167 18.2704 42.2318 18.8789 43.4778C19.482 44.7199 20.4365 45.8157 21.7425 46.7651C23.0484 47.7144 24.3876 48.2863 25.76 48.4804C27.1269 48.6704 28.4452 48.4738 29.7142 47.8905C30.5235 47.5143 31.2791 46.974 31.9824 46.2709C32.5469 46.8353 33.1448 47.2947 33.7772 47.6486C33.9327 47.7356 34.0901 47.8163 34.2498 47.8905C35.5188 48.4738 36.8371 48.6704 38.204 48.4804C39.5765 48.2863 40.916 47.7145 42.2219 46.7651C43.5278 45.8157 44.482 44.7199 45.085 43.4778C45.6936 42.2317 45.9143 40.9167 45.7465 39.5329C45.6392 38.6158 45.3476 37.6996 44.8723 36.784C45.8256 36.3184 46.624 35.7409 47.2665 35.0495C48.2131 34.0222 48.8072 32.8285 49.049 31.469C49.2887 30.103 49.1589 28.6519 48.6601 27.1159C48.1613 25.5797 47.4147 24.3326 46.4205 23.3749C45.4242 22.4108 44.2425 21.7945 42.8754 21.5265C41.9726 21.3456 41.0138 21.3404 39.9993 21.5086C39.8504 20.4642 39.5482 19.5314 39.0919 18.7106C38.4079 17.4925 37.4573 16.5584 36.2398 15.9082C35.0155 15.2581 33.5966 14.9331 31.9824 14.9331Z" fill="#3A8478" style="fill:#3A8478;fill:color(display-p3 0.2275 0.5176 0.4706);fill-opacity:1;"/>
<path fill-rule="evenodd" clip-rule="evenodd" d="M31.9811 14.932C33.5954 14.932 35.0142 15.2572 36.2386 15.9073C37.4561 16.5575 38.4069 17.4915 39.0909 18.7097C39.5471 19.5305 39.8494 20.4631 39.9982 21.5075C41.0128 21.3393 41.9715 21.3445 42.8743 21.5254C44.2414 21.7934 45.4232 22.4097 46.4195 23.3738C47.4137 24.3315 48.1601 25.5787 48.6589 27.1148C49.1577 28.6509 49.2876 30.102 49.048 31.468C48.8062 32.8275 48.212 34.0211 47.2655 35.0484C46.623 35.7398 45.8244 36.3173 44.8711 36.7829C45.3464 37.6985 45.638 38.6147 45.7453 39.5318C45.9131 40.9156 45.6926 42.2308 45.084 43.4769C44.481 44.7189 43.5268 45.8148 42.2209 46.7642C40.9149 47.7136 39.5753 48.2852 38.2028 48.4793C36.8359 48.6693 35.5177 48.4727 34.2487 47.8894C34.0891 47.8152 33.9315 47.7347 33.776 47.6477C33.1435 47.2938 32.5457 46.8342 31.9811 46.2698C31.2779 46.9729 30.5223 47.5132 29.713 47.8894C28.444 48.4727 27.1259 48.6693 25.7589 48.4793C24.3865 48.2852 23.0473 47.7135 21.7414 46.7642C20.4355 45.8148 19.481 44.719 18.8779 43.4769C18.2693 42.2308 18.0486 40.9156 18.2164 39.5318C18.3237 38.6148 18.616 37.699 19.0912 36.7835C18.1378 36.3178 17.3394 35.7399 16.6968 35.0484C15.7503 34.0211 15.1561 32.8275 14.9143 31.468C14.6747 30.1021 14.8041 28.6508 15.3028 27.1148C15.8017 25.5786 16.5486 24.3315 17.5428 23.3738C18.5391 22.4097 19.7208 21.7934 21.088 21.5254C21.9907 21.3445 22.9491 21.3394 23.9635 21.5075C24.1123 20.4631 24.4146 19.5305 24.8708 18.7097C25.5548 17.4916 26.5057 16.5575 27.7231 15.9073C28.9475 15.2572 30.3669 14.932 31.9811 14.932ZM31.9808 18.2928C30.6893 18.2928 29.5536 18.5529 28.5741 19.0731C27.6001 19.5933 26.8394 20.3404 26.2922 21.315C25.9272 21.9716 25.6853 22.718 25.5662 23.5536C24.7546 23.4191 23.9879 23.423 23.2656 23.5677C22.1719 23.7821 21.2265 24.2752 20.4294 25.0466C19.6339 25.8128 19.0364 26.8106 18.6374 28.0396C18.2383 29.2685 18.1346 30.4295 18.3263 31.5223C18.5198 32.61 18.9952 33.5649 19.7525 34.3868C20.2666 34.94 20.9053 35.4023 21.6681 35.7748C21.2879 36.5073 21.0542 37.2402 20.9684 37.9739C20.8341 39.0809 21.0106 40.133 21.4974 41.1299C21.9799 42.1236 22.7436 43.0004 23.7885 43.7599C24.8332 44.5195 25.9046 44.9769 27.0026 45.1322C28.0962 45.2842 29.1508 45.1269 30.1661 44.6602C30.8135 44.3593 31.4181 43.9271 31.9808 43.3645C32.4324 43.8161 32.9108 44.1836 33.4168 44.4667C33.5412 44.5363 33.6672 44.6009 33.7949 44.6602C34.8101 45.1269 35.8647 45.2842 36.9584 45.1322C38.0564 44.9769 39.1281 44.5195 40.1729 43.7599C41.2177 43.0004 41.981 42.1236 42.4635 41.1299C42.9504 40.133 43.1268 39.081 42.9926 37.9739C42.9068 37.2401 42.6735 36.507 42.2932 35.7745C43.0559 35.4019 43.6948 34.9399 44.2089 34.3868C44.9661 33.5649 45.4416 32.61 45.635 31.5223C45.8267 30.4295 45.7226 29.2686 45.3236 28.0396C44.9245 26.8107 44.3274 25.8128 43.532 25.0466C42.7349 24.2752 41.7895 23.7821 40.6957 23.5677C39.9734 23.4229 39.2064 23.4191 38.3948 23.5536C38.2757 22.718 38.0338 21.9716 37.6688 21.315C37.1215 20.3404 36.3609 19.5933 35.3869 19.0731C34.4073 18.5529 33.2722 18.2928 31.9808 18.2928Z" fill="#52A395" style="fill:#52A395;fill:color(display-p3 0.3216 0.6392 0.5843);fill-opacity:1;"/>
<path fill-rule="evenodd" clip-rule="evenodd" d="M31.9819 18.2938C33.2733 18.2938 34.4085 18.554 35.388 19.0741C36.362 19.5943 37.1226 20.3416 37.6699 21.3162C38.0349 21.9728 38.2768 22.719 38.3959 23.5546C39.2076 23.4201 39.9745 23.4241 40.6968 23.5689C41.7905 23.7833 42.736 24.2763 43.5331 25.0476C44.3285 25.8138 44.9258 26.8117 45.3249 28.0406C45.7239 29.2696 45.8278 30.4305 45.6361 31.5233C45.4427 32.611 44.9672 33.5659 44.21 34.3878C43.6959 34.9409 43.0571 35.4031 42.2944 35.7757C42.6746 36.5081 42.9079 37.2411 42.9937 37.9749C43.128 39.082 42.9515 40.134 42.4646 41.1309C41.9822 42.1246 41.2188 43.0014 40.174 43.761C39.1292 44.5205 38.0575 44.9779 36.9595 45.1332C35.8659 45.2852 34.8112 45.1279 33.796 44.6612C33.6683 44.6019 33.5422 44.5375 33.4179 44.4679C32.9119 44.1848 32.4335 43.8171 31.9819 43.3656C31.4192 43.9281 30.8147 44.3603 30.1672 44.6612C29.1519 45.1279 28.0973 45.2852 27.0037 45.1332C25.9057 44.9779 24.8343 44.5205 23.7896 43.761C22.7447 43.0014 21.981 42.1246 21.4986 41.1309C21.0117 40.1341 20.8352 39.0819 20.9695 37.9749C21.0553 37.2412 21.289 36.5084 21.6692 35.776C20.9064 35.4035 20.2677 34.941 19.7536 34.3878C18.9963 33.5659 18.5209 32.611 18.3275 31.5233C18.1357 30.4305 18.2394 29.2696 18.6385 28.0406C19.0376 26.8117 19.635 25.8138 20.4305 25.0476C21.2276 24.2763 22.173 23.7833 23.2668 23.5689C23.989 23.4242 24.7557 23.4201 25.5673 23.5546C25.6864 22.719 25.9283 21.9728 26.2933 21.3162C26.8405 20.3416 27.6012 19.5943 28.5752 19.0741C29.5547 18.554 30.6904 18.2938 31.9819 18.2938ZM31.9819 20.9817C30.9486 20.9817 30.04 21.1899 29.2562 21.6061C28.4769 22.0223 27.8682 22.6202 27.4303 23.4C27.1383 23.9254 26.9447 24.5224 26.8494 25.191C26.2001 25.0834 25.5867 25.0867 25.0089 25.2025C24.1337 25.374 23.3772 25.7686 22.7394 26.3858C22.103 26.9988 21.6249 27.7971 21.3056 28.7804C20.9863 29.7637 20.9035 30.6926 21.0569 31.567C21.2117 32.4372 21.592 33.2013 22.1979 33.8589C22.6092 34.3015 23.1202 34.6716 23.7305 34.9697C23.4263 35.5556 23.2392 36.1419 23.1706 36.7289C23.0632 37.6147 23.2044 38.4565 23.594 39.2542C23.98 40.0493 24.5911 40.7508 25.4271 41.3585C26.2631 41.9662 27.1203 42.3323 27.9989 42.4565C28.8739 42.5782 29.7177 42.4522 30.53 42.0788C31.048 41.838 31.5317 41.4922 31.9819 41.0422C32.3432 41.4035 32.726 41.6975 33.1309 41.924C33.2304 41.9797 33.3312 42.0313 33.4333 42.0788C34.2457 42.4522 35.0895 42.5781 35.9645 42.4565C36.8431 42.3323 37.7006 41.9663 38.5366 41.3585C39.3726 40.7508 39.9834 40.0492 40.3694 39.2542C40.759 38.4565 40.9002 37.6147 40.7928 36.7289C40.7241 36.1418 40.5373 35.5554 40.233 34.9693C40.8433 34.6712 41.3545 34.3015 41.7658 33.8589C42.3717 33.2013 42.7521 32.4372 42.9069 31.567C43.0603 30.6925 42.977 29.7637 42.6577 28.7804C42.3384 27.7971 41.8607 26.9988 41.2244 26.3858C40.5866 25.7686 39.83 25.374 38.9549 25.2025C38.377 25.0866 37.7633 25.0834 37.1139 25.191C37.0186 24.5225 36.8251 23.9254 36.533 23.4C36.0952 22.6202 35.4865 22.0222 34.7071 21.6061C33.9234 21.1899 33.0152 20.9817 31.9819 20.9817Z" fill="#81B983" style="fill:#81B983;fill:color(display-p3 0.5059 0.7255 0.5137);fill-opacity:1;"/>
</svg>
