<svg width="349" height="64" viewBox="0 0 349 64" fill="none" xmlns="http://www.w3.org/2000/svg">
<path d="M78.2841 52.8087C74.9105 52.8087 72.0227 52.1407 69.6207 50.8048C67.2187 49.4554 65.3768 47.5797 64.0948 45.1777C62.8129 42.7622 62.1719 39.9621 62.1719 36.7775C62.1719 33.5928 62.8129 30.7995 64.0948 28.3975C65.3768 25.982 67.2187 24.1063 69.6207 22.7704C72.0227 21.4209 74.9105 20.7462 78.2841 20.7462C81.3338 20.7462 83.9719 21.2995 86.1985 22.406C88.4386 23.4991 90.1726 25.0509 91.4006 27.0616C92.6285 29.0587 93.2493 31.4067 93.2628 34.1056L82.8991 34.1056C82.7507 32.4728 82.2784 31.2313 81.4822 30.3812C80.6996 29.5175 79.6875 29.0857 78.446 29.0857C77.4744 29.0857 76.6243 29.3691 75.8956 29.9358C75.1669 30.4891 74.6001 31.3325 74.1953 32.466C73.7905 33.5861 73.5881 34.9962 73.5881 36.6965C73.5881 38.3968 73.7905 39.8137 74.1953 40.9472C74.6001 42.0672 75.1669 42.9106 75.8956 43.4774C76.6243 44.0307 77.4744 44.3073 78.446 44.3073C79.2692 44.3073 79.9979 44.1184 80.6321 43.7405C81.2663 43.3492 81.7791 42.7824 82.1705 42.0403C82.5753 41.2846 82.8182 40.367 82.8991 39.2874L93.2628 39.2874C93.2223 42.0268 92.5948 44.4153 91.3803 46.4529C90.1658 48.477 88.4453 50.0424 86.2187 51.1489C84.0057 52.2555 81.3608 52.8087 78.2841 52.8087Z" fill="#080E2F" style="fill:#080E2F;fill:color(display-p3 0.0314 0.0549 0.1843);fill-opacity:1;"/>
<path d="M102.94 50.906C105.342 52.1745 108.202 52.8087 111.522 52.8087C114.396 52.8087 116.906 52.3769 119.052 51.5133C121.211 50.6361 122.945 49.4082 124.254 47.8293C125.563 46.237 126.393 44.3613 126.744 42.2022L116.542 42.2022C116.326 42.7824 115.989 43.2817 115.53 43.7001C115.071 44.1049 114.518 44.4153 113.87 44.6312C113.236 44.8471 112.534 44.955 111.765 44.955C110.658 44.955 109.714 44.7324 108.931 44.2871C108.148 43.8417 107.548 43.2278 107.13 42.4451C106.711 41.6624 106.502 40.7718 106.502 39.7732L106.502 39.2874L126.744 39.2874L126.744 36.6965C126.744 34.227 126.379 32.0072 125.651 30.0371C124.922 28.0669 123.883 26.3936 122.533 25.0172C121.184 23.6273 119.558 22.568 117.655 21.8393C115.752 21.1106 113.627 20.7462 111.279 20.7462C108.067 20.7462 105.281 21.4142 102.919 22.7501C100.558 24.0861 98.7294 25.955 97.4339 28.357C96.1385 30.759 95.4907 33.5658 95.4907 36.7775C95.4907 40.1241 96.1317 42.9983 97.4137 45.4003C98.7091 47.7888 100.551 49.6241 102.94 50.906ZM106.502 33.134C106.529 32.2299 106.765 31.4405 107.211 30.7657C107.669 30.091 108.277 29.5648 109.032 29.1869C109.788 28.7956 110.618 28.5999 111.522 28.5999C112.453 28.5999 113.283 28.7956 114.012 29.1869C114.754 29.5648 115.341 30.0978 115.773 30.786C116.218 31.4607 116.447 32.2434 116.461 33.134L106.502 33.134Z" fill="#080E2F" style="fill:#080E2F;fill:color(display-p3 0.0314 0.0549 0.1843);fill-opacity:1;"/>
<path d="M141.091 34.8343L141.091 52.3229L129.917 52.3229L129.917 21.232L140.524 21.232L140.524 27.1425L140.848 27.1425C141.523 25.1723 142.71 23.6272 144.41 22.5072C146.124 21.3872 148.121 20.8272 150.402 20.8272C152.601 20.8272 154.511 21.3332 156.13 22.3453C157.763 23.3438 159.025 24.7203 159.915 26.4745C160.819 28.2288 161.265 30.2327 161.251 32.4862L161.251 52.3229L150.078 52.3229L150.078 34.8343C150.091 33.2959 149.7 32.0882 148.904 31.211C148.121 30.3339 147.028 29.8953 145.625 29.8953C144.707 29.8953 143.904 30.0977 143.216 30.5026C142.541 30.8939 142.022 31.4607 141.658 32.2029C141.293 32.9316 141.104 33.8087 141.091 34.8343Z" fill="#080E2F" style="fill:#080E2F;fill:color(display-p3 0.0314 0.0549 0.1843);fill-opacity:1;"/>
<path d="M173.504 52.8087C171.52 52.8087 169.766 52.4848 168.241 51.8371C166.73 51.1759 165.542 50.1773 164.679 48.8414C163.815 47.5054 163.383 45.8051 163.383 43.7405C163.383 42.0402 163.673 40.5896 164.254 39.3886C164.834 38.1741 165.644 37.1823 166.683 36.4131C167.722 35.6439 168.929 35.0569 170.306 34.6521C171.696 34.2472 173.194 33.9841 174.799 33.8627C176.54 33.7277 177.937 33.5658 178.989 33.3769C180.056 33.1745 180.825 32.8978 181.297 32.547C181.769 32.1826 182.005 31.7036 182.005 31.1098L182.005 31.0289C182.005 30.2192 181.695 29.5985 181.074 29.1666C180.454 28.7348 179.657 28.5189 178.686 28.5189C177.62 28.5189 176.749 28.7551 176.075 29.2274C175.413 29.6862 175.015 30.3946 174.88 31.3527L164.598 31.3527C164.733 29.4635 165.333 27.7227 166.399 26.1304C167.479 24.5246 169.051 23.2426 171.116 22.2845C173.18 21.3129 175.758 20.8272 178.848 20.8272C181.074 20.8272 183.072 21.0903 184.839 21.6166C186.607 22.1294 188.112 22.8513 189.353 23.7824C190.595 24.7 191.539 25.7796 192.187 27.021C192.848 28.249 193.179 29.585 193.179 31.0289L193.179 52.3229L182.734 52.3229L182.734 47.9507L182.491 47.9507C181.871 49.1112 181.115 50.0491 180.224 50.7643C179.347 51.4795 178.342 51.999 177.208 52.3229C176.088 52.6468 174.853 52.8087 173.504 52.8087ZM177.148 45.7647C177.998 45.7647 178.794 45.5892 179.536 45.2384C180.292 44.8875 180.906 44.3815 181.378 43.7203C181.85 43.059 182.086 42.2561 182.086 41.3115L182.086 38.7206C181.79 38.8421 181.472 38.9568 181.135 39.0647C180.811 39.1727 180.46 39.2739 180.083 39.3683C179.718 39.4628 179.327 39.5505 178.909 39.6315C178.504 39.7124 178.079 39.7867 177.633 39.8541C176.77 39.9891 176.061 40.2117 175.508 40.5221C174.968 40.819 174.563 41.1901 174.293 41.6354C174.037 42.0672 173.909 42.553 173.909 43.0928C173.909 43.9564 174.212 44.6176 174.82 45.0764C175.427 45.5352 176.203 45.7647 177.148 45.7647Z" fill="#080E2F" style="fill:#080E2F;fill:color(display-p3 0.0314 0.0549 0.1843);fill-opacity:1;"/>
<path d="M205.644 33.6196L205.644 52.3227L200.867 52.3227L200.867 10.8682L205.644 10.8682L205.644 26.0898L206.049 26.0898C206.778 24.4839 207.871 23.2087 209.328 22.2641C210.799 21.306 212.756 20.827 215.198 20.827C217.317 20.827 219.172 21.252 220.765 22.1022C222.357 22.9388 223.592 24.2275 224.469 25.9683C225.359 27.6956 225.805 29.8952 225.805 32.567L225.805 52.3227L221.028 52.3227L221.028 32.8909C221.028 30.4214 220.387 28.512 219.105 27.1626C217.836 25.7996 216.075 25.1182 213.822 25.1182C212.256 25.1182 210.853 25.4488 209.612 26.11C208.384 26.7712 207.412 27.7361 206.697 29.0045C205.995 30.273 205.644 31.8113 205.644 33.6196Z" fill="#384586" style="fill:#384586;fill:color(display-p3 0.2196 0.2706 0.5255);fill-opacity:1;"/>
<path d="M234.67 50.8251C236.842 52.1475 239.426 52.8088 242.422 52.8088C244.527 52.8088 246.423 52.4849 248.11 51.8372C249.797 51.1759 251.214 50.2583 252.361 49.0843C253.508 47.8968 254.324 46.5204 254.81 44.9551L250.195 43.6596C249.79 44.7392 249.216 45.6433 248.474 46.372C247.732 47.0872 246.848 47.6269 245.823 47.9913C244.811 48.3421 243.677 48.5176 242.422 48.5176C240.492 48.5176 238.799 48.0992 237.341 47.2626C235.884 46.4124 234.744 45.1777 233.921 43.5584C233.187 42.0779 232.785 40.3034 232.717 38.2349L255.296 38.2349L255.296 36.2107C255.296 33.3095 254.911 30.867 254.142 28.8833C253.373 26.8997 252.34 25.3073 251.045 24.1063C249.75 22.8918 248.312 22.0147 246.734 21.4749C245.155 20.9352 243.556 20.6653 241.936 20.6653C239.129 20.6653 236.674 21.3535 234.568 22.7299C232.477 24.0928 230.844 25.9955 229.67 28.438C228.509 30.867 227.929 33.6738 227.929 36.8585C227.929 40.0431 228.509 42.8364 229.67 45.2384C230.844 47.6269 232.511 49.4891 234.67 50.8251ZM232.729 34.1056C232.82 32.6634 233.183 31.3005 233.819 30.0168C234.562 28.519 235.621 27.3045 236.997 26.3734C238.387 25.4288 240.034 24.9565 241.936 24.9565C243.664 24.9565 245.161 25.3546 246.43 26.1507C247.712 26.9469 248.697 28.0332 249.385 29.4096C250.087 30.786 250.438 32.3514 250.438 34.1056L232.729 34.1056Z" fill="#384586" style="fill:#384586;fill:color(display-p3 0.2196 0.2706 0.5255);fill-opacity:1;"/>
<path d="M267.921 52.8088C265.951 52.8088 264.163 52.4377 262.557 51.6955C260.951 50.9398 259.676 49.8535 258.731 48.4366C257.787 47.0062 257.314 45.279 257.314 43.2548C257.314 41.4736 257.665 40.0297 258.367 38.9231C259.068 37.8031 260.006 36.926 261.18 36.2917C262.354 35.6575 263.65 35.1852 265.067 34.8748C266.497 34.551 267.934 34.2946 269.378 34.1057C271.267 33.8628 272.799 33.6806 273.973 33.5591C275.16 33.4242 276.024 33.2015 276.564 32.8912C277.117 32.5808 277.394 32.041 277.394 31.2719L277.394 31.1099C277.394 29.1128 276.847 27.5609 275.754 26.4544C274.675 25.3478 273.035 24.7946 270.836 24.7946C268.555 24.7946 266.767 25.2939 265.472 26.2924C264.176 27.291 263.265 28.3571 262.739 29.4906L258.205 27.8713C259.014 25.9821 260.094 24.5112 261.443 23.4586C262.806 22.3926 264.291 21.6504 265.897 21.2321C267.516 20.8003 269.108 20.5844 270.674 20.5844C271.672 20.5844 272.819 20.7058 274.115 20.9487C275.424 21.1781 276.685 21.6571 277.9 22.3858C279.128 23.1145 280.147 24.2143 280.956 25.6852C281.766 27.1561 282.171 29.1263 282.171 31.5957L282.171 52.0801L277.394 52.0801L277.394 47.8699L277.151 47.8699C276.827 48.5446 276.287 49.2665 275.532 50.0357C274.776 50.8049 273.771 51.4594 272.516 51.9991C271.261 52.5389 269.729 52.8088 267.921 52.8088ZM268.649 48.5176C270.539 48.5176 272.131 48.1465 273.426 47.4043C274.735 46.6621 275.72 45.704 276.382 44.53C277.056 43.356 277.394 42.1213 277.394 40.8258L277.394 36.4537C277.191 36.6966 276.746 36.9192 276.058 37.1216C275.383 37.3106 274.6 37.4792 273.71 37.6277C272.833 37.7626 271.976 37.8841 271.139 37.992C270.316 38.0865 269.648 38.1674 269.135 38.2349C267.894 38.3969 266.733 38.66 265.654 39.0243C264.588 39.3752 263.724 39.9082 263.063 40.6234C262.415 41.3251 262.091 42.2832 262.091 43.4977C262.091 45.1575 262.705 46.4125 263.933 47.2626C265.175 48.0993 266.747 48.5176 268.649 48.5176Z" fill="#384586" style="fill:#384586;fill:color(display-p3 0.2196 0.2706 0.5255);fill-opacity:1;"/>
<path d="M290.704 10.8682L290.704 52.3227L285.927 52.3227L285.927 10.8682L290.704 10.8682Z" fill="#384586" style="fill:#384586;fill:color(display-p3 0.2196 0.2706 0.5255);fill-opacity:1;"/>
<path fill-rule="evenodd" clip-rule="evenodd" d="M298.297 13.7832L303.074 13.7832L303.074 21.2321L309.714 21.2321L309.714 25.2804L303.074 25.2804L303.074 43.4167C303.074 44.7662 303.27 45.7782 303.661 46.4529C304.066 47.1142 304.579 47.5595 305.2 47.7889C305.834 48.0048 306.502 48.1127 307.204 48.1127C307.73 48.1127 308.162 48.0858 308.499 48.0318L309.309 47.8699L310.28 52.161C309.956 52.2825 309.504 52.4039 308.924 52.5254C308.344 52.6603 307.608 52.7278 306.718 52.7278C305.368 52.7278 304.046 52.4377 302.75 51.8574C301.468 51.2772 300.402 50.3933 299.552 49.2058C298.716 48.0183 298.297 46.5204 298.297 44.7122L298.297 25.2804L293.601 25.2804L293.601 21.2321L298.297 21.2321L298.297 13.7832Z" fill="#384586" style="fill:#384586;fill:color(display-p3 0.2196 0.2706 0.5255);fill-opacity:1;"/>
<path d="M317.741 33.6196L317.741 52.3227L312.964 52.3227L312.964 10.8682L317.741 10.8682L317.741 26.0898L318.146 26.0898C318.875 24.4839 319.968 23.2087 321.425 22.2641C322.896 21.306 324.853 20.827 327.295 20.827C329.414 20.827 331.269 21.252 332.862 22.1022C334.454 22.9388 335.689 24.2275 336.566 25.9683C337.457 27.6956 337.902 29.8952 337.902 32.567L337.902 52.3227L333.125 52.3227L333.125 32.8909C333.125 30.4214 332.484 28.512 331.202 27.1626C329.933 25.7996 328.172 25.1182 325.919 25.1182C324.354 25.1182 322.95 25.4488 321.709 26.11C320.481 26.7712 319.509 27.7361 318.794 29.0045C318.092 30.273 317.741 31.8113 317.741 33.6196Z" fill="#384586" style="fill:#384586;fill:color(display-p3 0.2196 0.2706 0.5255);fill-opacity:1;"/>
<path fill-rule="evenodd" clip-rule="evenodd" d="M31.9822 10.73C34 10.73 35.7736 11.1364 37.3041 11.9491C38.826 12.7618 40.0144 13.9294 40.8695 15.4522C41.4398 16.4781 41.8178 17.6441 42.0038 18.9497C43.272 18.7395 44.4704 18.7458 45.5989 18.972C47.3079 19.307 48.7852 20.0774 50.0306 21.2826C51.2734 22.4798 52.2064 24.0387 52.83 25.9589C53.4535 27.8791 53.6158 29.6929 53.3162 31.4005C53.014 33.0999 52.2713 34.592 51.0881 35.8762C50.2849 36.7404 49.2867 37.4625 48.095 38.0445C48.6892 39.189 49.0538 40.3343 49.1879 41.4808C49.3976 43.2106 49.1218 44.8544 48.3611 46.4121C47.6073 47.9647 46.4145 49.3346 44.782 50.5214C43.1495 51.7081 41.4751 52.4227 39.7595 52.6653C38.0508 52.9029 36.4029 52.6572 34.8166 51.9281C34.617 51.8353 34.4201 51.7346 34.2258 51.6258C33.4351 51.1834 32.6878 50.609 31.9822 49.9035C31.1031 50.7824 30.1585 51.4578 29.1469 51.9281C27.5605 52.6572 25.9128 52.9029 24.2041 52.6653C22.4885 52.4227 20.8144 51.7081 19.182 50.5214C17.5495 49.3346 16.3562 47.9647 15.6023 46.4121C14.8416 44.8545 14.566 43.2105 14.7757 41.4808C14.9098 40.3344 15.2751 39.1895 15.8692 38.0451C14.6773 37.463 13.6794 36.7405 12.8761 35.8762C11.6929 34.592 10.95 33.0999 10.6478 31.4005C10.3482 29.6929 10.5102 27.879 11.1336 25.9589C11.7572 24.0387 12.6907 22.4798 13.9335 21.2826C15.179 20.0774 16.6562 19.3069 18.3653 18.972C19.4937 18.7459 20.6917 18.7395 21.9598 18.9497C22.1458 17.6441 22.5236 16.4782 23.0939 15.4522C23.9489 13.9294 25.1375 12.7618 26.6593 11.9491C28.1898 11.1363 29.9643 10.73 31.9822 10.73ZM31.9824 14.933C30.3681 14.933 28.9485 15.2579 27.7241 15.9081C26.5067 16.5583 25.556 17.4924 24.8721 18.7105C24.4158 19.5313 24.1136 20.4641 23.9647 21.5085C22.9503 21.3404 21.9919 21.3455 21.0892 21.5264C19.722 21.7943 18.5402 22.4106 17.5438 23.3748C16.5496 24.3325 15.8027 25.5796 15.3039 27.1157C14.8051 28.6518 14.6757 30.1029 14.9153 31.4688C15.1571 32.8283 15.7513 34.0221 16.6978 35.0494C17.3404 35.7408 18.1388 36.3186 19.0923 36.7843C18.617 37.6998 18.3249 38.6157 18.2177 39.5328C18.0499 40.9166 18.2704 42.2316 18.8789 43.4777C19.482 44.7198 20.4365 45.8156 21.7425 46.765C23.0484 47.7143 24.3876 48.2861 25.76 48.4802C27.1269 48.6703 28.4452 48.4737 29.7142 47.8904C30.5235 47.5142 31.2791 46.9739 31.9824 46.2708C32.5469 46.8351 33.1448 47.2946 33.7772 47.6485C33.9327 47.7355 34.0901 47.8162 34.2498 47.8904C35.5188 48.4737 36.8371 48.6703 38.204 48.4802C39.5765 48.2862 40.916 47.7144 42.2219 46.765C43.5278 45.8156 44.482 44.7197 45.085 43.4777C45.6936 42.2316 45.9143 40.9166 45.7465 39.5328C45.6392 38.6156 45.3476 37.6995 44.8723 36.7839C45.8256 36.3183 46.624 35.7408 47.2665 35.0494C48.2131 34.0221 48.8072 32.8283 49.049 31.4688C49.2887 30.1029 49.1589 28.6518 48.6601 27.1157C48.1613 25.5796 47.4147 24.3325 46.4205 23.3748C45.4242 22.4106 44.2425 21.7944 42.8754 21.5264C41.9726 21.3455 41.0138 21.3403 39.9993 21.5085C39.8504 20.4641 39.5482 19.5313 39.0919 18.7105C38.4079 17.4924 37.4573 16.5583 36.2398 15.9081C35.0155 15.258 33.5966 14.933 31.9824 14.933Z" fill="#080E2F" style="fill:#080E2F;fill:color(display-p3 0.0314 0.0549 0.1843);fill-opacity:1;"/>
<path fill-rule="evenodd" clip-rule="evenodd" d="M31.9809 14.9319C33.5952 14.9319 35.014 15.257 36.2384 15.9072C37.4559 16.5574 38.4066 17.4914 39.0907 18.7096C39.5469 19.5303 39.8491 20.463 39.998 21.5074C41.0125 21.3392 41.9713 21.3444 42.8741 21.5253C44.2412 21.7933 45.4229 22.4096 46.4192 23.3737C47.4135 24.3314 48.1598 25.5786 48.6586 27.1146C49.1574 28.6507 49.2874 30.1019 49.0477 31.4679C48.806 32.8274 48.2118 34.021 47.2653 35.0483C46.6227 35.7397 45.8242 36.3172 44.8708 36.7828C45.3462 37.6983 45.6378 38.6146 45.745 39.5317C45.9128 40.9155 45.6924 42.2307 45.0838 43.4768C44.4807 44.7188 43.5265 45.8147 42.2206 46.7641C40.9147 47.7135 39.575 48.2851 38.2026 48.4791C36.8356 48.6692 35.5175 48.4726 34.2485 47.8893C34.0888 47.8151 33.9312 47.7346 33.7758 47.6476C33.1433 47.2937 32.5454 46.8341 31.9809 46.2697C31.2776 46.9728 30.522 47.5131 29.7127 47.8893C28.4437 48.4726 27.1256 48.6692 25.7587 48.4791C24.3863 48.285 23.0471 47.7134 21.7412 46.7641C20.4352 45.8147 19.4807 44.7188 18.8777 43.4768C18.2691 42.2307 18.0484 40.9155 18.2162 39.5317C18.3235 38.6146 18.6157 37.6988 19.091 36.7834C18.1375 36.3177 17.3391 35.7397 16.6965 35.0483C15.75 34.021 15.1558 32.8274 14.9141 31.4679C14.6744 30.1019 14.8038 28.6507 15.3026 27.1146C15.8014 25.5785 16.5483 24.3314 17.5426 23.3737C18.5389 22.4096 19.7206 21.7933 21.0877 21.5253C21.9904 21.3444 22.9489 21.3393 23.9632 21.5074C24.1121 20.463 24.4144 19.5303 24.8706 18.7096C25.5545 17.4914 26.5054 16.5574 27.7229 15.9072C28.9472 15.257 30.3667 14.9319 31.9809 14.9319ZM31.9805 18.2927C30.689 18.2927 29.5534 18.5528 28.5738 19.073C27.5999 19.5931 26.8392 20.3403 26.292 21.3149C25.9269 21.9715 25.685 22.7179 25.5659 23.5535C24.7544 23.419 23.9876 23.4228 23.2654 23.5676C22.1716 23.7819 21.2262 24.2751 20.4291 25.0465C19.6337 25.8127 19.0362 26.8105 18.6371 28.0395C18.2381 29.2684 18.1344 30.4294 18.3261 31.5222C18.5195 32.6098 18.995 33.5648 19.7522 34.3867C20.2663 34.9398 20.9051 35.4022 21.6679 35.7747C21.2876 36.5071 21.0539 37.2401 20.9681 37.9737C20.8339 39.0808 21.0103 40.1329 21.4972 41.1298C21.9797 42.1235 22.7434 43.0003 23.7882 43.7598C24.833 44.5193 25.9044 44.9768 27.0024 45.1321C28.096 45.2841 29.1506 45.1268 30.1658 44.6601C30.8133 44.3591 31.4179 43.9269 31.9805 43.3644C32.4321 43.816 32.9106 44.1835 33.4166 44.4666C33.5409 44.5362 33.6669 44.6007 33.7946 44.6601C34.8099 45.1268 35.8645 45.2841 36.9581 45.1321C38.0562 44.9768 39.1278 44.5194 40.1726 43.7598C41.2174 43.0003 41.9808 42.1235 42.4633 41.1298C42.9501 40.1329 43.1266 39.0808 42.9924 37.9737C42.9065 37.24 42.6733 36.5068 42.293 35.7743C43.0557 35.4018 43.6946 34.9398 44.2086 34.3867C44.9659 33.5648 45.4413 32.6099 45.6348 31.5222C45.8265 30.4293 45.7224 29.2684 45.3234 28.0395C44.9243 26.8105 44.3272 25.8127 43.5317 25.0465C42.7346 24.2751 41.7892 23.782 40.6954 23.5676C39.9732 23.4228 39.2062 23.4189 38.3945 23.5535C38.2754 22.7179 38.0335 21.9715 37.6685 21.3149C37.1213 20.3403 36.3607 19.5931 35.3866 19.073C34.4071 18.5528 33.272 18.2927 31.9805 18.2927Z" fill="#4B589C" style="fill:#4B589C;fill:color(display-p3 0.2941 0.3451 0.6118);fill-opacity:1;"/>
<path fill-rule="evenodd" clip-rule="evenodd" d="M31.9816 18.2937C33.2731 18.2937 34.4082 18.5538 35.3878 19.074C36.3618 19.5942 37.1224 20.3415 37.6696 21.3161C38.0346 21.9727 38.2766 22.7189 38.3956 23.5545C39.2073 23.4199 39.9743 23.424 40.6966 23.5688C41.7903 23.7832 42.7357 24.2761 43.5328 25.0475C44.3283 25.8137 44.9256 26.8116 45.3247 28.0405C45.7237 29.2694 45.8276 30.4304 45.6359 31.5232C45.4424 32.6109 44.967 33.5658 44.2097 34.3877C43.6957 34.9408 43.0568 35.403 42.2941 35.7755C42.6744 36.508 42.9076 37.241 42.9935 37.9748C43.1277 39.0819 42.9513 40.1339 42.4644 41.1308C41.9819 42.1245 41.2185 43.0013 40.1738 43.7608C39.1289 44.5204 38.0573 44.9778 36.9592 45.1331C35.8656 45.2851 34.811 45.1278 33.7957 44.6611C33.668 44.6018 33.542 44.5374 33.4177 44.4678C32.9117 44.1847 32.4333 43.817 31.9816 43.3654C31.419 43.928 30.8144 44.3602 30.167 44.6611C29.1517 45.1278 28.0971 45.2851 27.0035 45.1331C25.9055 44.9778 24.8341 44.5203 23.7893 43.7608C22.7445 43.0013 21.9808 42.1245 21.4983 41.1308C21.0115 40.1339 20.835 39.0818 20.9692 37.9748C21.055 37.2411 21.2888 36.5083 21.669 35.7759C20.9062 35.4034 20.2674 34.9409 19.7533 34.3877C18.9961 33.5658 18.5206 32.6109 18.3272 31.5232C18.1355 30.4304 18.2392 29.2694 18.6382 28.0405C19.0373 26.8115 19.6348 25.8137 20.4302 25.0475C21.2273 24.2761 22.1728 23.7832 23.2665 23.5688C23.9887 23.424 24.7555 23.42 25.567 23.5545C25.6861 22.7189 25.9281 21.9727 26.2931 21.3161C26.8403 20.3415 27.6009 19.5942 28.5749 19.074C29.5545 18.5538 30.6902 18.2937 31.9816 18.2937ZM31.9816 20.9816C30.9483 20.9816 30.0397 21.1898 29.256 21.6059C28.4767 22.0221 27.8679 22.6201 27.4301 23.3998C27.138 23.9252 26.9445 24.5223 26.8492 25.1909C26.1999 25.0833 25.5864 25.0865 25.0086 25.2023C24.1334 25.3738 23.3769 25.7684 22.7391 26.3856C22.1027 26.9987 21.6247 27.797 21.3054 28.7803C20.9861 29.7635 20.9032 30.6924 21.0566 31.5668C21.2114 32.4371 21.5917 33.2012 22.1977 33.8588C22.609 34.3014 23.12 34.6715 23.7303 34.9695C23.4261 35.5555 23.239 36.1418 23.1703 36.7288C23.0629 37.6146 23.2042 38.4564 23.5937 39.2541C23.9798 40.0491 24.5909 40.7507 25.4269 41.3584C26.2628 41.9661 27.1201 42.3321 27.9986 42.4564C28.8736 42.578 29.7174 42.4521 30.5298 42.0787C31.0478 41.8379 31.5315 41.4921 31.9816 41.0421C32.343 41.4033 32.7258 41.6973 33.1307 41.9239C33.2301 41.9795 33.3309 42.0312 33.4331 42.0787C34.2454 42.4521 35.0893 42.578 35.9643 42.4564C36.8428 42.3322 37.7004 41.9661 38.5364 41.3584C39.3723 40.7507 39.9831 40.0491 40.3692 39.2541C40.7587 38.4564 40.9 37.6146 40.7925 36.7288C40.7239 36.1417 40.5371 35.5552 40.2328 34.9692C40.843 34.6711 41.3543 34.3014 41.7656 33.8588C42.3715 33.2012 42.7519 32.4371 42.9066 31.5668C43.06 30.6924 42.9768 29.7635 42.6575 28.7803C42.3382 27.797 41.8605 26.9987 41.2241 26.3856C40.5863 25.7684 39.8298 25.3739 38.9546 25.2023C38.3767 25.0865 37.7631 25.0833 37.1137 25.1909C37.0184 24.5223 36.8248 23.9252 36.5328 23.3998C36.0949 22.6201 35.4862 22.0221 34.7069 21.6059C33.9231 21.1898 33.0149 20.9816 31.9816 20.9816Z" fill="#52A395" style="fill:#52A395;fill:color(display-p3 0.3216 0.6392 0.5843);fill-opacity:1;"/>
</svg>
