<svg width="64" height="63" viewBox="0 0 64 63" fill="none" xmlns="http://www.w3.org/2000/svg">
<path fill-rule="evenodd" clip-rule="evenodd" d="M31.9822 10.7301C34 10.7301 35.7736 11.1365 37.3041 11.9492C38.826 12.7619 40.0144 13.9295 40.8695 15.4523C41.4398 16.4783 41.8178 17.6443 42.0038 18.9498C43.272 18.7396 44.4704 18.7459 45.5989 18.9721C47.3079 19.3071 48.7852 20.0775 50.0306 21.2827C51.2734 22.4799 52.2064 24.0389 52.83 25.959C53.4535 27.8792 53.6158 29.693 53.3162 31.4006C53.014 33.1 52.2713 34.5921 51.0881 35.8763C50.2849 36.7406 49.2867 37.4626 48.095 38.0447C48.6892 39.1891 49.0538 40.3344 49.1879 41.4809C49.3976 43.2107 49.1218 44.8546 48.3611 46.4122C47.6073 47.9648 46.4145 49.3347 44.782 50.5215C43.1495 51.7082 41.4751 52.4229 39.7595 52.6655C38.0508 52.903 36.4029 52.6573 34.8166 51.9282C34.617 51.8354 34.4201 51.7347 34.2258 51.626C33.4351 51.1836 32.6878 50.6091 31.9822 49.9037C31.1031 50.7826 30.1585 51.458 29.1469 51.9282C27.5605 52.6573 25.9128 52.903 24.2041 52.6655C22.4885 52.4228 20.8144 51.7082 19.182 50.5215C17.5495 49.3347 16.3562 47.9648 15.6023 46.4122C14.8416 44.8546 14.566 43.2106 14.7757 41.4809C14.9098 40.3345 15.2751 39.1896 15.8692 38.0452C14.6773 37.4631 13.6794 36.7406 12.8761 35.8763C11.6929 34.5921 10.95 33.1 10.6478 31.4006C10.3482 29.6931 10.5102 27.8791 11.1336 25.959C11.7572 24.0388 12.6907 22.4799 13.9335 21.2827C15.179 20.0775 16.6562 19.3071 18.3653 18.9721C19.4937 18.746 20.6917 18.7397 21.9598 18.9498C22.1458 17.6443 22.5236 16.4783 23.0939 15.4523C23.9489 13.9296 25.1375 12.762 26.6593 11.9492C28.1898 11.1365 29.9643 10.7301 31.9822 10.7301ZM31.9824 14.9331C30.3681 14.9331 28.9485 15.2581 27.7241 15.9082C26.5067 16.5584 25.556 17.4925 24.8721 18.7106C24.4158 19.5314 24.1136 20.4642 23.9647 21.5086C22.9503 21.3405 21.9919 21.3456 21.0892 21.5265C19.722 21.7945 18.5402 22.4107 17.5438 23.3749C16.5496 24.3326 15.8027 25.5797 15.3039 27.1159C14.8051 28.6519 14.6757 30.103 14.9153 31.469C15.1571 32.8285 15.7513 34.0222 16.6978 35.0495C17.3404 35.7409 18.1388 36.3188 19.0923 36.7844C18.617 37.6999 18.3249 38.6158 18.2177 39.5329C18.0499 40.9167 18.2704 42.2318 18.8789 43.4778C19.482 44.7199 20.4365 45.8157 21.7425 46.7651C23.0484 47.7144 24.3876 48.2863 25.76 48.4804C27.1269 48.6704 28.4452 48.4738 29.7142 47.8905C30.5235 47.5143 31.2791 46.974 31.9824 46.2709C32.5469 46.8353 33.1448 47.2947 33.7772 47.6486C33.9327 47.7356 34.0901 47.8163 34.2498 47.8905C35.5188 48.4738 36.8371 48.6704 38.204 48.4804C39.5765 48.2863 40.916 47.7145 42.2219 46.7651C43.5278 45.8157 44.482 44.7199 45.085 43.4778C45.6936 42.2317 45.9143 40.9167 45.7465 39.5329C45.6392 38.6158 45.3476 37.6996 44.8723 36.784C45.8256 36.3184 46.624 35.7409 47.2665 35.0495C48.2131 34.0222 48.8072 32.8285 49.049 31.469C49.2887 30.103 49.1589 28.6519 48.6601 27.1159C48.1613 25.5797 47.4147 24.3326 46.4205 23.3749C45.4242 22.4108 44.2425 21.7945 42.8754 21.5265C41.9726 21.3456 41.0138 21.3404 39.9993 21.5086C39.8504 20.4642 39.5482 19.5314 39.0919 18.7106C38.4079 17.4925 37.4573 16.5584 36.2398 15.9082C35.0155 15.2581 33.5966 14.9331 31.9824 14.9331Z" fill="#3A8478" style="fill:#3A8478;fill:color(display-p3 0.2275 0.5176 0.4706);fill-opacity:1;"/>
<path fill-rule="evenodd" clip-rule="evenodd" d="M31.9811 14.932C33.5954 14.932 35.0142 15.2572 36.2386 15.9073C37.4561 16.5575 38.4069 17.4915 39.0909 18.7097C39.5471 19.5305 39.8494 20.4631 39.9982 21.5075C41.0128 21.3393 41.9715 21.3445 42.8743 21.5254C44.2414 21.7934 45.4232 22.4097 46.4195 23.3738C47.4137 24.3315 48.1601 25.5787 48.6589 27.1148C49.1577 28.6509 49.2876 30.102 49.048 31.468C48.8062 32.8275 48.212 34.0211 47.2655 35.0484C46.623 35.7398 45.8244 36.3173 44.8711 36.7829C45.3464 37.6985 45.638 38.6147 45.7453 39.5318C45.9131 40.9156 45.6926 42.2308 45.084 43.4769C44.481 44.7189 43.5268 45.8148 42.2209 46.7642C40.9149 47.7136 39.5753 48.2852 38.2028 48.4793C36.8359 48.6693 35.5177 48.4727 34.2487 47.8894C34.0891 47.8152 33.9315 47.7347 33.776 47.6477C33.1435 47.2938 32.5457 46.8342 31.9811 46.2698C31.2779 46.9729 30.5223 47.5132 29.713 47.8894C28.444 48.4727 27.1259 48.6693 25.7589 48.4793C24.3865 48.2852 23.0473 47.7135 21.7414 46.7642C20.4355 45.8148 19.481 44.719 18.8779 43.4769C18.2693 42.2308 18.0486 40.9156 18.2164 39.5318C18.3237 38.6148 18.616 37.699 19.0912 36.7835C18.1378 36.3178 17.3394 35.7399 16.6968 35.0484C15.7503 34.0211 15.1561 32.8275 14.9143 31.468C14.6747 30.1021 14.8041 28.6508 15.3028 27.1148C15.8017 25.5786 16.5486 24.3315 17.5428 23.3738C18.5391 22.4097 19.7208 21.7934 21.088 21.5254C21.9907 21.3445 22.9491 21.3394 23.9635 21.5075C24.1123 20.4631 24.4146 19.5305 24.8708 18.7097C25.5548 17.4916 26.5057 16.5575 27.7231 15.9073C28.9475 15.2572 30.3669 14.932 31.9811 14.932ZM31.9808 18.2928C30.6893 18.2928 29.5536 18.5529 28.5741 19.0731C27.6001 19.5933 26.8394 20.3404 26.2922 21.315C25.9272 21.9716 25.6853 22.718 25.5662 23.5536C24.7546 23.4191 23.9879 23.423 23.2656 23.5677C22.1719 23.7821 21.2265 24.2752 20.4294 25.0466C19.6339 25.8128 19.0364 26.8106 18.6374 28.0396C18.2383 29.2685 18.1346 30.4295 18.3263 31.5223C18.5198 32.61 18.9952 33.5649 19.7525 34.3868C20.2666 34.94 20.9053 35.4023 21.6681 35.7748C21.2879 36.5073 21.0542 37.2402 20.9684 37.9739C20.8341 39.0809 21.0106 40.133 21.4974 41.1299C21.9799 42.1236 22.7436 43.0004 23.7885 43.7599C24.8332 44.5195 25.9046 44.9769 27.0026 45.1322C28.0962 45.2842 29.1508 45.1269 30.1661 44.6602C30.8135 44.3593 31.4181 43.9271 31.9808 43.3645C32.4324 43.8161 32.9108 44.1836 33.4168 44.4667C33.5412 44.5363 33.6672 44.6009 33.7949 44.6602C34.8101 45.1269 35.8647 45.2842 36.9584 45.1322C38.0564 44.9769 39.1281 44.5195 40.1729 43.7599C41.2177 43.0004 41.981 42.1236 42.4635 41.1299C42.9504 40.133 43.1268 39.081 42.9926 37.9739C42.9068 37.2401 42.6735 36.507 42.2932 35.7745C43.0559 35.4019 43.6948 34.9399 44.2089 34.3868C44.9661 33.5649 45.4416 32.61 45.635 31.5223C45.8267 30.4295 45.7226 29.2686 45.3236 28.0396C44.9245 26.8107 44.3274 25.8128 43.532 25.0466C42.7349 24.2752 41.7895 23.7821 40.6957 23.5677C39.9734 23.4229 39.2064 23.4191 38.3948 23.5536C38.2757 22.718 38.0338 21.9716 37.6688 21.315C37.1215 20.3404 36.3609 19.5933 35.3869 19.0731C34.4073 18.5529 33.2722 18.2928 31.9808 18.2928Z" fill="#52A395" style="fill:#52A395;fill:color(display-p3 0.3216 0.6392 0.5843);fill-opacity:1;"/>
<path fill-rule="evenodd" clip-rule="evenodd" d="M31.9819 18.2938C33.2733 18.2938 34.4085 18.554 35.388 19.0741C36.362 19.5943 37.1226 20.3416 37.6699 21.3162C38.0349 21.9728 38.2768 22.719 38.3959 23.5546C39.2076 23.4201 39.9745 23.4241 40.6968 23.5689C41.7905 23.7833 42.736 24.2763 43.5331 25.0476C44.3285 25.8138 44.9258 26.8117 45.3249 28.0406C45.7239 29.2696 45.8278 30.4305 45.6361 31.5233C45.4427 32.611 44.9672 33.5659 44.21 34.3878C43.6959 34.9409 43.0571 35.4031 42.2944 35.7757C42.6746 36.5081 42.9079 37.2411 42.9937 37.9749C43.128 39.082 42.9515 40.134 42.4646 41.1309C41.9822 42.1246 41.2188 43.0014 40.174 43.761C39.1292 44.5205 38.0575 44.9779 36.9595 45.1332C35.8659 45.2852 34.8112 45.1279 33.796 44.6612C33.6683 44.6019 33.5422 44.5375 33.4179 44.4679C32.9119 44.1848 32.4335 43.8171 31.9819 43.3656C31.4192 43.9281 30.8147 44.3603 30.1672 44.6612C29.1519 45.1279 28.0973 45.2852 27.0037 45.1332C25.9057 44.9779 24.8343 44.5205 23.7896 43.761C22.7447 43.0014 21.981 42.1246 21.4986 41.1309C21.0117 40.1341 20.8352 39.0819 20.9695 37.9749C21.0553 37.2412 21.289 36.5084 21.6692 35.776C20.9064 35.4035 20.2677 34.941 19.7536 34.3878C18.9963 33.5659 18.5209 32.611 18.3275 31.5233C18.1357 30.4305 18.2394 29.2696 18.6385 28.0406C19.0376 26.8117 19.635 25.8138 20.4305 25.0476C21.2276 24.2763 22.173 23.7833 23.2668 23.5689C23.989 23.4242 24.7557 23.4201 25.5673 23.5546C25.6864 22.719 25.9283 21.9728 26.2933 21.3162C26.8405 20.3416 27.6012 19.5943 28.5752 19.0741C29.5547 18.554 30.6904 18.2938 31.9819 18.2938ZM31.9819 20.9817C30.9486 20.9817 30.04 21.1899 29.2562 21.6061C28.4769 22.0223 27.8682 22.6202 27.4303 23.4C27.1383 23.9254 26.9447 24.5224 26.8494 25.191C26.2001 25.0834 25.5867 25.0867 25.0089 25.2025C24.1337 25.374 23.3772 25.7686 22.7394 26.3858C22.103 26.9988 21.6249 27.7971 21.3056 28.7804C20.9863 29.7637 20.9035 30.6926 21.0569 31.567C21.2117 32.4372 21.592 33.2013 22.1979 33.8589C22.6092 34.3015 23.1202 34.6716 23.7305 34.9697C23.4263 35.5556 23.2392 36.1419 23.1706 36.7289C23.0632 37.6147 23.2044 38.4565 23.594 39.2542C23.98 40.0493 24.5911 40.7508 25.4271 41.3585C26.2631 41.9662 27.1203 42.3323 27.9989 42.4565C28.8739 42.5782 29.7177 42.4522 30.53 42.0788C31.048 41.838 31.5317 41.4922 31.9819 41.0422C32.3432 41.4035 32.726 41.6975 33.1309 41.924C33.2304 41.9797 33.3312 42.0313 33.4333 42.0788C34.2457 42.4522 35.0895 42.5781 35.9645 42.4565C36.8431 42.3323 37.7006 41.9663 38.5366 41.3585C39.3726 40.7508 39.9834 40.0492 40.3694 39.2542C40.759 38.4565 40.9002 37.6147 40.7928 36.7289C40.7241 36.1418 40.5373 35.5554 40.233 34.9693C40.8433 34.6712 41.3545 34.3015 41.7658 33.8589C42.3717 33.2013 42.7521 32.4372 42.9069 31.567C43.0603 30.6925 42.977 29.7637 42.6577 28.7804C42.3384 27.7971 41.8607 26.9988 41.2244 26.3858C40.5866 25.7686 39.83 25.374 38.9549 25.2025C38.377 25.0866 37.7633 25.0834 37.1139 25.191C37.0186 24.5225 36.8251 23.9254 36.533 23.4C36.0952 22.6202 35.4865 22.0222 34.7071 21.6061C33.9234 21.1899 33.0152 20.9817 31.9819 20.9817Z" fill="#81B983" style="fill:#81B983;fill:color(display-p3 0.5059 0.7255 0.5137);fill-opacity:1;"/>
</svg>
