<svg width="64" height="63" viewBox="0 0 64 63" fill="none" xmlns="http://www.w3.org/2000/svg">
<path fill-rule="evenodd" clip-rule="evenodd" d="M31.9822 10.73C34 10.73 35.7736 11.1364 37.3041 11.9491C38.826 12.7618 40.0144 13.9294 40.8695 15.4522C41.4398 16.4781 41.8178 17.6441 42.0038 18.9497C43.272 18.7395 44.4704 18.7458 45.5989 18.972C47.3079 19.307 48.7852 20.0774 50.0306 21.2826C51.2734 22.4798 52.2064 24.0387 52.83 25.9589C53.4535 27.8791 53.6158 29.6929 53.3162 31.4005C53.014 33.0999 52.2713 34.592 51.0881 35.8762C50.2849 36.7404 49.2867 37.4625 48.095 38.0445C48.6892 39.189 49.0538 40.3343 49.1879 41.4808C49.3976 43.2106 49.1218 44.8544 48.3611 46.4121C47.6073 47.9647 46.4145 49.3346 44.782 50.5214C43.1495 51.7081 41.4751 52.4227 39.7595 52.6653C38.0508 52.9029 36.4029 52.6572 34.8166 51.9281C34.617 51.8353 34.4201 51.7346 34.2258 51.6258C33.4351 51.1834 32.6878 50.609 31.9822 49.9035C31.1031 50.7824 30.1585 51.4578 29.1469 51.9281C27.5605 52.6572 25.9128 52.9029 24.2041 52.6653C22.4885 52.4227 20.8144 51.7081 19.182 50.5214C17.5495 49.3346 16.3562 47.9647 15.6023 46.4121C14.8416 44.8545 14.566 43.2105 14.7757 41.4808C14.9098 40.3344 15.2751 39.1895 15.8692 38.0451C14.6773 37.463 13.6794 36.7405 12.8761 35.8762C11.6929 34.592 10.95 33.0999 10.6478 31.4005C10.3482 29.6929 10.5102 27.879 11.1336 25.9589C11.7572 24.0387 12.6907 22.4798 13.9335 21.2826C15.179 20.0774 16.6562 19.3069 18.3653 18.972C19.4937 18.7459 20.6917 18.7395 21.9598 18.9497C22.1458 17.6441 22.5236 16.4782 23.0939 15.4522C23.9489 13.9294 25.1375 12.7618 26.6593 11.9491C28.1898 11.1363 29.9643 10.73 31.9822 10.73ZM31.9824 14.933C30.3681 14.933 28.9485 15.2579 27.7241 15.9081C26.5067 16.5583 25.556 17.4924 24.8721 18.7105C24.4158 19.5313 24.1136 20.4641 23.9647 21.5085C22.9503 21.3404 21.9919 21.3455 21.0892 21.5264C19.722 21.7943 18.5402 22.4106 17.5438 23.3748C16.5496 24.3325 15.8027 25.5796 15.3039 27.1157C14.8051 28.6518 14.6757 30.1029 14.9153 31.4688C15.1571 32.8283 15.7513 34.0221 16.6978 35.0494C17.3404 35.7408 18.1388 36.3186 19.0923 36.7843C18.617 37.6998 18.3249 38.6157 18.2177 39.5328C18.0499 40.9166 18.2704 42.2316 18.8789 43.4777C19.482 44.7198 20.4365 45.8156 21.7425 46.765C23.0484 47.7143 24.3876 48.2861 25.76 48.4802C27.1269 48.6703 28.4452 48.4737 29.7142 47.8904C30.5235 47.5142 31.2791 46.9739 31.9824 46.2708C32.5469 46.8351 33.1448 47.2946 33.7772 47.6485C33.9327 47.7355 34.0901 47.8162 34.2498 47.8904C35.5188 48.4737 36.8371 48.6703 38.204 48.4802C39.5765 48.2862 40.916 47.7144 42.2219 46.765C43.5278 45.8156 44.482 44.7197 45.085 43.4777C45.6936 42.2316 45.9143 40.9166 45.7465 39.5328C45.6392 38.6156 45.3476 37.6995 44.8723 36.7839C45.8256 36.3183 46.624 35.7408 47.2665 35.0494C48.2131 34.0221 48.8072 32.8283 49.049 31.4688C49.2887 30.1029 49.1589 28.6518 48.6601 27.1157C48.1613 25.5796 47.4147 24.3325 46.4205 23.3748C45.4242 22.4106 44.2425 21.7944 42.8754 21.5264C41.9726 21.3455 41.0138 21.3403 39.9993 21.5085C39.8504 20.4641 39.5482 19.5313 39.0919 18.7105C38.4079 17.4924 37.4573 16.5583 36.2398 15.9081C35.0155 15.258 33.5966 14.933 31.9824 14.933Z" fill="#040301" style="fill:#040301;fill:color(display-p3 0.0157 0.0118 0.0039);fill-opacity:1;"/>
<path opacity="0.8" fill-rule="evenodd" clip-rule="evenodd" d="M31.9811 14.9319C33.5954 14.9319 35.0142 15.257 36.2386 15.9072C37.4561 16.5574 38.4069 17.4914 39.0909 18.7096C39.5471 19.5303 39.8494 20.463 39.9982 21.5074C41.0128 21.3392 41.9715 21.3444 42.8743 21.5253C44.2414 21.7933 45.4232 22.4096 46.4195 23.3737C47.4137 24.3314 48.1601 25.5786 48.6589 27.1146C49.1577 28.6507 49.2876 30.1019 49.048 31.4679C48.8062 32.8274 48.212 34.021 47.2655 35.0483C46.623 35.7397 45.8244 36.3172 44.8711 36.7828C45.3464 37.6983 45.638 38.6146 45.7453 39.5317C45.9131 40.9155 45.6926 42.2307 45.084 43.4768C44.481 44.7188 43.5268 45.8147 42.2209 46.7641C40.9149 47.7135 39.5753 48.2851 38.2028 48.4791C36.8359 48.6692 35.5177 48.4726 34.2487 47.8893C34.0891 47.8151 33.9315 47.7346 33.776 47.6476C33.1435 47.2937 32.5457 46.8341 31.9811 46.2697C31.2779 46.9728 30.5223 47.5131 29.713 47.8893C28.444 48.4726 27.1259 48.6692 25.7589 48.4791C24.3865 48.285 23.0473 47.7134 21.7414 46.7641C20.4355 45.8147 19.481 44.7188 18.8779 43.4768C18.2693 42.2307 18.0486 40.9155 18.2164 39.5317C18.3237 38.6146 18.616 37.6988 19.0912 36.7834C18.1378 36.3177 17.3394 35.7397 16.6968 35.0483C15.7503 34.021 15.1561 32.8274 14.9143 31.4679C14.6747 30.1019 14.8041 28.6507 15.3028 27.1146C15.8017 25.5785 16.5486 24.3314 17.5428 23.3737C18.5391 22.4096 19.7208 21.7933 21.088 21.5253C21.9907 21.3444 22.9491 21.3393 23.9635 21.5074C24.1123 20.463 24.4146 19.5303 24.8708 18.7096C25.5548 17.4914 26.5057 16.5574 27.7231 15.9072C28.9475 15.257 30.3669 14.9319 31.9811 14.9319ZM31.9808 18.2927C30.6893 18.2927 29.5536 18.5528 28.5741 19.073C27.6001 19.5931 26.8394 20.3403 26.2922 21.3149C25.9272 21.9715 25.6853 22.7179 25.5662 23.5535C24.7546 23.419 23.9879 23.4228 23.2656 23.5676C22.1719 23.7819 21.2265 24.2751 20.4294 25.0465C19.6339 25.8127 19.0364 26.8105 18.6374 28.0395C18.2383 29.2684 18.1346 30.4294 18.3263 31.5222C18.5198 32.6098 18.9952 33.5648 19.7525 34.3867C20.2666 34.9398 20.9053 35.4022 21.6681 35.7747C21.2879 36.5071 21.0542 37.2401 20.9684 37.9737C20.8341 39.0808 21.0106 40.1329 21.4974 41.1298C21.9799 42.1235 22.7436 43.0003 23.7885 43.7598C24.8332 44.5193 25.9046 44.9768 27.0026 45.1321C28.0962 45.2841 29.1508 45.1268 30.1661 44.6601C30.8135 44.3591 31.4181 43.9269 31.9808 43.3644C32.4324 43.816 32.9108 44.1835 33.4168 44.4666C33.5412 44.5362 33.6672 44.6007 33.7949 44.6601C34.8101 45.1268 35.8647 45.2841 36.9584 45.1321C38.0564 44.9768 39.1281 44.5194 40.1729 43.7598C41.2177 43.0003 41.981 42.1235 42.4635 41.1298C42.9504 40.1329 43.1268 39.0808 42.9926 37.9737C42.9068 37.24 42.6735 36.5068 42.2932 35.7743C43.0559 35.4018 43.6948 34.9398 44.2089 34.3867C44.9661 33.5648 45.4416 32.6099 45.635 31.5222C45.8267 30.4293 45.7226 29.2684 45.3236 28.0395C44.9245 26.8105 44.3274 25.8127 43.532 25.0465C42.7349 24.2751 41.7895 23.782 40.6957 23.5676C39.9734 23.4228 39.2064 23.4189 38.3948 23.5535C38.2757 22.7179 38.0338 21.9715 37.6688 21.3149C37.1215 20.3403 36.3609 19.5931 35.3869 19.073C34.4073 18.5528 33.2722 18.2927 31.9808 18.2927Z" fill="#040301" style="fill:#040301;fill:color(display-p3 0.0157 0.0118 0.0039);fill-opacity:1;"/>
<path opacity="0.6" fill-rule="evenodd" clip-rule="evenodd" d="M31.9819 18.2937C33.2733 18.2937 34.4085 18.5538 35.388 19.074C36.362 19.5942 37.1226 20.3415 37.6699 21.3161C38.0349 21.9727 38.2768 22.7189 38.3959 23.5545C39.2076 23.4199 39.9745 23.424 40.6968 23.5688C41.7905 23.7832 42.736 24.2761 43.5331 25.0475C44.3285 25.8137 44.9258 26.8116 45.3249 28.0405C45.7239 29.2694 45.8278 30.4304 45.6361 31.5232C45.4427 32.6109 44.9672 33.5658 44.21 34.3877C43.6959 34.9408 43.0571 35.403 42.2944 35.7755C42.6746 36.508 42.9079 37.241 42.9937 37.9748C43.128 39.0819 42.9515 40.1339 42.4646 41.1308C41.9822 42.1245 41.2188 43.0013 40.174 43.7608C39.1292 44.5204 38.0575 44.9778 36.9595 45.1331C35.8659 45.2851 34.8112 45.1278 33.796 44.6611C33.6683 44.6018 33.5422 44.5374 33.4179 44.4678C32.9119 44.1847 32.4335 43.817 31.9819 43.3654C31.4192 43.928 30.8147 44.3602 30.1672 44.6611C29.1519 45.1278 28.0973 45.2851 27.0037 45.1331C25.9057 44.9778 24.8343 44.5203 23.7896 43.7608C22.7447 43.0013 21.981 42.1245 21.4986 41.1308C21.0117 40.1339 20.8352 39.0818 20.9695 37.9748C21.0553 37.2411 21.289 36.5083 21.6692 35.7759C20.9064 35.4034 20.2677 34.9409 19.7536 34.3877C18.9963 33.5658 18.5209 32.6109 18.3275 31.5232C18.1357 30.4304 18.2394 29.2694 18.6385 28.0405C19.0376 26.8115 19.635 25.8137 20.4305 25.0475C21.2276 24.2761 22.173 23.7832 23.2668 23.5688C23.989 23.424 24.7557 23.42 25.5673 23.5545C25.6864 22.7189 25.9283 21.9727 26.2933 21.3161C26.8405 20.3415 27.6012 19.5942 28.5752 19.074C29.5547 18.5538 30.6904 18.2937 31.9819 18.2937ZM31.9819 20.9816C30.9486 20.9816 30.04 21.1898 29.2562 21.6059C28.4769 22.0221 27.8682 22.6201 27.4303 23.3998C27.1383 23.9252 26.9447 24.5223 26.8494 25.1909C26.2001 25.0833 25.5867 25.0865 25.0089 25.2023C24.1337 25.3738 23.3772 25.7684 22.7394 26.3856C22.103 26.9987 21.6249 27.797 21.3056 28.7803C20.9863 29.7635 20.9035 30.6924 21.0569 31.5668C21.2117 32.4371 21.592 33.2012 22.1979 33.8588C22.6092 34.3014 23.1202 34.6715 23.7305 34.9695C23.4263 35.5555 23.2392 36.1418 23.1706 36.7288C23.0632 37.6146 23.2044 38.4564 23.594 39.2541C23.98 40.0491 24.5911 40.7507 25.4271 41.3584C26.2631 41.9661 27.1203 42.3321 27.9989 42.4564C28.8739 42.578 29.7177 42.4521 30.53 42.0787C31.048 41.8379 31.5317 41.4921 31.9819 41.0421C32.3432 41.4033 32.726 41.6973 33.1309 41.9239C33.2304 41.9795 33.3312 42.0312 33.4333 42.0787C34.2457 42.4521 35.0895 42.578 35.9645 42.4564C36.8431 42.3322 37.7006 41.9661 38.5366 41.3584C39.3726 40.7507 39.9834 40.0491 40.3694 39.2541C40.759 38.4564 40.9002 37.6146 40.7928 36.7288C40.7241 36.1417 40.5373 35.5552 40.233 34.9692C40.8433 34.6711 41.3545 34.3014 41.7658 33.8588C42.3717 33.2012 42.7521 32.4371 42.9069 31.5668C43.0603 30.6924 42.977 29.7635 42.6577 28.7803C42.3384 27.797 41.8607 26.9987 41.2244 26.3856C40.5866 25.7684 39.83 25.3739 38.9549 25.2023C38.377 25.0865 37.7633 25.0833 37.1139 25.1909C37.0186 24.5223 36.8251 23.9252 36.533 23.3998C36.0952 22.6201 35.4865 22.0221 34.7071 21.6059C33.9234 21.1898 33.0152 20.9816 31.9819 20.9816Z" fill="#040301" style="fill:#040301;fill:color(display-p3 0.0157 0.0118 0.0039);fill-opacity:1;"/>
</svg>
