<svg width="64" height="63" viewBox="0 0 64 63" fill="none" xmlns="http://www.w3.org/2000/svg">
<path fill-rule="evenodd" clip-rule="evenodd" d="M31.9822 10.7301C34 10.7301 35.7736 11.1365 37.3041 11.9492C38.826 12.7619 40.0144 13.9295 40.8695 15.4523C41.4398 16.4783 41.8178 17.6443 42.0038 18.9498C43.272 18.7396 44.4704 18.7459 45.5989 18.9721C47.3079 19.3071 48.7852 20.0775 50.0306 21.2827C51.2734 22.4799 52.2064 24.0389 52.83 25.959C53.4535 27.8792 53.6158 29.693 53.3162 31.4006C53.014 33.1 52.2713 34.5921 51.0881 35.8763C50.2849 36.7406 49.2867 37.4626 48.095 38.0447C48.6892 39.1891 49.0538 40.3344 49.1879 41.4809C49.3976 43.2107 49.1218 44.8546 48.3611 46.4122C47.6073 47.9648 46.4145 49.3347 44.782 50.5215C43.1495 51.7082 41.4751 52.4229 39.7595 52.6655C38.0508 52.903 36.4029 52.6573 34.8166 51.9282C34.617 51.8354 34.4201 51.7347 34.2258 51.626C33.4351 51.1836 32.6878 50.6091 31.9822 49.9037C31.1031 50.7826 30.1585 51.458 29.1469 51.9282C27.5605 52.6573 25.9128 52.903 24.2041 52.6655C22.4885 52.4228 20.8144 51.7082 19.182 50.5215C17.5495 49.3347 16.3562 47.9648 15.6023 46.4122C14.8416 44.8546 14.566 43.2106 14.7757 41.4809C14.9098 40.3345 15.2751 39.1896 15.8692 38.0452C14.6773 37.4631 13.6794 36.7406 12.8761 35.8763C11.6929 34.5921 10.95 33.1 10.6478 31.4006C10.3482 29.6931 10.5102 27.8791 11.1336 25.959C11.7572 24.0388 12.6907 22.4799 13.9335 21.2827C15.179 20.0775 16.6562 19.3071 18.3653 18.9721C19.4937 18.746 20.6917 18.7397 21.9598 18.9498C22.1458 17.6443 22.5236 16.4783 23.0939 15.4523C23.9489 13.9296 25.1375 12.762 26.6593 11.9492C28.1898 11.1365 29.9643 10.7301 31.9822 10.7301ZM31.9824 14.9331C30.3681 14.9331 28.9485 15.2581 27.7241 15.9082C26.5067 16.5584 25.556 17.4925 24.8721 18.7106C24.4158 19.5314 24.1136 20.4642 23.9647 21.5086C22.9503 21.3405 21.9919 21.3456 21.0892 21.5265C19.722 21.7945 18.5402 22.4107 17.5438 23.3749C16.5496 24.3326 15.8027 25.5797 15.3039 27.1159C14.8051 28.6519 14.6757 30.103 14.9153 31.469C15.1571 32.8285 15.7513 34.0222 16.6978 35.0495C17.3404 35.7409 18.1388 36.3188 19.0923 36.7844C18.617 37.6999 18.3249 38.6158 18.2177 39.5329C18.0499 40.9167 18.2704 42.2318 18.8789 43.4778C19.482 44.7199 20.4365 45.8157 21.7425 46.7651C23.0484 47.7144 24.3876 48.2863 25.76 48.4804C27.1269 48.6704 28.4452 48.4738 29.7142 47.8905C30.5235 47.5143 31.2791 46.974 31.9824 46.2709C32.5469 46.8353 33.1448 47.2947 33.7772 47.6486C33.9327 47.7356 34.0901 47.8163 34.2498 47.8905C35.5188 48.4738 36.8371 48.6704 38.204 48.4804C39.5765 48.2863 40.916 47.7145 42.2219 46.7651C43.5278 45.8157 44.482 44.7199 45.085 43.4778C45.6936 42.2317 45.9143 40.9167 45.7465 39.5329C45.6392 38.6158 45.3476 37.6996 44.8723 36.784C45.8256 36.3184 46.624 35.7409 47.2665 35.0495C48.2131 34.0222 48.8072 32.8285 49.049 31.469C49.2887 30.103 49.1589 28.6519 48.6601 27.1159C48.1613 25.5797 47.4147 24.3326 46.4205 23.3749C45.4242 22.4108 44.2425 21.7945 42.8754 21.5265C41.9726 21.3456 41.0138 21.3404 39.9993 21.5086C39.8504 20.4642 39.5482 19.5314 39.0919 18.7106C38.4079 17.4925 37.4573 16.5584 36.2398 15.9082C35.0155 15.2581 33.5966 14.9331 31.9824 14.9331Z" fill="#080E2F" style="fill:#080E2F;fill:color(display-p3 0.0314 0.0549 0.1843);fill-opacity:1;"/>
<path fill-rule="evenodd" clip-rule="evenodd" d="M31.9809 14.932C33.5952 14.932 35.014 15.2572 36.2384 15.9073C37.4559 16.5575 38.4066 17.4915 39.0907 18.7097C39.5469 19.5305 39.8491 20.4631 39.998 21.5075C41.0125 21.3393 41.9713 21.3445 42.8741 21.5254C44.2412 21.7934 45.4229 22.4097 46.4192 23.3738C47.4135 24.3315 48.1598 25.5787 48.6586 27.1148C49.1574 28.6509 49.2874 30.102 49.0477 31.468C48.806 32.8275 48.2118 34.0211 47.2653 35.0484C46.6227 35.7398 45.8242 36.3173 44.8708 36.7829C45.3462 37.6985 45.6378 38.6147 45.745 39.5318C45.9128 40.9156 45.6924 42.2308 45.0838 43.4769C44.4807 44.7189 43.5265 45.8148 42.2206 46.7642C40.9147 47.7136 39.575 48.2852 38.2026 48.4793C36.8356 48.6693 35.5175 48.4727 34.2485 47.8894C34.0888 47.8152 33.9312 47.7347 33.7758 47.6477C33.1433 47.2938 32.5454 46.8342 31.9809 46.2698C31.2776 46.9729 30.522 47.5132 29.7127 47.8894C28.4437 48.4727 27.1256 48.6693 25.7587 48.4793C24.3863 48.2852 23.0471 47.7135 21.7412 46.7642C20.4352 45.8148 19.4807 44.719 18.8777 43.4769C18.2691 42.2308 18.0484 40.9156 18.2162 39.5318C18.3235 38.6148 18.6157 37.699 19.091 36.7835C18.1375 36.3178 17.3391 35.7399 16.6965 35.0484C15.75 34.0211 15.1558 32.8275 14.9141 31.468C14.6744 30.1021 14.8038 28.6508 15.3026 27.1148C15.8014 25.5786 16.5483 24.3315 17.5426 23.3738C18.5389 22.4097 19.7206 21.7934 21.0877 21.5254C21.9904 21.3445 22.9489 21.3394 23.9632 21.5075C24.1121 20.4631 24.4144 19.5305 24.8706 18.7097C25.5545 17.4916 26.5054 16.5575 27.7229 15.9073C28.9472 15.2572 30.3667 14.932 31.9809 14.932ZM31.9805 18.2928C30.689 18.2928 29.5534 18.5529 28.5738 19.0731C27.5999 19.5933 26.8392 20.3404 26.292 21.315C25.9269 21.9716 25.685 22.718 25.5659 23.5536C24.7544 23.4191 23.9876 23.423 23.2654 23.5677C22.1716 23.7821 21.2262 24.2752 20.4291 25.0466C19.6337 25.8128 19.0362 26.8106 18.6371 28.0396C18.2381 29.2685 18.1344 30.4295 18.3261 31.5223C18.5195 32.61 18.995 33.5649 19.7522 34.3868C20.2663 34.94 20.9051 35.4023 21.6679 35.7748C21.2876 36.5073 21.0539 37.2402 20.9681 37.9739C20.8339 39.0809 21.0103 40.133 21.4972 41.1299C21.9797 42.1236 22.7434 43.0004 23.7882 43.7599C24.833 44.5195 25.9044 44.9769 27.0024 45.1322C28.096 45.2842 29.1506 45.1269 30.1658 44.6602C30.8133 44.3593 31.4179 43.9271 31.9805 43.3645C32.4321 43.8161 32.9106 44.1836 33.4166 44.4667C33.5409 44.5363 33.6669 44.6009 33.7946 44.6602C34.8099 45.1269 35.8645 45.2842 36.9581 45.1322C38.0562 44.9769 39.1278 44.5195 40.1726 43.7599C41.2174 43.0004 41.9808 42.1236 42.4633 41.1299C42.9501 40.133 43.1266 39.081 42.9924 37.9739C42.9065 37.2401 42.6733 36.507 42.293 35.7745C43.0557 35.4019 43.6946 34.9399 44.2086 34.3868C44.9659 33.5649 45.4413 32.61 45.6348 31.5223C45.8265 30.4295 45.7224 29.2686 45.3234 28.0396C44.9243 26.8107 44.3272 25.8128 43.5317 25.0466C42.7346 24.2752 41.7892 23.7821 40.6954 23.5677C39.9732 23.4229 39.2062 23.4191 38.3945 23.5536C38.2754 22.718 38.0335 21.9716 37.6685 21.315C37.1213 20.3404 36.3607 19.5933 35.3866 19.0731C34.4071 18.5529 33.272 18.2928 31.9805 18.2928Z" fill="#4B589C" style="fill:#4B589C;fill:color(display-p3 0.2941 0.3451 0.6118);fill-opacity:1;"/>
<path fill-rule="evenodd" clip-rule="evenodd" d="M31.9816 18.2938C33.2731 18.2938 34.4082 18.554 35.3878 19.0741C36.3618 19.5943 37.1224 20.3416 37.6696 21.3162C38.0346 21.9728 38.2766 22.719 38.3956 23.5546C39.2073 23.4201 39.9743 23.4241 40.6966 23.5689C41.7903 23.7833 42.7357 24.2763 43.5328 25.0476C44.3283 25.8138 44.9256 26.8117 45.3247 28.0406C45.7237 29.2696 45.8276 30.4305 45.6359 31.5233C45.4424 32.611 44.967 33.5659 44.2097 34.3878C43.6957 34.9409 43.0568 35.4031 42.2941 35.7757C42.6744 36.5081 42.9076 37.2411 42.9935 37.9749C43.1277 39.082 42.9513 40.134 42.4644 41.1309C41.9819 42.1246 41.2185 43.0014 40.1738 43.761C39.1289 44.5205 38.0573 44.9779 36.9592 45.1332C35.8656 45.2852 34.811 45.1279 33.7957 44.6612C33.668 44.6019 33.542 44.5375 33.4177 44.4679C32.9117 44.1848 32.4333 43.8171 31.9816 43.3656C31.419 43.9281 30.8144 44.3603 30.167 44.6612C29.1517 45.1279 28.0971 45.2852 27.0035 45.1332C25.9055 44.9779 24.8341 44.5205 23.7893 43.761C22.7445 43.0014 21.9808 42.1246 21.4983 41.1309C21.0115 40.1341 20.835 39.0819 20.9692 37.9749C21.055 37.2412 21.2888 36.5084 21.669 35.776C20.9062 35.4035 20.2674 34.941 19.7533 34.3878C18.9961 33.5659 18.5206 32.611 18.3272 31.5233C18.1355 30.4305 18.2392 29.2696 18.6382 28.0406C19.0373 26.8117 19.6348 25.8138 20.4302 25.0476C21.2273 24.2763 22.1728 23.7833 23.2665 23.5689C23.9887 23.4242 24.7555 23.4201 25.567 23.5546C25.6861 22.719 25.9281 21.9728 26.2931 21.3162C26.8403 20.3416 27.6009 19.5943 28.5749 19.0741C29.5545 18.554 30.6902 18.2938 31.9816 18.2938ZM31.9816 20.9817C30.9483 20.9817 30.0397 21.1899 29.256 21.6061C28.4767 22.0223 27.8679 22.6202 27.4301 23.4C27.138 23.9254 26.9445 24.5224 26.8492 25.191C26.1999 25.0834 25.5864 25.0867 25.0086 25.2025C24.1334 25.374 23.3769 25.7686 22.7391 26.3858C22.1027 26.9988 21.6247 27.7971 21.3054 28.7804C20.9861 29.7637 20.9032 30.6926 21.0566 31.567C21.2114 32.4372 21.5917 33.2013 22.1977 33.8589C22.609 34.3015 23.12 34.6716 23.7303 34.9697C23.4261 35.5556 23.239 36.1419 23.1703 36.7289C23.0629 37.6147 23.2042 38.4565 23.5937 39.2542C23.9798 40.0493 24.5909 40.7508 25.4269 41.3585C26.2628 41.9662 27.1201 42.3323 27.9986 42.4565C28.8736 42.5782 29.7174 42.4522 30.5298 42.0788C31.0478 41.838 31.5315 41.4922 31.9816 41.0422C32.343 41.4035 32.7258 41.6975 33.1307 41.924C33.2301 41.9797 33.3309 42.0313 33.4331 42.0788C34.2454 42.4522 35.0893 42.5781 35.9643 42.4565C36.8428 42.3323 37.7004 41.9663 38.5364 41.3585C39.3723 40.7508 39.9831 40.0492 40.3692 39.2542C40.7587 38.4565 40.9 37.6147 40.7925 36.7289C40.7239 36.1418 40.5371 35.5554 40.2328 34.9693C40.843 34.6712 41.3543 34.3015 41.7656 33.8589C42.3715 33.2013 42.7519 32.4372 42.9066 31.567C43.06 30.6925 42.9768 29.7637 42.6575 28.7804C42.3382 27.7971 41.8605 26.9988 41.2241 26.3858C40.5863 25.7686 39.8298 25.374 38.9546 25.2025C38.3767 25.0866 37.7631 25.0834 37.1137 25.191C37.0184 24.5225 36.8248 23.9254 36.5328 23.4C36.0949 22.6202 35.4862 22.0222 34.7069 21.6061C33.9231 21.1899 33.0149 20.9817 31.9816 20.9817Z" fill="#52A395" style="fill:#52A395;fill:color(display-p3 0.3216 0.6392 0.5843);fill-opacity:1;"/>
</svg>
