<svg xmlns="http://www.w3.org/2000/svg" viewBox="0 0 64 64">
  <!-- Outer ring -->
  <path fill-rule="evenodd" clip-rule="evenodd" d="M31.9822 10.7301C34 10.7301 35.7736 11.1365 37.3041 11.9492C38.826 12.7619 40.0144 13.9295 40.8695 15.4523C41.4398 16.4783 41.8178 17.6443 42.0038 18.9498C43.272 18.7396 44.4704 18.7459 45.5989 18.9721C47.3079 19.3071 48.7852 20.0775 50.0306 21.2827C51.2734 22.4799 52.2064 24.0389 52.83 25.959C53.4535 27.8792 53.6158 29.693 53.3162 31.4006C53.014 33.1 52.2713 34.5921 51.0881 35.8763C50.2849 36.7406 49.2867 37.4626 48.095 38.0447C48.6892 39.1891 49.0538 40.3344 49.1879 41.4809C49.3976 43.2107 49.1218 44.8546 48.3611 46.4122C47.6073 47.9648 46.4145 49.3347 44.782 50.5215C43.1495 51.7082 41.4751 52.4229 39.7595 52.6655C38.0508 52.903 36.4029 52.6573 34.8166 51.9282C34.617 51.8354 34.4201 51.7347 34.2258 51.626C33.4351 51.1836 32.6878 50.6091 31.9822 49.9037C31.1031 50.7826 30.1585 51.458 29.1469 51.9282C27.5605 52.6573 25.9128 52.903 24.2041 52.6655C22.4885 52.4228 20.8144 51.7082 19.182 50.5215C17.5495 49.3347 16.3562 47.9648 15.6023 46.4122C14.8416 44.8546 14.566 43.2106 14.7757 41.4809C14.9098 40.3345 15.2751 39.1896 15.8692 38.0452C14.6773 37.4631 13.6794 36.7406 12.8761 35.8763C11.6929 34.5921 10.95 33.1 10.6478 31.4006C10.3482 29.6931 10.5102 27.8791 11.1336 25.959C11.7572 24.0388 12.6907 22.4799 13.9335 21.2827C15.179 20.0775 16.6562 19.3071 18.3653 18.9721C19.4937 18.746 20.6917 18.7397 21.9598 18.9498C22.1458 17.6443 22.5236 16.4783 23.0939 15.4523C23.9489 13.9296 25.1375 12.762 26.6593 11.9492C28.1898 11.1365 29.9643 10.7301 31.9822 10.7301Z" fill="#3A8478"/>
  <!-- Middle ring -->
  <path fill-rule="evenodd" clip-rule="evenodd" d="M31.9811 14.932C33.5953 14.932 35.0142 15.2572 36.2385 15.9073C37.456 16.5575 38.4068 17.4915 39.0908 18.7097C39.547 19.5305 39.8493 20.4631 39.9981 21.5075C41.0127 21.3393 41.9714 21.3445 42.8742 21.5254C44.2413 21.7934 45.4231 22.4097 46.4194 23.3738C47.4136 24.3315 48.16 25.5787 48.6588 27.1148C49.1576 28.6509 49.2875 30.102 49.0479 31.468C48.8061 32.8275 48.2119 34.0211 47.2654 35.0484C46.6229 35.7398 45.8243 36.3173 44.871 36.7829C45.3463 37.6985 45.6379 38.6147 45.7452 39.5318C45.913 40.9156 45.6925 42.2308 45.0839 43.4769C44.4809 44.7189 43.5267 45.8148 42.2208 46.7642C40.9148 47.7136 39.5752 48.2852 38.2027 48.4793C36.8358 48.6693 35.5176 48.4727 34.2486 47.8894C34.089 47.8152 33.9314 47.7347 33.7759 47.6477C33.1434 47.2938 32.5456 46.8342 31.9811 46.2698C31.2778 46.9729 30.5222 47.5132 29.7129 47.8894C28.4439 48.4727 27.1258 48.6693 25.7588 48.4793C24.3864 48.2852 23.0472 47.7135 21.7413 46.7642C20.4354 45.8148 19.4809 44.719 18.8778 43.4769C18.2693 42.2308 18.0485 40.9156 18.2164 39.5318C18.3236 38.6148 18.6159 37.699 19.0911 36.7835C18.1377 36.3178 17.3393 35.7399 16.6967 35.0484C15.7502 34.0211 15.156 32.8275 14.9142 31.468C14.6746 30.1021 14.804 28.6508 15.3027 27.1148C15.8016 25.5786 16.5485 24.3315 17.5427 23.3738C18.539 22.4097 19.7207 21.7934 21.0879 21.5254C21.9906 21.3445 22.949 21.3394 23.9634 21.5075C24.1122 20.4631 24.4145 19.5305 24.8707 18.7097C25.5547 17.4916 26.5056 16.5575 27.723 15.9073C28.9474 15.2572 30.3668 14.932 31.9811 14.932Z" fill="#52A395"/>
  <!-- Inner ring -->
  <path fill-rule="evenodd" clip-rule="evenodd" d="M31.9819 18.2938C33.2733 18.2938 34.4084 18.554 35.388 19.0741C36.362 19.5943 37.1226 20.3416 37.6699 21.3162C38.0349 21.9728 38.2768 22.719 38.3959 23.5546C39.2076 23.4201 39.9745 23.4241 40.6968 23.5689C41.7905 23.7833 42.736 24.2763 43.5331 25.0476C44.3285 25.8138 44.9258 26.8117 45.3249 28.0406C45.7239 29.2696 45.8278 30.4305 45.6361 31.5233C45.4427 32.611 44.9672 33.5659 44.21 34.3878C43.6959 34.9409 43.0571 35.4031 42.2943 35.7757C42.6746 36.5081 42.9079 37.2411 42.9937 37.9749C43.128 39.082 42.9515 40.134 42.4646 41.1309C41.9822 42.1246 41.2188 43.0014 40.174 43.761C39.1292 44.5205 38.0575 44.9779 36.9595 45.1332C35.8659 45.2852 34.8112 45.1279 33.796 44.6612C33.6683 44.6019 33.5422 44.5375 33.4179 44.4679C32.9119 44.1848 32.4335 43.8171 31.9819 43.3656C31.4192 43.9281 30.8147 44.3603 30.1672 44.6612C29.1519 45.1279 28.0973 45.2852 27.0037 45.1332C25.9057 44.9779 24.8343 44.5205 23.7896 43.761C22.7447 43.0014 21.981 42.1246 21.4986 41.1309C21.0117 40.1341 20.8352 39.0819 20.9695 37.9749C21.0553 37.2412 21.289 36.5084 21.6692 35.776C20.9064 35.4035 20.2677 34.941 19.7536 34.3878C18.9963 33.5659 18.5209 32.611 18.3275 31.5233C18.1357 30.4305 18.2394 29.2696 18.6385 28.0406C19.0376 26.8117 19.635 25.8138 20.4305 25.0476C21.2276 24.2763 22.173 23.7833 23.2668 23.5689C23.989 23.4242 24.7557 23.4201 25.5673 23.5546C25.6864 22.719 25.9283 21.9728 26.2933 21.3162C26.8405 20.3416 27.6012 19.5943 28.5752 19.0741C29.5547 18.554 30.6904 18.2938 31.9819 18.2938Z" fill="#81B983"/>
</svg>
